Upgrade-Regular_Testing.ufo
<glyph name="asterisk" format="2">
	<advance width="575"/>
	<unicode hex="002A"/>
	<outline>
		<contour>
			<point x="187" y="30" type="line"/>
			<point x="292" y="203" type="line"/>
			<point x="397" y="30" type="line"/>
			<point x="473" y="85" type="line"/>
			<point x="342" y="239" type="line"/>
			<point x="535" y="285" type="line"/>
			<point x="506" y="374" type="line"/>
			<point x="323" y="298" type="line"/>
			<point x="339" y="495" type="line"/>
			<point x="245" y="495" type="line"/>
			<point x="261" y="298" type="line"/>
			<point x="78" y="374" type="line"/>
			<point x="49" y="285" type="line"/>
			<point x="242" y="239" type="line"/>
			<point x="111" y="85" type="line"/>
		</contour>
	</outline>
</glyph>
<glyph name="plus" format="2">
	<advance width="516"/>
	<unicode hex="002B"/>
	<outline>
		<contour>
			<point x="231" y="76" type="line"/>
			<point x="305" y="76" type="line"/>
			<point x="305" y="255" type="line"/>
			<point x="476" y="255" type="line"/>
			<point x="476" y="326" type="line"/>
			<point x="305" y="326" type="line"/>
			<point x="305" y="505" type="line"/>
			<point x="231" y="505" type="line"/>
			<point x="231" y="326" type="line"/>
			<point x="60" y="326" type="line"/>
			<point x="60" y="255" type="line"/>
			<point x="231" y="255" type="line"/>
		</contour>
	</outline>
</glyph>
<glyph name="six" format="2">
  <advance width="537"/>
  <unicode hex="0036"/>
  <outline>
    <contour>
      <point x="272" y="-12" type="curve" smooth="yes"/>
      <point x="400" y="-12"/>
      <point x="497" y="72"/>
      <point x="497" y="216" type="curve" smooth="yes"/>
      <point x="497" y="343"/>
      <point x="413" y="429"/>
      <point x="292" y="429" type="curve" smooth="yes"/>
      <point x="206" y="429"/>
      <point x="130" y="380"/>
      <point x="114" y="277" type="curve"/>
      <point x="135" y="286" type="line"/>
      <point x="135" y="492"/>
      <point x="215" y="593"/>
      <point x="332" y="593" type="curve" smooth="yes"/>
      <point x="378" y="593"/>
      <point x="427" y="580"/>
      <point x="465" y="561" type="curve"/>
      <point x="465" y="645" type="line"/>
      <point x="423" y="661"/>
      <point x="373" y="671"/>
      <point x="326" y="671" type="curve" smooth="yes"/>
      <point x="160" y="671"/>
      <point x="51" y="532"/>
      <point x="51" y="275" type="curve" smooth="yes"/>
      <point x="51" y="80"/>
      <point x="144" y="-12"/>
    </contour>
    <contour>
      <point x="272" y="63" type="curve" smooth="yes"/>
      <point x="188" y="63"/>
      <point x="138" y="132"/>
      <point x="137" y="237" type="curve"/>
      <point x="145" y="305"/>
      <point x="202" y="355"/>
      <point x="278" y="355" type="curve" smooth="yes"/>
      <point x="359" y="355"/>
      <point x="413" y="292"/>
      <point x="413" y="212" type="curve" smooth="yes"/>
      <point x="413" y="124"/>
      <point x="356" y="63"/>
    </contour>
  </outline>
</glyph>
<glyph name="nine" format="2">
  <advance width="537"/>
  <unicode hex="0039"/>
  <outline>
    <contour>
      <point x="222" y="-12" type="curve" smooth="yes"/>
      <point x="387" y="-12"/>
      <point x="497" y="120"/>
      <point x="497" y="383" type="curve" smooth="yes"/>
      <point x="497" y="582"/>
      <point x="404" y="671"/>
      <point x="275" y="671" type="curve" smooth="yes"/>
      <point x="147" y="671"/>
      <point x="51" y="587"/>
      <point x="51" y="443" type="curve" smooth="yes"/>
      <point x="51" y="315"/>
      <point x="135" y="230"/>
      <point x="256" y="230" type="curve" smooth="yes"/>
      <point x="341" y="230"/>
      <point x="417" y="279"/>
      <point x="433" y="382" type="curve"/>
      <point x="412" y="374" type="line"/>
      <point x="412" y="163"/>
      <point x="336" y="66"/>
      <point x="216" y="66" type="curve" smooth="yes"/>
      <point x="170" y="66"/>
      <point x="121" y="80"/>
      <point x="83" y="99" type="curve"/>
      <point x="83" y="14" type="line"/>
      <point x="125" y="-2"/>
      <point x="175" y="-12"/>
    </contour>
    <contour>
      <point x="270" y="303" type="curve" smooth="yes"/>
      <point x="189" y="303"/>
      <point x="135" y="367"/>
      <point x="135" y="447" type="curve" smooth="yes"/>
      <point x="135" y="534"/>
      <point x="191" y="597"/>
      <point x="275" y="597" type="curve" smooth="yes"/>
      <point x="359" y="597"/>
      <point x="409" y="527"/>
      <point x="410" y="422" type="curve"/>
      <point x="403" y="354"/>
      <point x="346" y="303"/>
    </contour>
  </outline>
</glyph>
<glyph name="question" format="2">
  <advance width="459"/>
  <unicode hex="003F"/>
  <outline>
    <contour>
      <point x="172" y="189" type="curve"/>
      <point x="250" y="189" type="line"/>
      <point x="250" y="254"/>
      <point x="275" y="301"/>
      <point x="329" y="351" type="curve" smooth="yes"/>
      <point x="395" y="411"/>
      <point x="419" y="464"/>
      <point x="419" y="537" type="curve" smooth="yes"/>
      <point x="419" y="640"/>
      <point x="343" y="720"/>
      <point x="204" y="720" type="curve" smooth="yes"/>
      <point x="147" y="720"/>
      <point x="87" y="703"/>
      <point x="40" y="675" type="curve"/>
      <point x="40" y="591" type="line"/>
      <point x="80" y="626"/>
      <point x="135" y="646"/>
      <point x="191" y="646" type="curve" smooth="yes"/>
      <point x="279" y="646"/>
      <point x="335" y="598"/>
      <point x="335" y="530" type="curve" smooth="yes"/>
      <point x="335" y="474"/>
      <point x="314" y="434"/>
      <point x="266" y="389" type="curve" smooth="yes"/>
      <point x="197" y="326"/>
      <point x="172" y="266"/>
    </contour>
    <contour>
      <point x="170" y="0" type="line"/>
      <point x="254" y="0" type="line"/>
      <point x="254" y="84" type="line"/>
      <point x="170" y="84" type="line"/>
    </contour>
  </outline>
</glyph>
<glyph name="A" format="2">
  <advance width="663"/>
  <unicode hex="0041"/>
  <outline>
    <contour>
      <point x="20" y="0" type="line"/>
      <point x="106" y="0" type="line"/>
      <point x="181" y="197" type="line"/>
      <point x="161" y="197" type="line"/>
      <point x="478" y="197" type="line"/>
      <point x="457" y="197" type="line"/>
      <point x="532" y="0" type="line"/>
      <point x="623" y="0" type="line"/>
      <point x="361" y="664" type="line"/>
      <point x="282" y="664" type="line"/>
    </contour>
    <contour>
      <point x="209" y="271" type="line"/>
      <point x="292" y="488" type="line"/>
      <point x="325" y="582" type="line"/>
      <point x="312" y="582" type="line"/>
      <point x="345" y="488" type="line"/>
      <point x="429" y="271" type="line"/>
      <point x="451" y="271" type="line"/>
      <point x="182" y="271" type="line"/>
    </contour>
  </outline>
</glyph>
<glyph name="D" format="2">
	<advance width="676"/>
	<unicode hex="0044"/>
	<outline>
		<contour>
			<point x="72" y="0" type="line"/>
			<point x="268" y="0" type="line" smooth="yes"/>
			<point x="493" y="0"/>
			<point x="636" y="132"/>
			<point x="636" y="337" type="curve" smooth="yes"/>
			<point x="636" y="532"/>
			<point x="495" y="658"/>
			<point x="276" y="658" type="curve" smooth="yes"/>
			<point x="72" y="658" type="line"/>
		</contour>
		<contour>
			<point x="156" y="79" type="line"/>
			<point x="156" y="579" type="line"/>
			<point x="280" y="579" type="line" smooth="yes"/>
			<point x="446" y="579"/>
			<point x="551" y="484"/>
			<point x="551" y="337" type="curve" smooth="yes"/>
			<point x="551" y="179"/>
			<point x="443" y="79"/>
			<point x="272" y="79" type="curve" smooth="yes"/>
		</contour>
	</outline>
</glyph>
<glyph name="N" format="2">
	<advance width="676"/>
	<unicode hex="004E"/>
	<outline>
		<contour>
			<point x="72" y="0" type="line"/>
			<point x="152" y="0" type="line"/>
			<point x="152" y="483" type="line"/>
			<point x="150" y="603" type="line"/>
			<point x="105" y="603" type="line"/>
			<point x="190" y="482" type="line"/>
			<point x="547" y="0" type="line"/>
			<point x="636" y="0" type="line"/>
			<point x="636" y="658" type="line"/>
			<point x="556" y="658" type="line"/>
			<point x="556" y="178" type="line"/>
			<point x="558" y="55" type="line"/>
			<point x="603" y="55" type="line"/>
			<point x="517" y="179" type="line"/>
			<point x="162" y="658" type="line"/>
			<point x="72" y="658" type="line"/>
		</contour>
	</outline>
</glyph>
<glyph name="O" format="2">
	<advance width="767"/>
	<unicode hex="004F"/>
	<outline>
		<contour>
			<point x="388" y="-15" type="curve" smooth="yes"/>
			<point x="590" y="-15"/>
			<point x="727" y="122"/>
			<point x="727" y="329" type="curve" smooth="yes"/>
			<point x="727" y="537"/>
			<point x="586" y="673"/>
			<point x="388" y="673" type="curve" smooth="yes"/>
			<point x="189" y="673"/>
			<point x="48" y="534"/>
			<point x="48" y="329" type="curve" smooth="yes"/>
			<point x="48" y="125"/>
			<point x="185" y="-15"/>
		</contour>
		<contour>
			<point x="388" y="63" type="curve" smooth="yes"/>
			<point x="238" y="63"/>
			<point x="134" y="169"/>
			<point x="134" y="329" type="curve" smooth="yes"/>
			<point x="134" y="489"/>
			<point x="238" y="595"/>
			<point x="388" y="595" type="curve" smooth="yes"/>
			<point x="538" y="595"/>
			<point x="641" y="489"/>
			<point x="641" y="329" type="curve" smooth="yes"/>
			<point x="641" y="169"/>
			<point x="538" y="63"/>
		</contour>
	</outline>
</glyph>
<glyph name="S" format="2">
	<advance width="489"/>
	<unicode hex="0053"/>
	<outline>
		<contour>
			<point x="243" y="-15" type="curve" smooth="yes"/>
			<point x="369" y="-15"/>
			<point x="449" y="63"/>
			<point x="449" y="178" type="curve" smooth="yes"/>
			<point x="449" y="273"/>
			<point x="396" y="331"/>
			<point x="278" y="374" type="curve" smooth="yes"/>
			<point x="260" y="380" type="line" smooth="yes"/>
			<point x="181" y="410"/>
			<point x="145" y="440"/>
			<point x="145" y="496" type="curve" smooth="yes"/>
			<point x="145" y="558"/>
			<point x="189" y="595"/>
			<point x="264" y="595" type="curve" smooth="yes"/>
			<point x="326" y="595"/>
			<point x="379" y="574"/>
			<point x="429" y="535" type="curve"/>
			<point x="429" y="627" type="line"/>
			<point x="374" y="658"/>
			<point x="319" y="673"/>
			<point x="258" y="673" type="curve" smooth="yes"/>
			<point x="137" y="673"/>
			<point x="60" y="600"/>
			<point x="60" y="494" type="curve" smooth="yes"/>
			<point x="60" y="399"/>
			<point x="112" y="344"/>
			<point x="223" y="303" type="curve" smooth="yes"/>
			<point x="241" y="296" type="line" smooth="yes"/>
			<point x="327" y="264"/>
			<point x="364" y="230"/>
			<point x="364" y="169" type="curve" smooth="yes"/>
			<point x="364" y="104"/>
			<point x="315" y="63"/>
			<point x="240" y="63" type="curve" smooth="yes"/>
			<point x="173" y="63"/>
			<point x="111" y="84"/>
			<point x="57" y="125" type="curve"/>
			<point x="57" y="35" type="line"/>
			<point x="113" y="1"/>
			<point x="175" y="-15"/>
		</contour>
	</outline>
</glyph>
<glyph name="U" format="2">
  <advance width="639"/>
  <unicode hex="0055"/>
  <outline>
    <contour>
      <point x="333" y="-12" type="curve" smooth="yes"/>
      <point x="495" y="-12"/>
      <point x="599" y="95"/>
      <point x="599" y="260" type="curve" smooth="yes"/>
      <point x="599" y="658" type="line"/>
      <point x="517" y="658" type="line"/>
      <point x="517" y="260" type="line" smooth="yes"/>
      <point x="517" y="144"/>
      <point x="447" y="68"/>
      <point x="334" y="68" type="curve" smooth="yes"/>
      <point x="223" y="68"/>
      <point x="150" y="144"/>
      <point x="150" y="260" type="curve" smooth="yes"/>
      <point x="150" y="658" type="line"/>
      <point x="66" y="658" type="line"/>
      <point x="66" y="260" type="line" smooth="yes"/>
      <point x="66" y="95"/>
      <point x="170" y="-12"/>
    </contour>
  </outline>
</glyph>
<glyph name="Y" format="2">
	<advance width="617"/>
	<unicode hex="0059"/>
	<outline>
		<contour>
			<point x="253" y="0" type="line"/>
			<point x="337" y="0" type="line"/>
			<point x="337" y="301" type="line"/>
			<point x="322" y="256" type="line"/>
			<point x="577" y="658" type="line"/>
			<point x="485" y="658" type="line"/>
			<point x="331" y="414" type="line"/>
			<point x="272" y="314" type="line"/>
			<point x="324" y="314" type="line"/>
			<point x="266" y="414" type="line"/>
			<point x="111" y="658" type="line"/>
			<point x="13" y="658" type="line"/>
			<point x="269" y="256" type="line"/>
			<point x="253" y="302" type="line"/>
		</contour>
	</outline>
</glyph>
<glyph name="Z" format="2">
	<advance width="577"/>
	<unicode hex="005A"/>
	<outline>
		<contour>
			<point x="50" y="0" type="line"/>
			<point x="537" y="0" type="line"/>
			<point x="537" y="79" type="line"/>
			<point x="132" y="79" type="line"/>
			<point x="132" y="18" type="line"/>
			<point x="204" y="124" type="line"/>
			<point x="537" y="613" type="line"/>
			<point x="537" y="658" type="line"/>
			<point x="57" y="658" type="line"/>
			<point x="57" y="579" type="line"/>
			<point x="456" y="579" type="line"/>
			<point x="456" y="641" type="line"/>
			<point x="382" y="534" type="line"/>
			<point x="50" y="47" type="line"/>
		</contour>
	</outline>
</glyph>
<glyph name="c" format="2">
	<advance width="462"/>
	<unicode hex="0063"/>
	<outline>
		<contour>
			<point x="280" y="-10" type="curve" smooth="yes"/>
			<point x="330" y="-10"/>
			<point x="380" y="5"/>
			<point x="422" y="32" type="curve"/>
			<point x="422" y="116" type="line"/>
			<point x="383" y="85"/>
			<point x="335" y="66"/>
			<point x="285" y="66" type="curve" smooth="yes"/>
			<point x="187" y="66"/>
			<point x="124" y="128"/>
			<point x="124" y="233" type="curve" smooth="yes"/>
			<point x="124" y="340"/>
			<point x="184" y="400"/>
			<point x="281" y="400" type="curve" smooth="yes"/>
			<point x="332" y="400"/>
			<point x="376" y="385"/>
			<point x="422" y="355" type="curve"/>
			<point x="422" y="439" type="line"/>
			<point x="376" y="464"/>
			<point x="327" y="476"/>
			<point x="278" y="476" type="curve" smooth="yes"/>
			<point x="133" y="476"/>
			<point x="41" y="384"/>
			<point x="41" y="232" type="curve" smooth="yes"/>
			<point x="41" y="83"/>
			<point x="134" y="-10"/>
		</contour>
	</outline>
</glyph>
<glyph name="i" format="2">
	<advance width="188"/>
	<unicode hex="0069"/>
	<outline>
		<contour>
			<point x="65" y="0" type="line"/>
			<point x="146" y="0" type="line"/>
			<point x="146" y="466" type="line"/>
			<point x="65" y="466" type="line"/>
		</contour>
		<contour>
			<point x="63" y="611" type="line"/>
			<point x="148" y="611" type="line"/>
			<point x="148" y="694" type="line"/>
			<point x="63" y="694" type="line"/>
		</contour>
	</outline>
</glyph>
<glyph name="j" format="2">
	<advance width="187"/>
	<unicode hex="006A"/>
	<outline>
		<contour>
			<point x="-24" y="-220" type="line" smooth="yes"/>
			<point x="79" y="-220"/>
			<point x="146" y="-152"/>
			<point x="146" y="-45" type="curve" smooth="yes"/>
			<point x="146" y="466" type="line"/>
			<point x="64" y="466" type="line"/>
			<point x="64" y="-45" type="line" smooth="yes"/>
			<point x="64" y="-106"/>
			<point x="30" y="-145"/>
			<point x="-24" y="-145" type="curve" smooth="yes"/>
			<point x="-32" y="-145" type="line"/>
			<point x="-32" y="-220" type="line"/>
		</contour>
		<contour>
			<point x="62" y="611" type="line"/>
			<point x="147" y="611" type="line"/>
			<point x="147" y="694" type="line"/>
			<point x="62" y="694" type="line"/>
		</contour>
	</outline>
</glyph>
<glyph name="k" format="2">
  <advance width="493"/>
  <unicode hex="006B"/>
  <outline>
    <contour>
      <point x="63" y="0" type="line"/>
      <point x="144" y="0" type="line"/>
      <point x="144" y="238" type="line"/>
      <point x="132" y="238" type="line"/>
      <point x="350" y="0" type="line"/>
      <point x="453" y="0" type="line"/>
      <point x="212" y="261" type="line"/>
      <point x="211" y="229" type="line"/>
      <point x="432" y="466" type="line"/>
      <point x="335" y="466" type="line"/>
      <point x="132" y="244" type="line"/>
      <point x="144" y="244" type="line"/>
      <point x="144" y="720" type="line"/>
      <point x="63" y="720" type="line"/>
    </contour>
  </outline>
</glyph>
<glyph name="n" format="2">
	<advance width="484"/>
	<unicode hex="006E"/>
	<outline>
		<contour>
			<point x="64" y="0" type="line"/>
			<point x="146" y="0" type="line"/>
			<point x="146" y="333" type="line"/>
			<point x="173" y="375"/>
			<point x="214" y="402"/>
			<point x="262" y="402" type="curve" smooth="yes"/>
			<point x="325" y="402"/>
			<point x="362" y="364"/>
			<point x="362" y="290" type="curve" smooth="yes"/>
			<point x="362" y="0" type="line"/>
			<point x="444" y="0" type="line"/>
			<point x="444" y="304" type="line" smooth="yes"/>
			<point x="444" y="411"/>
			<point x="387" y="476"/>
			<point x="285" y="476" type="curve" smooth="yes"/>
			<point x="229" y="476"/>
			<point x="180" y="449"/>
			<point x="146" y="403" type="curve"/>
			<point x="146" y="466" type="line"/>
			<point x="64" y="466" type="line"/>
		</contour>
	</outline>
</glyph>
<glyph name="r" format="2">
  <advance width="344"/>
  <unicode hex="0072"/>
  <outline>
    <contour>
      <point x="63" y="0" type="line"/>
      <point x="144" y="0" type="line"/>
      <point x="144" y="332" type="line"/>
      <point x="162" y="366"/>
      <point x="196" y="390"/>
      <point x="239" y="390" type="curve" smooth="yes"/>
      <point x="262" y="390"/>
      <point x="283" y="386"/>
      <point x="304" y="377" type="curve"/>
      <point x="304" y="468" type="line"/>
      <point x="287" y="474"/>
      <point x="270" y="476"/>
      <point x="252" y="476" type="curve" smooth="yes"/>
      <point x="208" y="476"/>
      <point x="164" y="448"/>
      <point x="144" y="398" type="curve"/>
      <point x="144" y="466" type="line"/>
      <point x="63" y="466" type="line"/>
    </contour>
  </outline>
</glyph>
<glyph name="s" format="2">
	<advance width="388"/>
	<unicode hex="0073"/>
	<outline>
		<contour>
			<point x="183" y="-10" type="curve" smooth="yes"/>
			<point x="289" y="-10"/>
			<point x="348" y="45"/>
			<point x="348" y="131" type="curve" smooth="yes"/>
			<point x="348" y="201"/>
			<point x="308" y="242"/>
			<point x="212" y="274" type="curve" smooth="yes"/>
			<point x="197" y="279" type="line" smooth="yes"/>
			<point x="142" y="297"/>
			<point x="121" y="318"/>
			<point x="121" y="349" type="curve" smooth="yes"/>
			<point x="121" y="387"/>
			<point x="150" y="409"/>
			<point x="200" y="409" type="curve" smooth="yes"/>
			<point x="245" y="409"/>
			<point x="292" y="396"/>
			<point x="331" y="372" type="curve"/>
			<point x="331" y="448" type="line"/>
			<point x="289" y="466"/>
			<point x="240" y="476"/>
			<point x="194" y="476" type="curve" smooth="yes"/>
			<point x="94" y="476"/>
			<point x="40" y="427"/>
			<point x="40" y="344" type="curve" smooth="yes"/>
			<point x="40" y="275"/>
			<point x="79" y="235"/>
			<point x="168" y="205" type="curve" smooth="yes"/>
			<point x="183" y="200" type="line" smooth="yes"/>
			<point x="242" y="181"/>
			<point x="267" y="158"/>
			<point x="267" y="123" type="curve" smooth="yes"/>
			<point x="267" y="82"/>
			<point x="235" y="58"/>
			<point x="181" y="58" type="curve" smooth="yes"/>
			<point x="131" y="58"/>
			<point x="82" y="73"/>
			<point x="41" y="100" type="curve"/>
			<point x="41" y="25" type="line"/>
			<point x="83" y="3"/>
			<point x="134" y="-10"/>
		</contour>
	</outline>
</glyph>
<glyph name="t" format="2">
  <advance width="315"/>
  <unicode hex="0074"/>
  <outline>
    <contour>
      <point x="190" y="-9" type="curve" smooth="yes"/>
      <point x="219" y="-9"/>
      <point x="250" y="-4"/>
      <point x="275" y="10" type="curve"/>
      <point x="275" y="84" type="line"/>
      <point x="257" y="71"/>
      <point x="238" y="66"/>
      <point x="217" y="66" type="curve" smooth="yes"/>
      <point x="187" y="66"/>
      <point x="167" y="85"/>
      <point x="167" y="119" type="curve" smooth="yes"/>
      <point x="167" y="392" type="line"/>
      <point x="275" y="392" type="line"/>
      <point x="275" y="466" type="line"/>
      <point x="167" y="466" type="line"/>
      <point x="167" y="609" type="line"/>
      <point x="85" y="609" type="line"/>
      <point x="85" y="466" type="line"/>
      <point x="17" y="466" type="line"/>
      <point x="17" y="392" type="line"/>
      <point x="85" y="392" type="line"/>
      <point x="85" y="98" type="line" smooth="yes"/>
      <point x="85" y="30"/>
      <point x="125" y="-9"/>
    </contour>
  </outline>
</glyph>
<glyph name="w" format="2">
	<advance width="767"/>
	<unicode hex="0077"/>
	<outline>
		<contour>
			<point x="166" y="0" type="line"/>
			<point x="260" y="0" type="line"/>
			<point x="355" y="296" type="line"/>
			<point x="393" y="445" type="line"/>
			<point x="353" y="445" type="line"/>
			<point x="390" y="296" type="line"/>
			<point x="483" y="0" type="line"/>
			<point x="577" y="0" type="line"/>
			<point x="727" y="466" type="line"/>
			<point x="649" y="466" type="line"/>
			<point x="549" y="151" type="line"/>
			<point x="516" y="21" type="line"/>
			<point x="549" y="21" type="line"/>
			<point x="517" y="151" type="line"/>
			<point x="418" y="466" type="line"/>
			<point x="333" y="466" type="line"/>
			<point x="234" y="151" type="line"/>
			<point x="202" y="21" type="line"/>
			<point x="234" y="21" type="line"/>
			<point x="202" y="151" type="line"/>
			<point x="101" y="466" type="line"/>
			<point x="16" y="466" type="line"/>
		</contour>
	</outline>
</glyph>
<glyph name="braceleft" format="2">
  <advance width="457"/>
  <unicode hex="007B"/>
  <outline>
    <contour>
      <point x="394" y="-220" type="curve" smooth="yes"/>
      <point x="417" y="-220" type="line"/>
      <point x="417" y="-148" type="line"/>
      <point x="393" y="-148" type="line" smooth="yes"/>
      <point x="301" y="-148"/>
      <point x="256" y="-104"/>
      <point x="263" y="-14" type="curve" smooth="yes"/>
      <point x="270" y="89" type="line" smooth="yes"/>
      <point x="277" y="173"/>
      <point x="229" y="226"/>
      <point x="151" y="251" type="curve"/>
      <point x="151" y="252" type="line"/>
      <point x="229" y="272"/>
      <point x="277" y="324"/>
      <point x="270" y="412" type="curve" smooth="yes"/>
      <point x="263" y="515" type="line" smooth="yes"/>
      <point x="256" y="605"/>
      <point x="301" y="648"/>
      <point x="393" y="648" type="curve" smooth="yes"/>
      <point x="417" y="648" type="line"/>
      <point x="417" y="721" type="line"/>
      <point x="394" y="721" type="line" smooth="yes"/>
      <point x="247" y="721"/>
      <point x="169" y="657"/>
      <point x="178" y="526" type="curve" smooth="yes"/>
      <point x="186" y="412" type="line" smooth="yes"/>
      <point x="191" y="341"/>
      <point x="145" y="301"/>
      <point x="58" y="288" type="curve"/>
      <point x="58" y="213" type="line"/>
      <point x="145" y="199"/>
      <point x="191" y="160"/>
      <point x="186" y="89" type="curve" smooth="yes"/>
      <point x="178" y="-25" type="line" smooth="yes"/>
      <point x="169" y="-157"/>
      <point x="247" y="-220"/>
    </contour>
  </outline>
</glyph>
<glyph name="sterling" format="2">
  <advance width="518"/>
  <unicode hex="00A3"/>
  <outline>
    <contour>
      <point x="60" y="0" type="line"/>
      <point x="470" y="0" type="line"/>
      <point x="470" y="80" type="line"/>
      <point x="84" y="80" type="line"/>
      <point x="128" y="56" type="line"/>
      <point x="217" y="110"/>
      <point x="249" y="201"/>
      <point x="225" y="309" type="curve" smooth="yes"/>
      <point x="202" y="412" type="line" smooth="yes"/>
      <point x="176" y="530"/>
      <point x="223" y="599"/>
      <point x="319" y="599" type="curve" smooth="yes"/>
      <point x="376" y="599"/>
      <point x="429" y="585"/>
      <point x="478" y="554" type="curve"/>
      <point x="478" y="636" type="line"/>
      <point x="425" y="660"/>
      <point x="369" y="673"/>
      <point x="311" y="673" type="curve" smooth="yes"/>
      <point x="149" y="673"/>
      <point x="83" y="569"/>
      <point x="119" y="409" type="curve" smooth="yes"/>
      <point x="142" y="306" type="line" smooth="yes"/>
      <point x="166" y="197"/>
      <point x="131" y="123"/>
      <point x="60" y="80" type="curve"/>
    </contour>
    <contour>
      <point x="51" y="298" type="line"/>
      <point x="369" y="298" type="line"/>
      <point x="369" y="373" type="line"/>
      <point x="51" y="373" type="line"/>
    </contour>
  </outline>
</glyph>
<glyph name="currency" format="2">
  <advance width="642"/>
  <unicode hex="00A4"/>
  <outline>
    <contour>
      <point x="104" y="36" type="line"/>
      <point x="222" y="147" type="line"/>
      <point x="251" y="127"/>
      <point x="286" y="115"/>
      <point x="323" y="115" type="curve" smooth="yes"/>
      <point x="356" y="115"/>
      <point x="387" y="124"/>
      <point x="414" y="139" type="curve"/>
      <point x="514" y="32" type="line"/>
      <point x="573" y="89" type="line"/>
      <point x="474" y="195" type="line"/>
      <point x="497" y="224"/>
      <point x="510" y="261"/>
      <point x="510" y="303" type="curve" smooth="yes"/>
      <point x="510" y="338"/>
      <point x="500" y="370"/>
      <point x="484" y="398" type="curve"/>
      <point x="602" y="509" type="line"/>
      <point x="546" y="567" type="line"/>
      <point x="428" y="457" type="line"/>
      <point x="399" y="478"/>
      <point x="363" y="491"/>
      <point x="323" y="491" type="curve" smooth="yes"/>
      <point x="289" y="491"/>
      <point x="256" y="481"/>
      <point x="228" y="464" type="curve"/>
      <point x="129" y="571" type="line"/>
      <point x="70" y="513" type="line"/>
      <point x="171" y="406" type="line"/>
      <point x="150" y="378"/>
      <point x="137" y="342"/>
      <point x="137" y="303" type="curve" smooth="yes"/>
      <point x="137" y="267"/>
      <point x="147" y="232"/>
      <point x="164" y="204" type="curve"/>
      <point x="47" y="95" type="line"/>
    </contour>
    <contour>
      <point x="323" y="189" type="curve" smooth="yes"/>
      <point x="259" y="189"/>
      <point x="212" y="240"/>
      <point x="212" y="303" type="curve" smooth="yes"/>
      <point x="212" y="366"/>
      <point x="259" y="416"/>
      <point x="323" y="416" type="curve" smooth="yes"/>
      <point x="387" y="416"/>
      <point x="435" y="366"/>
      <point x="435" y="303" type="curve" smooth="yes"/>
      <point x="435" y="240"/>
      <point x="387" y="189"/>
    </contour>
  </outline>
</glyph>
<glyph name="section" format="2">
	<advance width="415"/>
	<unicode hex="00A7"/>
	<outline>
		<contour>
			<point x="198" y="-11" type="curve" smooth="yes"/>
			<point x="299" y="-11"/>
			<point x="355" y="50"/>
			<point x="355" y="126" type="curve" smooth="yes"/>
			<point x="355" y="200"/>
			<point x="311" y="249"/>
			<point x="227" y="273" type="curve" smooth="yes"/>
			<point x="214" y="278" type="line" smooth="yes"/>
			<point x="161" y="294"/>
			<point x="138" y="319"/>
			<point x="138" y="355" type="curve" smooth="yes"/>
			<point x="138" y="387"/>
			<point x="161" y="416"/>
			<point x="196" y="422" type="curve"/>
			<point x="169" y="465" type="line"/>
			<point x="110" y="448"/>
			<point x="59" y="403"/>
			<point x="59" y="339" type="curve" smooth="yes"/>
			<point x="59" y="276"/>
			<point x="95" y="229"/>
			<point x="177" y="207" type="curve" smooth="yes"/>
			<point x="192" y="203" type="line" smooth="yes"/>
			<point x="251" y="186"/>
			<point x="275" y="162"/>
			<point x="275" y="123" type="curve" smooth="yes"/>
			<point x="275" y="80"/>
			<point x="241" y="57"/>
			<point x="192" y="57" type="curve" smooth="yes"/>
			<point x="144" y="57"/>
			<point x="96" y="73"/>
			<point x="56" y="101" type="curve"/>
			<point x="56" y="24" type="line"/>
			<point x="98" y="2"/>
			<point x="149" y="-11"/>
		</contour>
		<contour>
			<point x="375" y="331" type="curve" smooth="yes"/>
			<point x="375" y="390"/>
			<point x="336" y="441"/>
			<point x="245" y="466" type="curve" smooth="yes"/>
			<point x="231" y="470" type="line" smooth="yes"/>
			<point x="179" y="485"/>
			<point x="158" y="506"/>
			<point x="158" y="538" type="curve" smooth="yes"/>
			<point x="158" y="578"/>
			<point x="189" y="601"/>
			<point x="235" y="601" type="curve" smooth="yes"/>
			<point x="278" y="601"/>
			<point x="324" y="588"/>
			<point x="362" y="564" type="curve"/>
			<point x="362" y="639" type="line"/>
			<point x="320" y="659"/>
			<point x="271" y="669"/>
			<point x="226" y="669" type="curve" smooth="yes"/>
			<point x="130" y="669"/>
			<point x="78" y="612"/>
			<point x="78" y="537" type="curve" smooth="yes"/>
			<point x="78" y="474"/>
			<point x="120" y="424"/>
			<point x="195" y="403" type="curve" smooth="yes"/>
			<point x="209" y="399" type="line" smooth="yes"/>
			<point x="269" y="381"/>
			<point x="298" y="354"/>
			<point x="298" y="316" type="curve" smooth="yes"/>
			<point x="298" y="277"/>
			<point x="280" y="258"/>
			<point x="239" y="248" type="curve"/>
			<point x="268" y="205" type="line"/>
			<point x="329" y="226"/>
			<point x="375" y="251"/>
		</contour>
	</outline>
</glyph>
<glyph name="ordfeminine" format="2">
  <advance width="382"/>
  <unicode hex="00AA"/>
  <outline>
    <contour>
      <point x="63" y="233" type="line"/>
      <point x="338" y="233" type="line"/>
      <point x="338" y="299" type="line"/>
      <point x="63" y="299" type="line"/>
    </contour>
    <component base="a.sinf" xOffset="25" yOffset="536"/>
  </outline>
</glyph>
<glyph name="logicalnot" format="2">
	<advance width="433"/>
	<unicode hex="00AC"/>
	<outline>
		<contour>
			<point x="326" y="156" type="line"/>
			<point x="393" y="156" type="line"/>
			<point x="393" y="329" type="line"/>
			<point x="45" y="329" type="line"/>
			<point x="45" y="257" type="line"/>
			<point x="326" y="257" type="line"/>
		</contour>
	</outline>
</glyph>
<glyph name="degree" format="2">
	<advance width="340"/>
	<unicode hex="00B0"/>
	<outline>
		<contour>
			<point x="174" y="473" type="curve" smooth="yes"/>
			<point x="251" y="473"/>
			<point x="300" y="531"/>
			<point x="300" y="601" type="curve" smooth="yes"/>
			<point x="300" y="671"/>
			<point x="251" y="729"/>
			<point x="174" y="729" type="curve" smooth="yes"/>
			<point x="97" y="729"/>
			<point x="48" y="671"/>
			<point x="48" y="601" type="curve" smooth="yes"/>
			<point x="48" y="531"/>
			<point x="97" y="473"/>
		</contour>
		<contour>
			<point x="174" y="529" type="curve" smooth="yes"/>
			<point x="137" y="529"/>
			<point x="105" y="558"/>
			<point x="105" y="601" type="curve" smooth="yes"/>
			<point x="105" y="644"/>
			<point x="137" y="673"/>
			<point x="174" y="673" type="curve" smooth="yes"/>
			<point x="211" y="673"/>
			<point x="243" y="644"/>
			<point x="243" y="601" type="curve" smooth="yes"/>
			<point x="243" y="558"/>
			<point x="211" y="529"/>
		</contour>
	</outline>
</glyph>
<glyph name="paragraph" format="2">
  <advance width="414"/>
  <unicode hex="00B6"/>
  <outline>
    <contour>
      <point x="132" y="0" type="line"/>
      <point x="209" y="0" type="line"/>
      <point x="209" y="586" type="line"/>
      <point x="298" y="586" type="line"/>
      <point x="298" y="0" type="line"/>
      <point x="374" y="0" type="line"/>
      <point x="374" y="658" type="line"/>
      <point x="141" y="658" type="line" smooth="yes"/>
      <point x="71" y="658"/>
      <point x="26" y="618"/>
      <point x="26" y="556" type="curve" smooth="yes"/>
      <point x="26" y="494"/>
      <point x="67" y="455"/>
      <point x="132" y="455" type="curve"/>
    </contour>
  </outline>
</glyph>
<glyph name="ordmasculine" format="2">
	<advance width="467"/>
	<unicode hex="00BA"/>
	<outline>
		<contour>
			<point x="68" y="233" type="line"/>
			<point x="420" y="233" type="line"/>
			<point x="420" y="299" type="line"/>
			<point x="68" y="299" type="line"/>
		</contour>
		<component base="o.sinf" xOffset="29" yOffset="537"/>
	</outline>
</glyph>
<glyph name="questiondown" format="2">
  <advance width="459"/>
  <unicode hex="00BF"/>
  <outline>
    <contour>
      <point x="205" y="382" type="line"/>
      <point x="289" y="382" type="line"/>
      <point x="289" y="466" type="line"/>
      <point x="205" y="466" type="line"/>
    </contour>
    <contour>
      <point x="255" y="-240" type="curve" smooth="yes"/>
      <point x="312" y="-240"/>
      <point x="372" y="-223"/>
      <point x="419" y="-196" type="curve"/>
      <point x="419" y="-112" type="line"/>
      <point x="379" y="-146"/>
      <point x="324" y="-166"/>
      <point x="268" y="-166" type="curve" smooth="yes"/>
      <point x="180" y="-166"/>
      <point x="124" y="-121"/>
      <point x="124" y="-48" type="curve" smooth="yes"/>
      <point x="124" y="0"/>
      <point x="145" y="39"/>
      <point x="194" y="82" type="curve" smooth="yes"/>
      <point x="262" y="144"/>
      <point x="287" y="201"/>
      <point x="287" y="277" type="curve"/>
      <point x="209" y="277" type="line"/>
      <point x="209" y="214"/>
      <point x="184" y="169"/>
      <point x="130" y="120" type="curve" smooth="yes"/>
      <point x="65" y="61"/>
      <point x="40" y="10"/>
      <point x="40" y="-54" type="curve" smooth="yes"/>
      <point x="40" y="-162"/>
      <point x="117" y="-240"/>
    </contour>
  </outline>
</glyph>
<glyph name="AE" format="2">
  <advance width="821"/>
  <unicode hex="00C6"/>
  <outline>
    <contour>
      <point x="9" y="0" type="line"/>
      <point x="97" y="0" type="line"/>
      <point x="209" y="202" type="line"/>
      <point x="186" y="202" type="line"/>
      <point x="409" y="202" type="line"/>
      <point x="409" y="0" type="line"/>
      <point x="781" y="0" type="line"/>
      <point x="781" y="79" type="line"/>
      <point x="493" y="79" type="line"/>
      <point x="493" y="294" type="line"/>
      <point x="759" y="294" type="line"/>
      <point x="759" y="373" type="line"/>
      <point x="493" y="373" type="line"/>
      <point x="493" y="579" type="line"/>
      <point x="771" y="579" type="line"/>
      <point x="771" y="658" type="line"/>
      <point x="367" y="658" type="line"/>
    </contour>
    <contour>
      <point x="249" y="281" type="line"/>
      <point x="376" y="507" type="line"/>
      <point x="422" y="599" type="line"/>
      <point x="409" y="599" type="line"/>
      <point x="409" y="281" type="line"/>
      <point x="224" y="281" type="line"/>
    </contour>
  </outline>
</glyph>
<glyph name="multiply" format="2">
  <advance width="489"/>
  <unicode hex="00D7"/>
  <outline>
    <contour>
      <point x="115" y="93" type="line"/>
      <point x="254" y="232" type="line"/>
      <point x="396" y="91" type="line"/>
      <point x="449" y="144" type="line"/>
      <point x="308" y="286" type="line"/>
      <point x="447" y="425" type="line"/>
      <point x="394" y="478" type="line"/>
      <point x="254" y="339" type="line"/>
      <point x="113" y="480" type="line"/>
      <point x="60" y="427" type="line"/>
      <point x="201" y="285" type="line"/>
      <point x="62" y="147" type="line"/>
    </contour>
  </outline>
</glyph>
<glyph name="Thorn" format="2">
	<advance width="489"/>
	<unicode hex="00DE"/>
	<outline>
		<contour>
			<point x="72" y="0" type="line"/>
			<point x="156" y="0" type="line"/>
			<point x="156" y="125" type="line"/>
			<point x="216" y="125" type="line" smooth="yes"/>
			<point x="358" y="125"/>
			<point x="449" y="205"/>
			<point x="449" y="334" type="curve" smooth="yes"/>
			<point x="449" y="463"/>
			<point x="358" y="543"/>
			<point x="216" y="543" type="curve" smooth="yes"/>
			<point x="156" y="543" type="line"/>
			<point x="156" y="658" type="line"/>
			<point x="72" y="658" type="line"/>
		</contour>
		<contour>
			<point x="156" y="202" type="line"/>
			<point x="156" y="466" type="line"/>
			<point x="216" y="466" type="line" smooth="yes"/>
			<point x="304" y="466"/>
			<point x="364" y="415"/>
			<point x="364" y="334" type="curve" smooth="yes"/>
			<point x="364" y="253"/>
			<point x="305" y="202"/>
			<point x="217" y="202" type="curve" smooth="yes"/>
		</contour>
	</outline>
</glyph>
<glyph name="ae" format="2">
  <advance width="764"/>
  <unicode hex="00E6"/>
  <outline>
    <contour>
      <point x="188" y="-10" type="curve" smooth="yes"/>
      <point x="270" y="-10"/>
      <point x="330" y="32"/>
      <point x="359" y="116" type="curve"/>
      <point x="338" y="116" type="line"/>
      <point x="371" y="38"/>
      <point x="436" y="-10"/>
      <point x="539" y="-10" type="curve" smooth="yes"/>
      <point x="594" y="-10"/>
      <point x="656" y="7"/>
      <point x="712" y="38" type="curve"/>
      <point x="712" y="114" type="line"/>
      <point x="661" y="80"/>
      <point x="602" y="61"/>
      <point x="549" y="61" type="curve" smooth="yes"/>
      <point x="449" y="61"/>
      <point x="396" y="120"/>
      <point x="396" y="214" type="curve" smooth="yes"/>
      <point x="396" y="262" type="line" smooth="yes"/>
      <point x="396" y="350"/>
      <point x="443" y="407"/>
      <point x="519" y="407" type="curve" smooth="yes"/>
      <point x="595" y="407"/>
      <point x="642" y="358"/>
      <point x="642" y="276" type="curve"/>
      <point x="384" y="276" type="line"/>
      <point x="384" y="212" type="line"/>
      <point x="724" y="212" type="line"/>
      <point x="724" y="242" type="line" smooth="yes"/>
      <point x="724" y="394"/>
      <point x="646" y="476"/>
      <point x="520" y="476" type="curve" smooth="yes"/>
      <point x="439" y="476"/>
      <point x="378" y="435"/>
      <point x="343" y="362" type="curve"/>
      <point x="379" y="364" type="line"/>
      <point x="370" y="431"/>
      <point x="310" y="476"/>
      <point x="220" y="476" type="curve" smooth="yes"/>
      <point x="165" y="476"/>
      <point x="106" y="463"/>
      <point x="56" y="440" type="curve"/>
      <point x="56" y="365" type="line"/>
      <point x="100" y="394"/>
      <point x="152" y="407"/>
      <point x="205" y="407" type="curve" smooth="yes"/>
      <point x="270" y="407"/>
      <point x="313" y="381"/>
      <point x="313" y="322" type="curve" smooth="yes"/>
      <point x="313" y="296" type="line"/>
      <point x="214" y="282" type="line" smooth="yes"/>
      <point x="100" y="264"/>
      <point x="38" y="209"/>
      <point x="38" y="123" type="curve" smooth="yes"/>
      <point x="38" y="42"/>
      <point x="95" y="-10"/>
    </contour>
    <contour>
      <point x="205" y="57" type="curve" smooth="yes"/>
      <point x="153" y="57"/>
      <point x="121" y="86"/>
      <point x="121" y="133" type="curve" smooth="yes"/>
      <point x="121" y="181"/>
      <point x="158" y="212"/>
      <point x="225" y="221" type="curve" smooth="yes"/>
      <point x="313" y="234" type="line"/>
      <point x="313" y="149" type="line"/>
      <point x="303" y="99"/>
      <point x="263" y="57"/>
    </contour>
  </outline>
</glyph>
<glyph name="eth" format="2">
	<advance width="557"/>
	<unicode hex="00F0"/>
	<outline>
		<contour>
			<point x="278" y="-11" type="curve" smooth="yes"/>
			<point x="417" y="-11"/>
			<point x="517" y="93"/>
			<point x="517" y="276" type="curve" smooth="yes"/>
			<point x="517" y="469"/>
			<point x="417" y="653"/>
			<point x="271" y="747" type="curve"/>
			<point x="188" y="715" type="line"/>
			<point x="373" y="603"/>
			<point x="452" y="430"/>
			<point x="450" y="268" type="curve"/>
			<point x="468" y="273" type="line"/>
			<point x="459" y="405"/>
			<point x="388" y="477"/>
			<point x="272" y="477" type="curve" smooth="yes"/>
			<point x="140" y="477"/>
			<point x="41" y="382"/>
			<point x="41" y="235" type="curve" smooth="yes"/>
			<point x="41" y="82"/>
			<point x="140" y="-11"/>
		</contour>
		<contour>
			<point x="278" y="65" type="curve" smooth="yes"/>
			<point x="184" y="65"/>
			<point x="124" y="137"/>
			<point x="124" y="235" type="curve" smooth="yes"/>
			<point x="124" y="331"/>
			<point x="184" y="402"/>
			<point x="277" y="402" type="curve" smooth="yes"/>
			<point x="362" y="402"/>
			<point x="422" y="342"/>
			<point x="432" y="241" type="curve" smooth="yes"/>
			<point x="432" y="139"/>
			<point x="373" y="65"/>
		</contour>
		<contour>
			<point x="234" y="560" type="line"/>
			<point x="473" y="637" type="line"/>
			<point x="457" y="703" type="line"/>
			<point x="217" y="627" type="line"/>
		</contour>
	</outline>
</glyph>
<glyph name="divide" format="2">
	<advance width="516"/>
	<unicode hex="00F7"/>
	<outline>
		<contour>
			<point x="60" y="255" type="line"/>
			<point x="476" y="255" type="line"/>
			<point x="476" y="326" type="line"/>
			<point x="60" y="326" type="line"/>
		</contour>
		<contour>
			<point x="228" y="426" type="line"/>
			<point x="305" y="426" type="line"/>
			<point x="305" y="503" type="line"/>
			<point x="228" y="503" type="line"/>
		</contour>
		<contour>
			<point x="228" y="78" type="line"/>
			<point x="305" y="78" type="line"/>
			<point x="305" y="155" type="line"/>
			<point x="228" y="155" type="line"/>
		</contour>
	</outline>
</glyph>
<glyph name="oslash" format="2">
	<advance width="554"/>
	<unicode hex="00F8"/>
	<outline>
		<contour>
			<point x="71" y="-48" type="line"/>
			<point x="143" y="-48" type="line"/>
			<point x="482" y="514" type="line"/>
			<point x="410" y="514" type="line"/>
		</contour>
		<component base="o"/>
	</outline>
</glyph>
<glyph name="eogonek" format="2">
  <advance width="499"/>
  <unicode hex="0119"/>
  <outline>
    <contour>
      <point x="430" y="-215" type="curve"/>
      <point x="430" y="-151" type="line"/>
      <point x="369" y="-151"/>
      <point x="328" y="-116"/>
      <point x="328" y="-69" type="curve" smooth="yes"/>
      <point x="328" y="-32"/>
      <point x="348" y="-6"/>
      <point x="382" y="8" type="curve" smooth="yes"/>
      <point x="404" y="17"/>
      <point x="426" y="26"/>
      <point x="447" y="38" type="curve"/>
      <point x="447" y="116" type="line"/>
      <point x="392" y="79"/>
      <point x="338" y="60"/>
      <point x="283" y="60" type="curve" smooth="yes"/>
      <point x="182" y="60"/>
      <point x="125" y="119"/>
      <point x="125" y="213" type="curve" smooth="yes"/>
      <point x="125" y="261" type="line" smooth="yes"/>
      <point x="125" y="349"/>
      <point x="177" y="408"/>
      <point x="255" y="408" type="curve" smooth="yes"/>
      <point x="332" y="408"/>
      <point x="377" y="357"/>
      <point x="377" y="274" type="curve"/>
      <point x="111" y="274" type="line"/>
      <point x="111" y="211" type="line"/>
      <point x="459" y="211" type="line"/>
      <point x="459" y="241" type="line" smooth="yes"/>
      <point x="459" y="393"/>
      <point x="382" y="476"/>
      <point x="256" y="476" type="curve" smooth="yes"/>
      <point x="125" y="476"/>
      <point x="41" y="379"/>
      <point x="41" y="234" type="curve" smooth="yes"/>
      <point x="41" y="82"/>
      <point x="126" y="-10"/>
      <point x="274" y="-10" type="curve" smooth="yes"/>
      <point x="310" y="-10"/>
      <point x="337" y="-6"/>
      <point x="373" y="5" type="curve"/>
      <point x="368" y="45" type="line"/>
      <point x="302" y="32"/>
      <point x="255" y="-15"/>
      <point x="255" y="-82" type="curve" smooth="yes"/>
      <point x="255" y="-161"/>
      <point x="324" y="-215"/>
    </contour>
  </outline>
</glyph>
<glyph name="Hbar" format="2">
	<advance width="717"/>
	<unicode hex="0126"/>
	<outline>
		<contour>
			<point x="83" y="0" type="line"/>
			<point x="167" y="0" type="line"/>
			<point x="167" y="293" type="line"/>
			<point x="539" y="293" type="line"/>
			<point x="539" y="0" type="line"/>
			<point x="623" y="0" type="line"/>
			<point x="623" y="658" type="line"/>
			<point x="539" y="658" type="line"/>
			<point x="539" y="372" type="line"/>
			<point x="167" y="372" type="line"/>
			<point x="167" y="658" type="line"/>
			<point x="83" y="658" type="line"/>
		</contour>
		<contour>
			<point x="30" y="474" type="line"/>
			<point x="677" y="474" type="line"/>
			<point x="677" y="547" type="line"/>
			<point x="30" y="547" type="line"/>
		</contour>
	</outline>
</glyph>
<glyph name="dotlessi" format="2">
	<advance width="184"/>
	<unicode hex="0131"/>
	<outline>
		<contour>
			<point x="63" y="0" type="line"/>
			<point x="144" y="0" type="line"/>
			<point x="144" y="466" type="line"/>
			<point x="63" y="466" type="line"/>
		</contour>
	</outline>
</glyph>
<glyph name="lslash" format="2">
  <advance width="245"/>
  <unicode hex="0142"/>
  <outline>
    <contour>
      <point x="-5" y="304" type="line"/>
      <point x="205" y="361" type="line"/>
      <point x="205" y="432" type="line"/>
      <point x="-5" y="375" type="line"/>
    </contour>
    <component base="l"/>
  </outline>
</glyph>
<glyph name="OE" format="2">
	<advance width="872"/>
	<unicode hex="0152"/>
	<outline>
		<contour>
			<point x="393" y="0" type="curve" smooth="yes"/>
			<point x="832" y="0" type="line"/>
			<point x="832" y="79" type="line"/>
			<point x="545" y="79" type="line"/>
			<point x="545" y="294" type="line"/>
			<point x="810" y="294" type="line"/>
			<point x="810" y="373" type="line"/>
			<point x="545" y="373" type="line"/>
			<point x="545" y="579" type="line"/>
			<point x="822" y="579" type="line"/>
			<point x="822" y="658" type="line"/>
			<point x="396" y="658" type="line" smooth="yes"/>
			<point x="183" y="658"/>
			<point x="48" y="531"/>
			<point x="48" y="331" type="curve" smooth="yes"/>
			<point x="48" y="129"/>
			<point x="182" y="0"/>
		</contour>
		<contour>
			<point x="390" y="79" type="line" smooth="yes"/>
			<point x="233" y="79"/>
			<point x="134" y="176"/>
			<point x="134" y="331" type="curve" smooth="yes"/>
			<point x="134" y="483"/>
			<point x="235" y="579"/>
			<point x="393" y="579" type="curve" smooth="yes"/>
			<point x="460" y="579" type="line"/>
			<point x="460" y="79" type="line"/>
		</contour>
	</outline>
</glyph>
<glyph name="oe" format="2">
  <advance width="874"/>
  <unicode hex="0153"/>
  <outline>
    <contour>
      <point x="649" y="-10" type="curve" smooth="yes"/>
      <point x="707" y="-10"/>
      <point x="764" y="6"/>
      <point x="822" y="38" type="curve"/>
      <point x="822" y="116" type="line"/>
      <point x="767" y="79"/>
      <point x="713" y="60"/>
      <point x="658" y="60" type="curve" smooth="yes"/>
      <point x="557" y="60"/>
      <point x="500" y="118"/>
      <point x="500" y="213" type="curve" smooth="yes"/>
      <point x="500" y="261" type="line" smooth="yes"/>
      <point x="500" y="349"/>
      <point x="552" y="408"/>
      <point x="630" y="408" type="curve" smooth="yes"/>
      <point x="707" y="408"/>
      <point x="752" y="357"/>
      <point x="752" y="274" type="curve"/>
      <point x="486" y="274" type="line"/>
      <point x="486" y="211" type="line"/>
      <point x="834" y="211" type="line"/>
      <point x="834" y="241" type="line" smooth="yes"/>
      <point x="834" y="393"/>
      <point x="757" y="476"/>
      <point x="631" y="476" type="curve" smooth="yes"/>
      <point x="500" y="476"/>
      <point x="421" y="370"/>
      <point x="421" y="233" type="curve" smooth="yes"/>
      <point x="421" y="89"/>
      <point x="501" y="-10"/>
    </contour>
    <contour>
      <point x="273" y="-10" type="curve" smooth="yes"/>
      <point x="414" y="-10"/>
      <point x="495" y="94"/>
      <point x="495" y="233" type="curve" smooth="yes"/>
      <point x="495" y="372"/>
      <point x="414" y="476"/>
      <point x="273" y="476" type="curve" smooth="yes"/>
      <point x="131" y="476"/>
      <point x="41" y="379"/>
      <point x="41" y="232" type="curve" smooth="yes"/>
      <point x="41" y="86"/>
      <point x="131" y="-10"/>
    </contour>
    <contour>
      <point x="273" y="64" type="curve" smooth="yes"/>
      <point x="181" y="64"/>
      <point x="124" y="131"/>
      <point x="124" y="233" type="curve" smooth="yes"/>
      <point x="124" y="335"/>
      <point x="181" y="402"/>
      <point x="273" y="402" type="curve" smooth="yes"/>
      <point x="365" y="402"/>
      <point x="421" y="335"/>
      <point x="421" y="233" type="curve" smooth="yes"/>
      <point x="421" y="132"/>
      <point x="365" y="64"/>
    </contour>
  </outline>
</glyph>
<glyph name="Tbar" format="2">
	<advance width="577"/>
	<unicode hex="0166"/>
	<outline>
		<contour>
			<point x="113" y="310" type="line"/>
			<point x="445" y="310" type="line"/>
			<point x="445" y="383" type="line"/>
			<point x="113" y="383" type="line"/>
		</contour>
		<component base="T"/>
	</outline>
</glyph>
<glyph name="Uogonek" format="2">
	<advance width="639"/>
	<unicode hex="0172"/>
	<outline>
		<contour>
			<point x="506" y="-220" type="curve"/>
			<point x="506" y="-153" type="line"/>
			<point x="443" y="-153"/>
			<point x="403" y="-117"/>
			<point x="403" y="-66" type="curve" smooth="yes"/>
			<point x="403" y="-29"/>
			<point x="422" y="-2"/>
			<point x="456" y="14" type="curve" smooth="yes"/>
			<point x="545" y="52"/>
			<point x="599" y="143"/>
			<point x="599" y="260" type="curve" smooth="yes"/>
			<point x="599" y="658" type="line"/>
			<point x="517" y="658" type="line"/>
			<point x="517" y="260" type="line" smooth="yes"/>
			<point x="517" y="144"/>
			<point x="447" y="68"/>
			<point x="334" y="68" type="curve" smooth="yes"/>
			<point x="223" y="68"/>
			<point x="150" y="144"/>
			<point x="150" y="260" type="curve" smooth="yes"/>
			<point x="150" y="658" type="line"/>
			<point x="66" y="658" type="line"/>
			<point x="66" y="260" type="line" smooth="yes"/>
			<point x="66" y="95"/>
			<point x="170" y="-12"/>
			<point x="333" y="-12" type="curve" smooth="yes"/>
			<point x="370" y="-12"/>
			<point x="404" y="-6"/>
			<point x="436" y="6" type="curve"/>
			<point x="437" y="48" type="line"/>
			<point x="374" y="32"/>
			<point x="331" y="-14"/>
			<point x="331" y="-81" type="curve" smooth="yes"/>
			<point x="331" y="-163"/>
			<point x="399" y="-220"/>
		</contour>
	</outline>
</glyph>
<glyph name="florin" format="2">
  <advance width="529"/>
  <unicode hex="0192"/>
  <outline>
    <contour>
      <point x="116" y="391" type="line"/>
      <point x="415" y="391" type="line"/>
      <point x="415" y="466" type="line"/>
      <point x="116" y="466" type="line"/>
    </contour>
    <contour>
      <point x="65" y="-215" type="curve" smooth="yes"/>
      <point x="158" y="-215"/>
      <point x="223" y="-159"/>
      <point x="237" y="-42" type="curve" smooth="yes"/>
      <point x="310" y="552" type="line" smooth="yes"/>
      <point x="318" y="616"/>
      <point x="349" y="652"/>
      <point x="402" y="652" type="curve" smooth="yes"/>
      <point x="432" y="652"/>
      <point x="461" y="645"/>
      <point x="489" y="631" type="curve"/>
      <point x="489" y="710" type="line"/>
      <point x="460" y="721"/>
      <point x="431" y="727"/>
      <point x="401" y="727" type="curve" smooth="yes"/>
      <point x="311" y="727"/>
      <point x="244" y="670"/>
      <point x="230" y="551" type="curve" smooth="yes"/>
      <point x="157" y="-41" type="line" smooth="yes"/>
      <point x="149" y="-103"/>
      <point x="119" y="-140"/>
      <point x="69" y="-140" type="curve" smooth="yes"/>
      <point x="37" y="-140"/>
      <point x="9" y="-133"/>
      <point x="-16" y="-120" type="curve"/>
      <point x="-16" y="-196" type="line"/>
      <point x="10" y="-209"/>
      <point x="37" y="-215"/>
    </contour>
  </outline>
</glyph>
<glyph name="oslashacute" format="2">
	<advance width="554"/>
	<unicode hex="01FF"/>
	<outline>
		<contour>
			<point x="71" y="-48" type="line"/>
			<point x="143" y="-48" type="line"/>
			<point x="482" y="514" type="line"/>
			<point x="410" y="514" type="line"/>
		</contour>
		<component base="o"/>
		<component base="acutecomb" xOffset="278" yOffset="-1"/>
	</outline>
</glyph>
<glyph name="dotlessj" format="2">
	<advance width="186"/>
	<unicode hex="0237"/>
	<outline>
		<contour>
			<point x="-24" y="-211" type="line" smooth="yes"/>
			<point x="79" y="-211"/>
			<point x="146" y="-143"/>
			<point x="146" y="-36" type="curve" smooth="yes"/>
			<point x="146" y="466" type="line"/>
			<point x="65" y="466" type="line"/>
			<point x="65" y="-36" type="line" smooth="yes"/>
			<point x="65" y="-97"/>
			<point x="30" y="-137"/>
			<point x="-24" y="-137" type="curve" smooth="yes"/>
			<point x="-32" y="-137" type="line"/>
			<point x="-32" y="-211" type="line"/>
		</contour>
	</outline>
</glyph>
<glyph name="schwa" format="2">
  <advance width="499"/>
  <unicode hex="0259"/>
  <outline>
    <contour>
      <point x="245" y="-10" type="curve" smooth="yes"/>
      <point x="376" y="-10"/>
      <point x="459" y="83"/>
      <point x="459" y="232" type="curve" smooth="yes"/>
      <point x="459" y="383"/>
      <point x="374" y="476"/>
      <point x="225" y="476" type="curve" smooth="yes"/>
      <point x="169" y="476"/>
      <point x="106" y="459"/>
      <point x="49" y="428" type="curve"/>
      <point x="49" y="354" type="line"/>
      <point x="101" y="388"/>
      <point x="161" y="406"/>
      <point x="215" y="406" type="curve" smooth="yes"/>
      <point x="318" y="406"/>
      <point x="376" y="348"/>
      <point x="376" y="255" type="curve" smooth="yes"/>
      <point x="376" y="207" type="line" smooth="yes"/>
      <point x="376" y="117"/>
      <point x="324" y="59"/>
      <point x="246" y="59" type="curve" smooth="yes"/>
      <point x="167" y="59"/>
      <point x="119" y="111"/>
      <point x="119" y="196" type="curve"/>
      <point x="390" y="196" type="line"/>
      <point x="390" y="261" type="line"/>
      <point x="37" y="261" type="line"/>
      <point x="37" y="221" type="line" smooth="yes"/>
      <point x="37" y="80"/>
      <point x="116" y="-10"/>
    </contour>
  </outline>
</glyph>
<glyph name="gravecmb" format="2">
  <advance width="274"/>
  <unicode hex="0300"/>
  <outline>
    <contour>
      <point x="152" y="524" type="line"/>
      <point x="234" y="524" type="line"/>
      <point x="135" y="661" type="line"/>
      <point x="43" y="661" type="line"/>
    </contour>
  </outline>
</glyph>
<glyph name="gravecomb" format="2">
	<advance width="274"/>
	<unicode hex="0300"/>
	<outline>
		<contour>
			<point x="152" y="524" type="line"/>
			<point x="234" y="524" type="line"/>
			<point x="135" y="661" type="line"/>
			<point x="43" y="661" type="line"/>
		</contour>
	</outline>
</glyph>
<glyph name="acutecomb" format="2">
	<advance width="179"/>
	<unicode hex="0301"/>
	<outline>
		<contour>
			<point x="30" y="524" type="line"/>
			<point x="139" y="661" type="line"/>
			<point x="46" y="661" type="line"/>
			<point x="-52" y="524" type="line"/>
		</contour>
	</outline>
</glyph>
<glyph name="circumflexcmb" format="2">
  <advance width="174"/>
  <unicode hex="0302"/>
  <outline>
    <contour>
      <point x="-60" y="524" type="line"/>
      <point x="10" y="613" type="line"/>
      <point x="-9" y="613" type="line"/>
      <point x="62" y="524" type="line"/>
      <point x="134" y="524" type="line"/>
      <point x="35" y="658" type="line"/>
      <point x="-33" y="658" type="line"/>
      <point x="-132" y="524" type="line"/>
    </contour>
  </outline>
</glyph>
<glyph name="brevecmb" format="2">
	<advance width="161"/>
	<unicode hex="0306"/>
	<outline>
		<contour>
			<point x="1" y="516" type="curve" smooth="yes"/>
			<point x="74" y="516"/>
			<point x="121" y="567"/>
			<point x="121" y="650" type="curve"/>
			<point x="65" y="650" type="line"/>
			<point x="65" y="604"/>
			<point x="40" y="575"/>
			<point x="1" y="575" type="curve" smooth="yes"/>
			<point x="-37" y="575"/>
			<point x="-62" y="604"/>
			<point x="-62" y="650" type="curve"/>
			<point x="-119" y="650" type="line"/>
			<point x="-119" y="567"/>
			<point x="-72" y="516"/>
		</contour>
	</outline>
</glyph>
<glyph name="ringcmb" format="2">
  <advance width="133"/>
  <unicode hex="030A"/>
  <outline>
    <contour>
      <point x="2" y="456" type="curve" smooth="yes"/>
      <point x="58" y="456"/>
      <point x="93" y="496"/>
      <point x="93" y="546" type="curve" smooth="yes"/>
      <point x="93" y="596"/>
      <point x="58" y="637"/>
      <point x="2" y="637" type="curve" smooth="yes"/>
      <point x="-53" y="637"/>
      <point x="-88" y="596"/>
      <point x="-88" y="546" type="curve" smooth="yes"/>
      <point x="-88" y="496"/>
      <point x="-53" y="456"/>
    </contour>
    <contour>
      <point x="2" y="504" type="curve" smooth="yes"/>
      <point x="-20" y="504"/>
      <point x="-39" y="520"/>
      <point x="-39" y="546" type="curve" smooth="yes"/>
      <point x="-39" y="572"/>
      <point x="-20" y="590"/>
      <point x="2" y="590" type="curve" smooth="yes"/>
      <point x="25" y="590"/>
      <point x="44" y="572"/>
      <point x="44" y="546" type="curve" smooth="yes"/>
      <point x="44" y="520"/>
      <point x="25" y="504"/>
    </contour>
  </outline>
</glyph>
<glyph name="hungarumlautcmb" format="2">
	<advance width="251"/>
	<unicode hex="030B"/>
	<outline>
		<contour>
			<point x="-109" y="523" type="line"/>
			<point x="-37" y="523" type="line"/>
			<point x="63" y="659" type="line"/>
			<point x="-18" y="659" type="line"/>
		</contour>
		<contour>
			<point x="34" y="523" type="line"/>
			<point x="106" y="523" type="line"/>
			<point x="211" y="659" type="line"/>
			<point x="131" y="659" type="line"/>
		</contour>
	</outline>
</glyph>
<glyph name="commaturnedabovecomb" format="2">
	<advance width="117"/>
	<unicode hex="0312"/>
	<outline>
		<contour>
			<point x="19" y="712" type="line"/>
			<point x="-18" y="666"/>
			<point x="-35" y="615"/>
			<point x="-35" y="562" type="curve" smooth="yes"/>
			<point x="-35" y="520" type="line"/>
			<point x="39" y="520" type="line"/>
			<point x="39" y="562" type="line" smooth="yes"/>
			<point x="39" y="608"/>
			<point x="48" y="642"/>
			<point x="77" y="685" type="curve"/>
		</contour>
	</outline>
</glyph>
<glyph name="cedillacomb" format="2">
	<advance width="140"/>
	<unicode hex="0327"/>
	<outline>
		<contour>
			<point x="14" y="-212" type="curve" smooth="yes"/>
			<point x="66" y="-212"/>
			<point x="100" y="-179"/>
			<point x="100" y="-128" type="curve" smooth="yes"/>
			<point x="100" y="-77"/>
			<point x="60" y="-44"/>
			<point x="0" y="-44" type="curve" smooth="yes"/>
			<point x="-9" y="-44" type="line"/>
			<point x="-9" y="-92" type="line"/>
			<point x="-1" y="-92" type="line" smooth="yes"/>
			<point x="23" y="-92"/>
			<point x="39" y="-106"/>
			<point x="39" y="-128" type="curve" smooth="yes"/>
			<point x="39" y="-149"/>
			<point x="25" y="-163"/>
			<point x="4" y="-163" type="curve" smooth="yes"/>
			<point x="-14" y="-163"/>
			<point x="-34" y="-157"/>
			<point x="-51" y="-146" type="curve"/>
			<point x="-51" y="-197" type="line"/>
			<point x="-31" y="-207"/>
			<point x="-8" y="-212"/>
		</contour>
	</outline>
</glyph>
<glyph name="ogonekcomb" format="2">
	<advance width="50"/>
	<unicode hex="0328"/>
	<outline>
		<contour>
			<point x="10" y="-220" type="curve"/>
			<point x="10" y="-153" type="line"/>
			<point x="-46" y="-153"/>
			<point x="-81" y="-122"/>
			<point x="-81" y="-77" type="curve" smooth="yes"/>
			<point x="-81" y="-29"/>
			<point x="-47" y="0"/>
			<point x="0" y="0" type="curve"/>
			<point x="-10" y="36" type="line"/>
			<point x="-89" y="36"/>
			<point x="-151" y="-14"/>
			<point x="-151" y="-93" type="curve" smooth="yes"/>
			<point x="-151" y="-168"/>
			<point x="-88" y="-220"/>
		</contour>
	</outline>
</glyph>
<glyph name="mu" format="2">
  <advance width="480"/>
  <unicode hex="03BC"/>
  <unicode hex="00B5"/>
  <outline>
    <contour>
      <point x="134" y="-211" type="line"/>
      <point x="120" y="30" type="line"/>
      <point x="141" y="4"/>
      <point x="174" y="-10"/>
      <point x="219" y="-10" type="curve" smooth="yes"/>
      <point x="281" y="-10"/>
      <point x="326" y="15"/>
      <point x="359" y="63" type="curve"/>
      <point x="366" y="0" type="line"/>
      <point x="440" y="0" type="line"/>
      <point x="440" y="466" type="line"/>
      <point x="359" y="466" type="line"/>
      <point x="359" y="135" type="line"/>
      <point x="336" y="93"/>
      <point x="297" y="64"/>
      <point x="244" y="64" type="curve" smooth="yes"/>
      <point x="182" y="64"/>
      <point x="143" y="105"/>
      <point x="143" y="175" type="curve" smooth="yes"/>
      <point x="143" y="466" type="line"/>
      <point x="62" y="466" type="line"/>
      <point x="62" y="-211" type="line"/>
    </contour>
  </outline>
</glyph>
<glyph name="endash" format="2">
	<advance width="506"/>
	<unicode hex="2013"/>
	<outline>
		<contour>
			<point x="46" y="200" type="line"/>
			<point x="466" y="200" type="line"/>
			<point x="466" y="272" type="line"/>
			<point x="46" y="272" type="line"/>
		</contour>
	</outline>
</glyph>
<glyph name="dagger" format="2">
	<advance width="454"/>
	<unicode hex="2020"/>
	<outline>
		<contour>
			<point x="187" y="0" type="line"/>
			<point x="270" y="0" type="line"/>
			<point x="266" y="461" type="line"/>
			<point x="414" y="457" type="line"/>
			<point x="414" y="532" type="line"/>
			<point x="266" y="528" type="line"/>
			<point x="270" y="720" type="line"/>
			<point x="187" y="720" type="line"/>
			<point x="191" y="528" type="line"/>
			<point x="43" y="532" type="line"/>
			<point x="43" y="457" type="line"/>
			<point x="191" y="461" type="line"/>
		</contour>
	</outline>
</glyph>
<glyph name="daggerdbl" format="2">
  <advance width="454"/>
  <unicode hex="2021"/>
  <outline>
    <contour>
      <point x="187" y="0" type="line"/>
      <point x="270" y="0" type="line"/>
      <point x="266" y="199" type="line"/>
      <point x="414" y="195" type="line"/>
      <point x="414" y="270" type="line"/>
      <point x="266" y="266" type="line"/>
      <point x="266" y="461" type="line"/>
      <point x="414" y="457" type="line"/>
      <point x="414" y="532" type="line"/>
      <point x="266" y="528" type="line"/>
      <point x="270" y="720" type="line"/>
      <point x="187" y="720" type="line"/>
      <point x="191" y="528" type="line"/>
      <point x="43" y="532" type="line"/>
      <point x="43" y="457" type="line"/>
      <point x="191" y="461" type="line"/>
      <point x="191" y="266" type="line"/>
      <point x="43" y="270" type="line"/>
      <point x="43" y="195" type="line"/>
      <point x="191" y="199" type="line"/>
    </contour>
  </outline>
</glyph>
<glyph name="minute" format="2">
	<advance width="170"/>
	<unicode hex="2032"/>
	<outline>
		<contour>
			<point x="60" y="513" type="line"/>
			<point x="130" y="513" type="line"/>
			<point x="130" y="724" type="line"/>
			<point x="60" y="724" type="line"/>
		</contour>
	</outline>
</glyph>
<glyph name="second" format="2">
  <advance width="299"/>
  <unicode hex="2033"/>
  <outline>
    <contour>
      <point x="60" y="513" type="line"/>
      <point x="130" y="513" type="line"/>
      <point x="130" y="724" type="line"/>
      <point x="60" y="724" type="line"/>
    </contour>
    <contour>
      <point x="189" y="513" type="line"/>
      <point x="259" y="513" type="line"/>
      <point x="259" y="724" type="line"/>
      <point x="189" y="724" type="line"/>
    </contour>
  </outline>
</glyph>
<glyph name="guilsinglleft" format="2">
	<advance width="333"/>
	<unicode hex="2039"/>
	<outline>
		<contour>
			<point x="195" y="67" type="line"/>
			<point x="293" y="67" type="line"/>
			<point x="138" y="226" type="line" smooth="yes"/>
			<point x="293" y="386" type="line"/>
			<point x="195" y="386" type="line"/>
			<point x="40" y="226" type="line"/>
		</contour>
	</outline>
</glyph>
<glyph name="bitcoin" format="2">
	<advance width="515"/>
	<unicode hex="20BF"/>
	<outline>
		<contour>
			<point x="155" y="599" type="line"/>
			<point x="215" y="599" type="line"/>
			<point x="215" y="786" type="line"/>
			<point x="155" y="786" type="line"/>
		</contour>
		<contour>
			<point x="273" y="599" type="line"/>
			<point x="332" y="599" type="line"/>
			<point x="332" y="786" type="line"/>
			<point x="273" y="786" type="line"/>
		</contour>
		<contour>
			<point x="155" y="-124" type="line"/>
			<point x="215" y="-124" type="line"/>
			<point x="215" y="63" type="line"/>
			<point x="155" y="63" type="line"/>
		</contour>
		<contour>
			<point x="273" y="-124" type="line"/>
			<point x="332" y="-124" type="line"/>
			<point x="332" y="63" type="line"/>
			<point x="273" y="63" type="line"/>
		</contour>
		<component base="B"/>
	</outline>
</glyph>
<glyph name="copyrightsound" format="2">
	<advance width="678"/>
	<unicode hex="2117"/>
	<outline>
		<contour>
			<point x="342" y="107" type="curve" smooth="yes"/>
			<point x="510" y="107"/>
			<point x="638" y="242"/>
			<point x="638" y="403" type="curve" smooth="yes"/>
			<point x="638" y="564"/>
			<point x="510" y="699"/>
			<point x="342" y="699" type="curve" smooth="yes"/>
			<point x="171" y="699"/>
			<point x="46" y="564"/>
			<point x="46" y="402" type="curve" smooth="yes"/>
			<point x="46" y="242"/>
			<point x="171" y="107"/>
		</contour>
		<contour>
			<point x="342" y="156" type="curve" smooth="yes"/>
			<point x="206" y="156"/>
			<point x="96" y="261"/>
			<point x="96" y="403" type="curve" smooth="yes"/>
			<point x="96" y="545"/>
			<point x="206" y="650"/>
			<point x="342" y="650" type="curve" smooth="yes"/>
			<point x="472" y="650"/>
			<point x="588" y="546"/>
			<point x="588" y="402" type="curve" smooth="yes"/>
			<point x="588" y="261"/>
			<point x="472" y="156"/>
		</contour>
		<contour>
			<point x="257" y="233" type="line"/>
			<point x="311" y="233" type="line"/>
			<point x="311" y="355" type="line"/>
			<point x="347" y="355" type="line" smooth="yes"/>
			<point x="420" y="355"/>
			<point x="471" y="398"/>
			<point x="471" y="467" type="curve" smooth="yes"/>
			<point x="471" y="534"/>
			<point x="421" y="576"/>
			<point x="348" y="576" type="curve" smooth="yes"/>
			<point x="257" y="576" type="line"/>
		</contour>
		<contour>
			<point x="311" y="401" type="line"/>
			<point x="311" y="529" type="line"/>
			<point x="344" y="529" type="line" smooth="yes"/>
			<point x="389" y="529"/>
			<point x="417" y="503"/>
			<point x="417" y="466" type="curve" smooth="yes"/>
			<point x="417" y="428"/>
			<point x="389" y="401"/>
			<point x="344" y="401" type="curve" smooth="yes"/>
		</contour>
	</outline>
</glyph>
<glyph name="trademark" format="2">
  <advance width="596"/>
  <unicode hex="2122"/>
  <outline>
    <contour>
      <point x="104" y="458" type="line"/>
      <point x="160" y="458" type="line"/>
      <point x="160" y="672" type="line"/>
      <point x="236" y="672" type="line"/>
      <point x="236" y="720" type="line"/>
      <point x="28" y="720" type="line"/>
      <point x="28" y="672" type="line"/>
      <point x="104" y="672" type="line"/>
    </contour>
    <contour>
      <point x="266" y="458" type="line"/>
      <point x="314" y="458" type="line"/>
      <point x="314" y="717" type="line"/>
      <point x="290" y="717" type="line"/>
      <point x="389" y="502" type="line"/>
      <point x="425" y="502" type="line"/>
      <point x="524" y="717" type="line"/>
      <point x="500" y="717" type="line"/>
      <point x="500" y="458" type="line"/>
      <point x="556" y="458" type="line"/>
      <point x="556" y="720" type="line"/>
      <point x="474" y="720" type="line"/>
      <point x="397" y="548" type="line"/>
      <point x="428" y="548" type="line"/>
      <point x="351" y="720" type="line"/>
      <point x="266" y="720" type="line"/>
    </contour>
  </outline>
</glyph>
<glyph name="partialdiff" format="2">
  <advance width="532"/>
  <unicode hex="2202"/>
  <outline>
    <contour>
      <point x="268" y="-11" type="curve" smooth="yes"/>
      <point x="394" y="-11"/>
      <point x="492" y="77"/>
      <point x="492" y="277" type="curve" smooth="yes"/>
      <point x="492" y="525"/>
      <point x="336" y="690"/>
      <point x="74" y="690" type="curve"/>
      <point x="74" y="605" type="line"/>
      <point x="283" y="605"/>
      <point x="407" y="491"/>
      <point x="407" y="267" type="curve"/>
      <point x="427" y="272" type="line"/>
      <point x="417" y="386"/>
      <point x="335" y="446"/>
      <point x="246" y="446" type="curve" smooth="yes"/>
      <point x="128" y="446"/>
      <point x="40" y="357"/>
      <point x="40" y="215" type="curve" smooth="yes"/>
      <point x="40" y="69"/>
      <point x="134" y="-11"/>
    </contour>
    <contour>
      <point x="265" y="67" type="curve" smooth="yes"/>
      <point x="176" y="67"/>
      <point x="127" y="131"/>
      <point x="127" y="220" type="curve" smooth="yes"/>
      <point x="127" y="305"/>
      <point x="179" y="369"/>
      <point x="263" y="369" type="curve" smooth="yes"/>
      <point x="345" y="369"/>
      <point x="399" y="315"/>
      <point x="406" y="240" type="curve" smooth="yes"/>
      <point x="406" y="134"/>
      <point x="351" y="67"/>
    </contour>
  </outline>
</glyph>
<glyph name="radical" format="2">
  <advance width="619"/>
  <unicode hex="221A"/>
  <outline>
    <contour>
      <point x="213" y="-5" type="line"/>
      <point x="288" y="-5" type="line"/>
      <point x="579" y="716" type="line"/>
      <point x="499" y="716" type="line"/>
      <point x="228" y="43" type="line"/>
      <point x="281" y="43" type="line"/>
      <point x="99" y="494" type="line"/>
      <point x="11" y="494" type="line"/>
    </contour>
  </outline>
</glyph>
<glyph name="infinity" format="2">
  <advance width="822"/>
  <unicode hex="221E"/>
  <outline>
    <contour>
      <point x="219" y="36" type="curve" smooth="yes"/>
      <point x="292" y="36"/>
      <point x="356" y="83"/>
      <point x="414" y="185" type="curve"/>
      <point x="374" y="241" type="line"/>
      <point x="327" y="147"/>
      <point x="277" y="110"/>
      <point x="230" y="110" type="curve" smooth="yes"/>
      <point x="162" y="110"/>
      <point x="116" y="156"/>
      <point x="116" y="230" type="curve" smooth="yes"/>
      <point x="116" y="302"/>
      <point x="162" y="348"/>
      <point x="229" y="348" type="curve" smooth="yes"/>
      <point x="278" y="348"/>
      <point x="319" y="320"/>
      <point x="371" y="223" type="curve" smooth="yes"/>
      <point x="393" y="177" type="line" smooth="yes"/>
      <point x="445" y="81"/>
      <point x="516" y="36"/>
      <point x="594" y="36" type="curve" smooth="yes"/>
      <point x="708" y="36"/>
      <point x="782" y="110"/>
      <point x="782" y="229" type="curve" smooth="yes"/>
      <point x="782" y="347"/>
      <point x="713" y="421"/>
      <point x="605" y="421" type="curve" smooth="yes"/>
      <point x="535" y="421"/>
      <point x="464" y="375"/>
      <point x="405" y="272" type="curve"/>
      <point x="440" y="214" type="line"/>
      <point x="492" y="308"/>
      <point x="543" y="347"/>
      <point x="591" y="347" type="curve" smooth="yes"/>
      <point x="657" y="347"/>
      <point x="703" y="301"/>
      <point x="703" y="229" type="curve" smooth="yes"/>
      <point x="703" y="156"/>
      <point x="657" y="110"/>
      <point x="594" y="110" type="curve" smooth="yes"/>
      <point x="541" y="110"/>
      <point x="496" y="149"/>
      <point x="448" y="237" type="curve" smooth="yes"/>
      <point x="425" y="283" type="line" smooth="yes"/>
      <point x="375" y="376"/>
      <point x="307" y="422"/>
      <point x="220" y="422" type="curve" smooth="yes"/>
      <point x="112" y="422"/>
      <point x="37" y="348"/>
      <point x="37" y="229" type="curve" smooth="yes"/>
      <point x="37" y="111"/>
      <point x="107" y="36"/>
    </contour>
  </outline>
</glyph>
<glyph name="approxequal" format="2">
  <advance width="387"/>
  <unicode hex="2248"/>
  <outline>
    <contour>
      <point x="74" y="325" type="line"/>
      <point x="90" y="345"/>
      <point x="112" y="355"/>
      <point x="136" y="355" type="curve" smooth="yes"/>
      <point x="161" y="355"/>
      <point x="182" y="347"/>
      <point x="202" y="334" type="curve" smooth="yes"/>
      <point x="222" y="320"/>
      <point x="247" y="315"/>
      <point x="270" y="315" type="curve" smooth="yes"/>
      <point x="299" y="315"/>
      <point x="331" y="331"/>
      <point x="347" y="357" type="curve"/>
      <point x="333" y="420" type="line"/>
      <point x="317" y="403"/>
      <point x="297" y="390"/>
      <point x="272" y="390" type="curve" smooth="yes"/>
      <point x="247" y="390"/>
      <point x="225" y="398"/>
      <point x="205" y="411" type="curve" smooth="yes"/>
      <point x="185" y="425"/>
      <point x="161" y="430"/>
      <point x="137" y="430" type="curve" smooth="yes"/>
      <point x="108" y="430"/>
      <point x="75" y="414"/>
      <point x="60" y="388" type="curve"/>
    </contour>
    <contour>
      <point x="74" y="158" type="line"/>
      <point x="90" y="178"/>
      <point x="112" y="188"/>
      <point x="136" y="188" type="curve" smooth="yes"/>
      <point x="161" y="188"/>
      <point x="182" y="180"/>
      <point x="202" y="167" type="curve" smooth="yes"/>
      <point x="222" y="154"/>
      <point x="247" y="148"/>
      <point x="270" y="148" type="curve" smooth="yes"/>
      <point x="299" y="148"/>
      <point x="331" y="164"/>
      <point x="347" y="190" type="curve"/>
      <point x="333" y="253" type="line"/>
      <point x="317" y="235"/>
      <point x="297" y="223"/>
      <point x="272" y="223" type="curve" smooth="yes"/>
      <point x="247" y="223"/>
      <point x="225" y="231"/>
      <point x="205" y="244" type="curve" smooth="yes"/>
      <point x="185" y="257"/>
      <point x="161" y="263"/>
      <point x="137" y="263" type="curve" smooth="yes"/>
      <point x="108" y="263"/>
      <point x="75" y="247"/>
      <point x="60" y="221" type="curve"/>
    </contour>
  </outline>
</glyph>
<glyph name="lessequal" format="2">
	<advance width="439"/>
	<unicode hex="2264"/>
	<outline>
		<contour>
			<point x="68" y="-71" type="line"/>
			<point x="391" y="-71" type="line"/>
			<point x="391" y="0" type="line"/>
			<point x="68" y="0" type="line"/>
		</contour>
		<contour>
			<point x="285" y="81" type="line"/>
			<point x="399" y="81" type="line"/>
			<point x="174" y="288" type="line"/>
			<point x="399" y="495" type="line"/>
			<point x="285" y="495" type="line"/>
			<point x="60" y="288" type="line"/>
		</contour>
	</outline>
</glyph>
<glyph name="greaterequal" format="2">
	<advance width="439"/>
	<unicode hex="2265"/>
	<outline>
		<contour>
			<point x="67" y="-71" type="line"/>
			<point x="391" y="-71" type="line"/>
			<point x="391" y="0" type="line"/>
			<point x="67" y="0" type="line"/>
		</contour>
		<contour>
			<point x="60" y="81" type="line"/>
			<point x="174" y="81" type="line"/>
			<point x="399" y="288" type="line"/>
			<point x="174" y="495" type="line"/>
			<point x="60" y="495" type="line"/>
			<point x="285" y="288" type="line"/>
		</contour>
	</outline>
</glyph>
<glyph name="lozenge" format="2">
	<advance width="601"/>
	<unicode hex="25CA"/>
	<outline>
		<contour>
			<point x="306" y="-26" type="line"/>
			<point x="561" y="315" type="line"/>
			<point x="306" y="656" type="line"/>
			<point x="47" y="315" type="line"/>
		</contour>
		<contour>
			<point x="307" y="91" type="line"/>
			<point x="140" y="315" type="line"/>
			<point x="306" y="539" type="line"/>
			<point x="474" y="315" type="line"/>
		</contour>
	</outline>
</glyph>
<glyph name="checkmark" format="2">
  <advance width="616"/>
  <unicode hex="2713"/>
  <outline>
    <contour>
      <point x="211" y="-5" type="line"/>
      <point x="286" y="-5" type="line"/>
      <point x="576" y="723" type="line"/>
      <point x="496" y="723" type="line"/>
      <point x="226" y="43" type="line"/>
      <point x="278" y="43" type="line"/>
      <point x="104" y="472" type="line"/>
      <point x="16" y="472" type="line"/>
    </contour>
  </outline>
</glyph>
<glyph name="apple" format="2">
	<advance width="732"/>
	<unicode hex="F8FF"/>
	<outline>
		<contour>
			<point x="29" y="0" type="line"/>
			<point x="29" y="658" type="line"/>
			<point x="692" y="658" type="line"/>
			<point x="692" y="0" type="line"/>
		</contour>
		<contour>
			<point x="223" y="77" type="line" smooth="yes"/>
			<point x="286" y="77" type="line" smooth="yes"/>
			<point x="286" y="528" type="line" smooth="yes"/>
			<point x="371" y="528" type="line"/>
			<point x="371" y="77" type="line" smooth="yes"/>
			<point x="434" y="77" type="line" smooth="yes"/>
			<point x="434" y="309" type="line" smooth="yes"/>
			<point x="457" y="309" type="line" smooth="yes"/>
			<point x="553" y="309"/>
			<point x="609" y="363"/>
			<point x="609" y="445" type="curve" smooth="yes"/>
			<point x="609" y="528"/>
			<point x="554" y="582"/>
			<point x="457" y="582" type="curve" smooth="yes"/>
			<point x="119" y="582" type="line" smooth="yes"/>
			<point x="119" y="528" type="line" smooth="yes"/>
			<point x="223" y="528" type="line" smooth="yes"/>
		</contour>
	</outline>
</glyph>
<glyph name="A.sc" format="2">
  <advance width="555"/>
  <outline>
    <contour>
      <point x="13" y="0" type="line"/>
      <point x="91" y="0" type="line"/>
      <point x="147" y="141" type="line"/>
      <point x="131" y="141" type="line"/>
      <point x="390" y="141" type="line"/>
      <point x="372" y="141" type="line"/>
      <point x="428" y="0" type="line"/>
      <point x="515" y="0" type="line"/>
      <point x="310" y="512" type="line"/>
      <point x="218" y="512" type="line"/>
    </contour>
    <contour>
      <point x="174" y="212" type="line"/>
      <point x="236" y="367" type="line"/>
      <point x="267" y="456" type="line"/>
      <point x="253" y="456" type="line"/>
      <point x="284" y="367" type="line"/>
      <point x="346" y="212" type="line"/>
      <point x="366" y="212" type="line"/>
      <point x="157" y="212" type="line"/>
    </contour>
  </outline>
</glyph>
<glyph name="AE.sc" format="2">
	<advance width="714"/>
	<outline>
		<contour>
			<point x="13" y="0" type="line"/>
			<point x="97" y="0" type="line"/>
			<point x="182" y="136" type="line"/>
			<point x="159" y="136" type="line"/>
			<point x="360" y="136" type="line"/>
			<point x="360" y="0" type="line"/>
			<point x="674" y="0" type="line"/>
			<point x="674" y="75" type="line"/>
			<point x="442" y="75" type="line"/>
			<point x="442" y="224" type="line"/>
			<point x="644" y="224" type="line"/>
			<point x="644" y="298" type="line"/>
			<point x="442" y="298" type="line"/>
			<point x="442" y="438" type="line"/>
			<point x="669" y="438" type="line"/>
			<point x="669" y="512" type="line"/>
			<point x="330" y="512" type="line"/>
		</contour>
		<contour>
			<point x="225" y="207" type="line"/>
			<point x="329" y="374" type="line"/>
			<point x="380" y="460" type="line"/>
			<point x="360" y="460" type="line"/>
			<point x="360" y="207" type="line"/>
			<point x="203" y="207" type="line"/>
		</contour>
	</outline>
</glyph>
<glyph name="B.sc" format="2">
	<advance width="442"/>
	<outline>
		<contour>
			<point x="66" y="0" type="line"/>
			<point x="234" y="0" type="line" smooth="yes"/>
			<point x="347" y="0"/>
			<point x="402" y="55"/>
			<point x="402" y="138" type="curve" smooth="yes"/>
			<point x="402" y="209"/>
			<point x="356" y="260"/>
			<point x="265" y="267" type="curve"/>
			<point x="265" y="259" type="line"/>
			<point x="342" y="266"/>
			<point x="388" y="317"/>
			<point x="388" y="383" type="curve" smooth="yes"/>
			<point x="388" y="462"/>
			<point x="337" y="512"/>
			<point x="228" y="512" type="curve" smooth="yes"/>
			<point x="66" y="512" type="line"/>
		</contour>
		<contour>
			<point x="146" y="291" type="line"/>
			<point x="146" y="447" type="line"/>
			<point x="218" y="447" type="line" smooth="yes"/>
			<point x="274" y="447"/>
			<point x="309" y="422"/>
			<point x="309" y="371" type="curve" smooth="yes"/>
			<point x="309" y="318"/>
			<point x="273" y="291"/>
			<point x="217" y="291" type="curve" smooth="yes"/>
		</contour>
		<contour>
			<point x="146" y="66" type="line"/>
			<point x="146" y="229" type="line"/>
			<point x="226" y="229" type="line" smooth="yes"/>
			<point x="285" y="229"/>
			<point x="323" y="203"/>
			<point x="323" y="148" type="curve" smooth="yes"/>
			<point x="323" y="93"/>
			<point x="286" y="66"/>
			<point x="231" y="66" type="curve" smooth="yes"/>
		</contour>
	</outline>
</glyph>
<glyph name="C.sc" format="2">
  <advance width="512"/>
  <outline>
    <contour>
      <point x="321" y="-11" type="curve" smooth="yes"/>
      <point x="374" y="-11"/>
      <point x="426" y="0"/>
      <point x="472" y="23" type="curve"/>
      <point x="472" y="102" type="line"/>
      <point x="424" y="76"/>
      <point x="373" y="64"/>
      <point x="322" y="64" type="curve" smooth="yes"/>
      <point x="203" y="64"/>
      <point x="126" y="139"/>
      <point x="126" y="257" type="curve" smooth="yes"/>
      <point x="126" y="375"/>
      <point x="203" y="449"/>
      <point x="322" y="449" type="curve" smooth="yes"/>
      <point x="369" y="449"/>
      <point x="418" y="437"/>
      <point x="465" y="414" type="curve"/>
      <point x="465" y="493" type="line"/>
      <point x="420" y="513"/>
      <point x="371" y="524"/>
      <point x="321" y="524" type="curve" smooth="yes"/>
      <point x="153" y="524"/>
      <point x="44" y="419"/>
      <point x="44" y="257" type="curve" smooth="yes"/>
      <point x="44" y="94"/>
      <point x="153" y="-11"/>
    </contour>
  </outline>
</glyph>
<glyph name="Eng.sc" format="2">
	<advance width="567"/>
	<outline>
		<contour>
			<point x="356" y="-215" type="line" smooth="yes"/>
			<point x="463" y="-215"/>
			<point x="527" y="-153"/>
			<point x="527" y="-53" type="curve" smooth="yes"/>
			<point x="527" y="10" type="line"/>
			<point x="453" y="10" type="line"/>
			<point x="453" y="-53" type="line" smooth="yes"/>
			<point x="453" y="-114"/>
			<point x="415" y="-152"/>
			<point x="356" y="-152" type="curve" smooth="yes"/>
			<point x="348" y="-152" type="line"/>
			<point x="348" y="-215" type="line"/>
		</contour>
		<contour>
			<point x="66" y="0" type="line"/>
			<point x="142" y="0" type="line"/>
			<point x="142" y="345" type="line"/>
			<point x="140" y="452" type="line"/>
			<point x="98" y="452" type="line"/>
			<point x="172" y="345" type="line"/>
			<point x="453" y="0" type="line"/>
			<point x="527" y="0" type="line"/>
			<point x="527" y="512" type="line"/>
			<point x="451" y="512" type="line"/>
			<point x="451" y="166" type="line"/>
			<point x="453" y="60" type="line"/>
			<point x="496" y="60" type="line"/>
			<point x="423" y="166" type="line"/>
			<point x="141" y="512" type="line"/>
			<point x="66" y="512" type="line"/>
		</contour>
	</outline>
</glyph>
<glyph name="Eth.sc" format="2">
	<advance width="558"/>
	<outline>
		<contour>
			<point x="23" y="227" type="line"/>
			<point x="228" y="227" type="line"/>
			<point x="228" y="291" type="line"/>
			<point x="23" y="291" type="line"/>
		</contour>
		<component base="D.sc" xOffset="11"/>
	</outline>
</glyph>
<glyph name="Euro.tab" format="2">
	<advance width="633"/>
	<outline>
		<contour>
			<point x="411" y="-14" type="curve" smooth="yes"/>
			<point x="476" y="-14"/>
			<point x="536" y="1"/>
			<point x="593" y="30" type="curve"/>
			<point x="593" y="116" type="line"/>
			<point x="537" y="82"/>
			<point x="477" y="65"/>
			<point x="413" y="65" type="curve" smooth="yes"/>
			<point x="278" y="65"/>
			<point x="191" y="167"/>
			<point x="191" y="328" type="curve" smooth="yes"/>
			<point x="191" y="487"/>
			<point x="278" y="589"/>
			<point x="413" y="589" type="curve" smooth="yes"/>
			<point x="476" y="589"/>
			<point x="533" y="574"/>
			<point x="587" y="543" type="curve"/>
			<point x="587" y="628" type="line"/>
			<point x="532" y="655"/>
			<point x="475" y="668"/>
			<point x="413" y="668" type="curve" smooth="yes"/>
			<point x="228" y="668"/>
			<point x="108" y="534"/>
			<point x="108" y="328" type="curve" smooth="yes"/>
			<point x="108" y="120"/>
			<point x="227" y="-14"/>
		</contour>
		<contour>
			<point x="57" y="243" type="line"/>
			<point x="330" y="243" type="line"/>
			<point x="330" y="302" type="line"/>
			<point x="57" y="302" type="line"/>
		</contour>
		<contour>
			<point x="57" y="359" type="line"/>
			<point x="329" y="359" type="line"/>
			<point x="329" y="418" type="line"/>
			<point x="57" y="418" type="line"/>
		</contour>
	</outline>
</glyph>
<glyph name="G.sc" format="2">
	<advance width="540"/>
	<outline>
		<contour>
			<point x="317" y="-11" type="curve" smooth="yes"/>
			<point x="381" y="-11"/>
			<point x="442" y="4"/>
			<point x="500" y="35" type="curve"/>
			<point x="500" y="273" type="line"/>
			<point x="320" y="273" type="line"/>
			<point x="320" y="202" type="line"/>
			<point x="418" y="202" type="line"/>
			<point x="418" y="89" type="line"/>
			<point x="385" y="72"/>
			<point x="351" y="64"/>
			<point x="314" y="64" type="curve" smooth="yes"/>
			<point x="200" y="64"/>
			<point x="126" y="139"/>
			<point x="126" y="257" type="curve" smooth="yes"/>
			<point x="126" y="375"/>
			<point x="203" y="449"/>
			<point x="322" y="449" type="curve" smooth="yes"/>
			<point x="374" y="449"/>
			<point x="424" y="437"/>
			<point x="474" y="414" type="curve"/>
			<point x="474" y="493" type="line"/>
			<point x="424" y="513"/>
			<point x="372" y="524"/>
			<point x="321" y="524" type="curve" smooth="yes"/>
			<point x="153" y="524"/>
			<point x="44" y="419"/>
			<point x="44" y="257" type="curve" smooth="yes"/>
			<point x="44" y="94"/>
			<point x="151" y="-11"/>
		</contour>
	</outline>
</glyph>
<glyph name="J.base" format="2">
  <advance width="252"/>
  <outline>
    <contour>
      <point x="37" y="-16" type="line" smooth="yes"/>
      <point x="144" y="-16"/>
      <point x="212" y="53"/>
      <point x="212" y="161" type="curve" smooth="yes"/>
      <point x="212" y="658" type="line"/>
      <point x="128" y="658" type="line"/>
      <point x="128" y="161" type="line" smooth="yes"/>
      <point x="128" y="100"/>
      <point x="93" y="62"/>
      <point x="37" y="62" type="curve" smooth="yes"/>
      <point x="29" y="62" type="line"/>
      <point x="29" y="-16" type="line"/>
    </contour>
  </outline>
</glyph>
<glyph name="J.base_sc" format="2">
	<advance width="248"/>
	<outline>
		<contour>
			<point x="39" y="-16" type="line" smooth="yes"/>
			<point x="147" y="-16"/>
			<point x="208" y="50"/>
			<point x="208" y="152" type="curve" smooth="yes"/>
			<point x="208" y="512" type="line"/>
			<point x="126" y="512" type="line"/>
			<point x="126" y="153" type="line" smooth="yes"/>
			<point x="126" y="91"/>
			<point x="95" y="60"/>
			<point x="39" y="60" type="curve" smooth="yes"/>
			<point x="31" y="60" type="line"/>
			<point x="31" y="-16" type="line"/>
		</contour>
	</outline>
</glyph>
<glyph name="J.sc" format="2">
	<advance width="186"/>
	<outline>
		<contour>
			<point x="-28" y="-220" type="line" smooth="yes"/>
			<point x="80" y="-220"/>
			<point x="146" y="-147"/>
			<point x="146" y="-44" type="curve" smooth="yes"/>
			<point x="146" y="512" type="line"/>
			<point x="64" y="512" type="line"/>
			<point x="64" y="-44" type="line" smooth="yes"/>
			<point x="64" y="-106"/>
			<point x="31" y="-145"/>
			<point x="-28" y="-145" type="curve" smooth="yes"/>
			<point x="-36" y="-145" type="line"/>
			<point x="-36" y="-220" type="line"/>
		</contour>
	</outline>
</glyph>
<glyph name="N.sc" format="2">
	<advance width="567"/>
	<outline>
		<contour>
			<point x="65" y="0" type="line"/>
			<point x="141" y="0" type="line"/>
			<point x="141" y="356" type="line"/>
			<point x="139" y="452" type="line"/>
			<point x="110" y="452" type="line"/>
			<point x="172" y="356" type="line"/>
			<point x="435" y="0" type="line"/>
			<point x="527" y="0" type="line"/>
			<point x="527" y="512" type="line"/>
			<point x="451" y="512" type="line"/>
			<point x="451" y="156" type="line"/>
			<point x="453" y="60" type="line"/>
			<point x="482" y="60" type="line"/>
			<point x="420" y="156" type="line"/>
			<point x="157" y="512" type="line"/>
			<point x="65" y="512" type="line"/>
		</contour>
	</outline>
</glyph>
<glyph name="OE.sc" format="2">
  <advance width="714"/>
  <outline>
    <contour>
      <point x="320" y="0" type="curve" smooth="yes"/>
      <point x="674" y="0" type="line"/>
      <point x="674" y="75" type="line"/>
      <point x="442" y="75" type="line"/>
      <point x="442" y="224" type="line"/>
      <point x="644" y="224" type="line"/>
      <point x="644" y="298" type="line"/>
      <point x="442" y="298" type="line"/>
      <point x="442" y="438" type="line"/>
      <point x="668" y="438" type="line"/>
      <point x="668" y="512" type="line"/>
      <point x="322" y="512" type="line" smooth="yes"/>
      <point x="151" y="512"/>
      <point x="44" y="413"/>
      <point x="44" y="257" type="curve" smooth="yes"/>
      <point x="44" y="99"/>
      <point x="150" y="0"/>
    </contour>
    <contour>
      <point x="319" y="75" type="line" smooth="yes"/>
      <point x="201" y="75"/>
      <point x="126" y="144"/>
      <point x="126" y="257" type="curve" smooth="yes"/>
      <point x="126" y="368"/>
      <point x="201" y="438"/>
      <point x="321" y="438" type="curve" smooth="yes"/>
      <point x="360" y="438" type="line"/>
      <point x="360" y="75" type="line"/>
    </contour>
  </outline>
</glyph>
<glyph name="Oslash.sc_AT_weight800" format="2">
	<advance width="605"/>
	<outline>
		<contour>
			<point x="395" y="468" type="line"/>
			<point x="451" y="435" type="line"/>
			<point x="529" y="564" type="line"/>
			<point x="453" y="564" type="line"/>
		</contour>
		<contour>
			<point x="82" y="-48" type="line"/>
			<point x="158" y="-48" type="line"/>
			<point x="215" y="47" type="line"/>
			<point x="160" y="81" type="line"/>
		</contour>
		<component base="O.sc"/>
	</outline>
</glyph>
<glyph name="Oslash_AT_weight800" format="2">
  <advance width="767"/>
  <outline>
    <contour>
      <point x="518" y="607" type="line"/>
      <point x="575" y="566" type="line"/>
      <point x="661" y="706" type="line"/>
      <point x="579" y="706" type="line"/>
    </contour>
    <contour>
      <point x="116" y="-48" type="line"/>
      <point x="198" y="-48" type="line"/>
      <point x="259" y="52" type="line"/>
      <point x="200" y="88" type="line"/>
    </contour>
    <component base="O"/>
  </outline>
</glyph>
<glyph name="Oslashacute.sc" format="2">
  <advance width="605"/>
  <outline>
    <contour>
      <point x="81" y="-48" type="line"/>
      <point x="157" y="-48" type="line"/>
      <point x="528" y="560" type="line"/>
      <point x="452" y="560" type="line"/>
    </contour>
    <component base="O.sc"/>
    <component base="acutecmb.uc" xOffset="299" yOffset="-142"/>
  </outline>
</glyph>
<glyph name="Oslashacute.sc_AT_weight800" format="2">
  <advance width="605"/>
  <outline>
    <contour>
      <point x="394" y="465" type="line"/>
      <point x="450" y="432" type="line"/>
      <point x="528" y="560" type="line"/>
      <point x="452" y="560" type="line"/>
    </contour>
    <contour>
      <point x="81" y="-48" type="line"/>
      <point x="157" y="-48" type="line"/>
      <point x="220" y="55" type="line"/>
      <point x="163" y="87" type="line"/>
    </contour>
    <component base="O.sc"/>
    <component base="acutecmb.uc" xOffset="305" yOffset="-148"/>
  </outline>
</glyph>
<glyph name="Oslashacute_AT_weight800" format="2">
	<advance width="767"/>
	<outline>
		<contour>
			<point x="519" y="608" type="line"/>
			<point x="580" y="573" type="line"/>
			<point x="661" y="706" type="line"/>
			<point x="579" y="706" type="line"/>
		</contour>
		<contour>
			<point x="116" y="-48" type="line"/>
			<point x="198" y="-48" type="line"/>
			<point x="260" y="53" type="line"/>
			<point x="199" y="87" type="line"/>
		</contour>
		<component base="O"/>
		<component base="acutecmb.uc" xOffset="392" yOffset="12"/>
	</outline>
</glyph>
<glyph name="P.001" format="2">
	<advance width="493"/>
	<outline>
		<contour>
			<point x="82" y="0" type="line"/>
			<point x="156" y="0" type="line"/>
			<point x="156" y="239" type="line"/>
			<point x="209" y="239" type="line" smooth="yes"/>
			<point x="364" y="239"/>
			<point x="453" y="322"/>
			<point x="453" y="452" type="curve" smooth="yes"/>
			<point x="453" y="581"/>
			<point x="364" y="658"/>
			<point x="208" y="658" type="curve" smooth="yes"/>
			<point x="82" y="658" type="line"/>
		</contour>
		<contour>
			<point x="156" y="312" type="line"/>
			<point x="156" y="580" type="line"/>
			<point x="211" y="580" type="line" smooth="yes"/>
			<point x="306" y="580"/>
			<point x="367" y="533"/>
			<point x="367" y="447" type="curve" smooth="yes"/>
			<point x="367" y="360"/>
			<point x="306" y="312"/>
			<point x="212" y="312" type="curve" smooth="yes"/>
		</contour>
	</outline>
</glyph>
<glyph name="Q.sc" format="2">
	<advance width="605"/>
	<outline>
		<contour>
			<point x="527" y="-142" type="curve"/>
			<point x="551" y="-72" type="line"/>
			<point x="472" y="-47"/>
			<point x="414" y="-16"/>
			<point x="352" y="43" type="curve"/>
			<point x="287" y="-2" type="line"/>
			<point x="356" y="-68"/>
			<point x="436" y="-112"/>
		</contour>
		<component base="O.sc"/>
	</outline>
</glyph>
<glyph name="R.sc" format="2">
	<advance width="479"/>
	<outline>
		<contour>
			<point x="66" y="0" type="line"/>
			<point x="147" y="0" type="line"/>
			<point x="147" y="210" type="line"/>
			<point x="195" y="210" type="line" smooth="yes"/>
			<point x="228" y="210"/>
			<point x="262" y="195"/>
			<point x="281" y="152" type="curve" smooth="yes"/>
			<point x="350" y="0" type="line"/>
			<point x="439" y="0" type="line"/>
			<point x="359" y="175" type="line" smooth="yes"/>
			<point x="336" y="226"/>
			<point x="295" y="246"/>
			<point x="239" y="246" type="curve"/>
			<point x="239" y="237" type="line"/>
			<point x="343" y="238"/>
			<point x="398" y="292"/>
			<point x="398" y="378" type="curve" smooth="yes"/>
			<point x="398" y="461"/>
			<point x="330" y="512"/>
			<point x="234" y="512" type="curve" smooth="yes"/>
			<point x="66" y="512" type="line"/>
		</contour>
		<contour>
			<point x="147" y="278" type="line"/>
			<point x="147" y="442" type="line"/>
			<point x="225" y="442" type="line" smooth="yes"/>
			<point x="280" y="442"/>
			<point x="317" y="410"/>
			<point x="317" y="364" type="curve" smooth="yes"/>
			<point x="317" y="311"/>
			<point x="280" y="278"/>
			<point x="228" y="278" type="curve" smooth="yes"/>
		</contour>
	</outline>
</glyph>
<glyph name="T.sc" format="2">
	<advance width="461"/>
	<outline>
		<contour>
			<point x="180" y="0" type="line"/>
			<point x="261" y="0" type="line"/>
			<point x="261" y="437" type="line"/>
			<point x="421" y="437" type="line"/>
			<point x="421" y="512" type="line"/>
			<point x="20" y="512" type="line"/>
			<point x="20" y="437" type="line"/>
			<point x="180" y="437" type="line"/>
		</contour>
	</outline>
</glyph>
<glyph name="Tbar.sc" format="2">
  <advance width="461"/>
  <outline>
    <contour>
      <point x="107" y="234" type="line"/>
      <point x="337" y="234" type="line"/>
      <point x="337" y="302" type="line"/>
      <point x="107" y="302" type="line"/>
    </contour>
    <component base="T.sc"/>
  </outline>
</glyph>
<glyph name="Thorn.sc" format="2">
  <advance width="428"/>
  <outline>
    <contour>
      <point x="66" y="0" type="line"/>
      <point x="147" y="0" type="line"/>
      <point x="147" y="93" type="line"/>
      <point x="202" y="93" type="line" smooth="yes"/>
      <point x="320" y="93"/>
      <point x="388" y="158"/>
      <point x="388" y="258" type="curve" smooth="yes"/>
      <point x="388" y="357"/>
      <point x="319" y="423"/>
      <point x="202" y="423" type="curve" smooth="yes"/>
      <point x="147" y="423" type="line"/>
      <point x="147" y="512" type="line"/>
      <point x="66" y="512" type="line"/>
    </contour>
    <contour>
      <point x="147" y="166" type="line"/>
      <point x="147" y="350" type="line"/>
      <point x="198" y="350" type="line" smooth="yes"/>
      <point x="262" y="350"/>
      <point x="305" y="318"/>
      <point x="305" y="258" type="curve" smooth="yes"/>
      <point x="305" y="199"/>
      <point x="263" y="166"/>
      <point x="199" y="166" type="curve" smooth="yes"/>
    </contour>
  </outline>
</glyph>
<glyph name="U.sc" format="2">
	<advance width="539"/>
	<outline>
		<contour>
			<point x="282" y="-12" type="curve" smooth="yes"/>
			<point x="418" y="-12"/>
			<point x="499" y="80"/>
			<point x="499" y="210" type="curve" smooth="yes"/>
			<point x="499" y="512" type="line"/>
			<point x="423" y="512" type="line"/>
			<point x="423" y="210" type="line" smooth="yes"/>
			<point x="423" y="118"/>
			<point x="367" y="61"/>
			<point x="283" y="61" type="curve" smooth="yes"/>
			<point x="199" y="61"/>
			<point x="143" y="118"/>
			<point x="143" y="210" type="curve" smooth="yes"/>
			<point x="143" y="512" type="line"/>
			<point x="61" y="512" type="line"/>
			<point x="61" y="210" type="line" smooth="yes"/>
			<point x="61" y="80"/>
			<point x="143" y="-12"/>
		</contour>
	</outline>
</glyph>
<glyph name="Uogonek.sc" format="2">
  <advance width="535"/>
  <outline>
    <contour>
      <point x="439" y="-220" type="curve"/>
      <point x="439" y="-153" type="line"/>
      <point x="377" y="-153"/>
      <point x="337" y="-117"/>
      <point x="337" y="-66" type="curve" smooth="yes"/>
      <point x="337" y="-29"/>
      <point x="355" y="-3"/>
      <point x="389" y="14" type="curve" smooth="yes"/>
      <point x="456" y="47"/>
      <point x="495" y="118"/>
      <point x="495" y="210" type="curve" smooth="yes"/>
      <point x="495" y="512" type="line"/>
      <point x="419" y="512" type="line"/>
      <point x="419" y="210" type="line" smooth="yes"/>
      <point x="419" y="118"/>
      <point x="365" y="61"/>
      <point x="281" y="61" type="curve" smooth="yes"/>
      <point x="197" y="61"/>
      <point x="143" y="118"/>
      <point x="143" y="210" type="curve" smooth="yes"/>
      <point x="143" y="512" type="line"/>
      <point x="61" y="512" type="line"/>
      <point x="61" y="210" type="line" smooth="yes"/>
      <point x="61" y="80"/>
      <point x="141" y="-12"/>
      <point x="280" y="-12" type="curve" smooth="yes"/>
      <point x="317" y="-12"/>
      <point x="345" y="-6"/>
      <point x="371" y="6" type="curve"/>
      <point x="371" y="48" type="line"/>
      <point x="307" y="32"/>
      <point x="264" y="-14"/>
      <point x="264" y="-81" type="curve" smooth="yes"/>
      <point x="264" y="-163"/>
      <point x="333" y="-220"/>
    </contour>
  </outline>
</glyph>
<glyph name="V.sc" format="2">
  <advance width="547"/>
  <outline>
    <contour>
      <point x="222" y="0" type="line"/>
      <point x="298" y="0" type="line"/>
      <point x="507" y="512" type="line"/>
      <point x="425" y="512" type="line"/>
      <point x="288" y="166" type="line"/>
      <point x="247" y="44" type="line"/>
      <point x="281" y="44" type="line"/>
      <point x="240" y="166" type="line"/>
      <point x="102" y="512" type="line"/>
      <point x="12" y="512" type="line"/>
    </contour>
  </outline>
</glyph>
<glyph name="W.sc" format="2">
  <advance width="781"/>
  <outline>
    <contour>
      <point x="172" y="0" type="line"/>
      <point x="254" y="0" type="line"/>
      <point x="361" y="351" type="line"/>
      <point x="390" y="464" type="line"/>
      <point x="361" y="464" type="line"/>
      <point x="390" y="351" type="line"/>
      <point x="498" y="0" type="line"/>
      <point x="579" y="0" type="line"/>
      <point x="741" y="512" type="line"/>
      <point x="663" y="512" type="line"/>
      <point x="557" y="166" type="line"/>
      <point x="528" y="56" type="line"/>
      <point x="555" y="56" type="line"/>
      <point x="526" y="166" type="line"/>
      <point x="420" y="512" type="line"/>
      <point x="340" y="512" type="line"/>
      <point x="233" y="166" type="line"/>
      <point x="204" y="56" type="line"/>
      <point x="234" y="56" type="line"/>
      <point x="204" y="166" type="line"/>
      <point x="98" y="512" type="line"/>
      <point x="12" y="512" type="line"/>
    </contour>
  </outline>
</glyph>
<glyph name="X.sc" format="2">
  <advance width="515"/>
  <outline>
    <contour>
      <point x="17" y="0" type="line"/>
      <point x="109" y="0" type="line"/>
      <point x="225" y="166" type="line"/>
      <point x="262" y="224" type="line"/>
      <point x="282" y="242" type="line"/>
      <point x="471" y="512" type="line"/>
      <point x="380" y="512" type="line"/>
      <point x="274" y="356" type="line"/>
      <point x="241" y="302" type="line"/>
      <point x="218" y="282" type="line"/>
    </contour>
    <contour>
      <point x="378" y="0" type="line"/>
      <point x="475" y="0" type="line"/>
      <point x="286" y="281" type="line"/>
      <point x="265" y="303" type="line"/>
      <point x="233" y="356" type="line"/>
      <point x="131" y="512" type="line"/>
      <point x="33" y="512" type="line"/>
      <point x="218" y="238" type="line"/>
      <point x="234" y="222" type="line"/>
      <point x="268" y="166" type="line"/>
    </contour>
  </outline>
</glyph>
<glyph name="Y.sc" format="2">
  <advance width="493"/>
  <outline>
    <contour>
      <point x="191" y="0" type="line"/>
      <point x="273" y="0" type="line"/>
      <point x="273" y="257" type="line"/>
      <point x="256" y="183" type="line"/>
      <point x="453" y="512" type="line"/>
      <point x="366" y="512" type="line"/>
      <point x="258" y="326" type="line"/>
      <point x="213" y="235" type="line"/>
      <point x="263" y="235" type="line"/>
      <point x="218" y="326" type="line"/>
      <point x="109" y="512" type="line"/>
      <point x="13" y="512" type="line"/>
      <point x="210" y="182" type="line"/>
      <point x="191" y="258" type="line"/>
    </contour>
  </outline>
</glyph>
<glyph name="a.sinf" format="2">
	<advance width="357"/>
	<outline>
		<contour>
			<point x="144" y="-179" type="curve" smooth="yes"/>
			<point x="187" y="-179"/>
			<point x="223" y="-159"/>
			<point x="245" y="-123" type="curve"/>
			<point x="250" y="-170" type="line"/>
			<point x="317" y="-170" type="line"/>
			<point x="317" y="77" type="line" smooth="yes"/>
			<point x="317" y="156"/>
			<point x="264" y="199"/>
			<point x="181" y="199" type="curve" smooth="yes"/>
			<point x="135" y="199"/>
			<point x="91" y="188"/>
			<point x="50" y="171" type="curve"/>
			<point x="50" y="108" type="line"/>
			<point x="86" y="130"/>
			<point x="124" y="140"/>
			<point x="165" y="140" type="curve" smooth="yes"/>
			<point x="217" y="140"/>
			<point x="245" y="121"/>
			<point x="245" y="78" type="curve" smooth="yes"/>
			<point x="245" y="57" type="line"/>
			<point x="170" y="47" type="line" smooth="yes"/>
			<point x="81" y="33"/>
			<point x="33" y="-9"/>
			<point x="33" y="-76" type="curve" smooth="yes"/>
			<point x="33" y="-138"/>
			<point x="75" y="-179"/>
		</contour>
		<contour>
			<point x="168" y="-121" type="curve" smooth="yes"/>
			<point x="130" y="-121"/>
			<point x="107" y="-99"/>
			<point x="107" y="-66" type="curve" smooth="yes"/>
			<point x="107" y="-30"/>
			<point x="134" y="-7"/>
			<point x="181" y="-1" type="curve" smooth="yes"/>
			<point x="245" y="8" type="line"/>
			<point x="245" y="-71" type="line"/>
			<point x="232" y="-101"/>
			<point x="203" y="-121"/>
		</contour>
	</outline>
</glyph>
<glyph name="acutecomb.uc" format="2">
	<advance width="174"/>
	<outline>
		<contour>
			<point x="30" y="715" type="line"/>
			<point x="134" y="845" type="line"/>
			<point x="49" y="845" type="line"/>
			<point x="-45" y="715" type="line"/>
		</contour>
	</outline>
</glyph>
<glyph name="ampersand.sc" format="2">
	<advance width="513"/>
	<outline>
		<contour>
			<point x="205" y="-13" type="curve" smooth="yes"/>
			<point x="268" y="-13"/>
			<point x="323" y="14"/>
			<point x="353" y="55" type="curve"/>
			<point x="367" y="76" type="line"/>
			<point x="410" y="128"/>
			<point x="434" y="205"/>
			<point x="434" y="292" type="curve"/>
			<point x="366" y="292" type="line"/>
			<point x="366" y="227"/>
			<point x="354" y="170"/>
			<point x="325" y="134" type="curve"/>
			<point x="309" y="109" type="line"/>
			<point x="285" y="75"/>
			<point x="254" y="54"/>
			<point x="205" y="54" type="curve" smooth="yes"/>
			<point x="143" y="54"/>
			<point x="100" y="96"/>
			<point x="100" y="154" type="curve" smooth="yes"/>
			<point x="100" y="202"/>
			<point x="129" y="246"/>
			<point x="178" y="268" type="curve"/>
			<point x="149" y="320" type="line"/>
			<point x="77" y="292"/>
			<point x="27" y="228"/>
			<point x="27" y="150" type="curve" smooth="yes"/>
			<point x="27" y="57"/>
			<point x="95" y="-13"/>
		</contour>
		<contour>
			<point x="381" y="0" type="line"/>
			<point x="473" y="0" type="line"/>
			<point x="222" y="288" type="line" smooth="yes"/>
			<point x="187" y="329"/>
			<point x="174" y="356"/>
			<point x="174" y="388" type="curve" smooth="yes"/>
			<point x="174" y="431"/>
			<point x="208" y="459"/>
			<point x="253" y="459" type="curve" smooth="yes"/>
			<point x="298" y="459"/>
			<point x="336" y="441"/>
			<point x="371" y="407" type="curve"/>
			<point x="371" y="483" type="line"/>
			<point x="334" y="511"/>
			<point x="290" y="525"/>
			<point x="241" y="525" type="curve" smooth="yes"/>
			<point x="155" y="525"/>
			<point x="101" y="467"/>
			<point x="101" y="391" type="curve" smooth="yes"/>
			<point x="101" y="347"/>
			<point x="126" y="301"/>
			<point x="162" y="258" type="curve" smooth="yes"/>
		</contour>
	</outline>
</glyph>
<glyph name="b.sinf" format="2">
	<advance width="406"/>
	<outline>
		<contour>
			<point x="181" y="-179" type="curve" smooth="yes"/>
			<point x="294" y="-179"/>
			<point x="366" y="-103"/>
			<point x="366" y="16" type="curve" smooth="yes"/>
			<point x="366" y="127"/>
			<point x="306" y="199"/>
			<point x="214" y="199" type="curve" smooth="yes"/>
			<point x="178" y="199"/>
			<point x="142" y="185"/>
			<point x="117" y="161" type="curve"/>
			<point x="117" y="383" type="line"/>
			<point x="44" y="383" type="line"/>
			<point x="44" y="-153" type="line"/>
			<point x="89" y="-170"/>
			<point x="134" y="-179"/>
		</contour>
		<contour>
			<point x="185" y="-118" type="curve" smooth="yes"/>
			<point x="161" y="-118"/>
			<point x="139" y="-114"/>
			<point x="117" y="-106" type="curve"/>
			<point x="117" y="102" type="line"/>
			<point x="139" y="123"/>
			<point x="163" y="133"/>
			<point x="192" y="133" type="curve" smooth="yes"/>
			<point x="253" y="133"/>
			<point x="292" y="85"/>
			<point x="292" y="11" type="curve" smooth="yes"/>
			<point x="292" y="-67"/>
			<point x="250" y="-118"/>
		</contour>
	</outline>
</glyph>
<glyph name="backslash.tab" format="2">
	<advance width="390"/>
	<outline>
		<contour>
			<point x="273" y="0" type="line"/>
			<point x="350" y="0" type="line"/>
			<point x="53" y="720" type="line"/>
			<point x="-25" y="720" type="line"/>
		</contour>
	</outline>
</glyph>
<glyph name="bitcoin.lc" format="2">
  <advance width="420"/>
  <outline>
    <contour>
      <point x="66" y="0" type="line"/>
      <point x="66" y="466" type="line"/>
      <point x="130" y="466" type="line"/>
      <point x="130" y="570" type="line"/>
      <point x="186" y="570" type="line"/>
      <point x="186" y="466" type="line"/>
      <point x="205" y="466" type="line"/>
      <point x="214" y="466"/>
      <point x="222" y="466"/>
      <point x="231" y="465" type="curve"/>
      <point x="231" y="571" type="line"/>
      <point x="287" y="571" type="line"/>
      <point x="287" y="456" type="line"/>
      <point x="340" y="440"/>
      <point x="367" y="402"/>
      <point x="367" y="350" type="curve" smooth="yes"/>
      <point x="367" y="297"/>
      <point x="332" y="255"/>
      <point x="277" y="240" type="curve"/>
      <point x="344" y="227"/>
      <point x="380" y="185"/>
      <point x="380" y="129" type="curve" smooth="yes"/>
      <point x="380" y="69"/>
      <point x="348" y="25"/>
      <point x="287" y="9" type="curve"/>
      <point x="287" y="-105" type="line"/>
      <point x="231" y="-105" type="line"/>
      <point x="231" y="1" type="line"/>
      <point x="225" y="0"/>
      <point x="218" y="0"/>
      <point x="212" y="0" type="curve"/>
      <point x="186" y="0" type="line"/>
      <point x="186" y="-105" type="line"/>
      <point x="130" y="-105" type="line"/>
      <point x="130" y="0" type="line"/>
    </contour>
    <contour>
      <point x="145" y="267" type="line"/>
      <point x="208" y="267" type="line" smooth="yes"/>
      <point x="258" y="267"/>
      <point x="290" y="290"/>
      <point x="290" y="338" type="curve" smooth="yes"/>
      <point x="290" y="382"/>
      <point x="259" y="402"/>
      <point x="210" y="402" type="curve" smooth="yes"/>
      <point x="145" y="402" type="line"/>
    </contour>
    <contour>
      <point x="145" y="64" type="line"/>
      <point x="219" y="64" type="line" smooth="yes"/>
      <point x="269" y="64"/>
      <point x="302" y="87"/>
      <point x="302" y="137" type="curve" smooth="yes"/>
      <point x="302" y="185"/>
      <point x="268" y="209"/>
      <point x="215" y="209" type="curve" smooth="yes"/>
      <point x="145" y="209" type="line"/>
    </contour>
  </outline>
</glyph>
<glyph name="bitcoin.sc" format="2">
	<advance width="442"/>
	<outline>
		<contour>
			<point x="134" y="490" type="line"/>
			<point x="192" y="490" type="line"/>
			<point x="192" y="627" type="line"/>
			<point x="134" y="627" type="line"/>
		</contour>
		<contour>
			<point x="241" y="490" type="line"/>
			<point x="299" y="490" type="line"/>
			<point x="299" y="627" type="line"/>
			<point x="241" y="627" type="line"/>
		</contour>
		<contour>
			<point x="134" y="-113" type="line"/>
			<point x="192" y="-113" type="line"/>
			<point x="192" y="24" type="line"/>
			<point x="134" y="24" type="line"/>
		</contour>
		<contour>
			<point x="241" y="-113" type="line"/>
			<point x="299" y="-113" type="line"/>
			<point x="299" y="24" type="line"/>
			<point x="241" y="24" type="line"/>
		</contour>
		<component base="B.sc"/>
	</outline>
</glyph>
<glyph name="braceleft.sc" format="2">
	<advance width="375"/>
	<outline>
		<contour>
			<point x="295" y="-70" type="curve" smooth="yes"/>
			<point x="335" y="-70" type="line"/>
			<point x="335" y="0" type="line"/>
			<point x="294" y="0" type="line" smooth="yes"/>
			<point x="241" y="0"/>
			<point x="219" y="33"/>
			<point x="229" y="82" type="curve" smooth="yes"/>
			<point x="237" y="127" type="line" smooth="yes"/>
			<point x="250" y="191"/>
			<point x="206" y="249"/>
			<point x="136" y="260" type="curve"/>
			<point x="136" y="261" type="line"/>
			<point x="206" y="271"/>
			<point x="250" y="329"/>
			<point x="237" y="394" type="curve" smooth="yes"/>
			<point x="229" y="439" type="line" smooth="yes"/>
			<point x="220" y="485"/>
			<point x="241" y="516"/>
			<point x="294" y="516" type="curve" smooth="yes"/>
			<point x="335" y="516" type="line"/>
			<point x="335" y="586" type="line"/>
			<point x="295" y="586" type="line" smooth="yes"/>
			<point x="189" y="586"/>
			<point x="128" y="535"/>
			<point x="147" y="437" type="curve" smooth="yes"/>
			<point x="156" y="391" type="line" smooth="yes"/>
			<point x="166" y="341"/>
			<point x="135" y="304"/>
			<point x="58" y="295" type="curve"/>
			<point x="58" y="225" type="line"/>
			<point x="135" y="215"/>
			<point x="166" y="179"/>
			<point x="156" y="129" type="curve" smooth="yes"/>
			<point x="147" y="84" type="line" smooth="yes"/>
			<point x="128" y="-17"/>
			<point x="188" y="-70"/>
		</contour>
	</outline>
</glyph>
<glyph name="braceleft.tab" format="2">
  <advance width="360"/>
  <outline>
    <contour>
      <point x="297" y="-61" type="curve" smooth="yes"/>
      <point x="320" y="-61" type="line"/>
      <point x="320" y="9" type="line"/>
      <point x="296" y="9" type="line" smooth="yes"/>
      <point x="229" y="9"/>
      <point x="188" y="50"/>
      <point x="195" y="125" type="curve" smooth="yes"/>
      <point x="201" y="188" type="line" smooth="yes"/>
      <point x="206" y="248"/>
      <point x="167" y="306"/>
      <point x="90" y="329" type="curve"/>
      <point x="90" y="330" type="line"/>
      <point x="167" y="348"/>
      <point x="206" y="407"/>
      <point x="201" y="470" type="curve" smooth="yes"/>
      <point x="195" y="534" type="line" smooth="yes"/>
      <point x="188" y="604"/>
      <point x="230" y="650"/>
      <point x="296" y="650" type="curve" smooth="yes"/>
      <point x="320" y="650" type="line"/>
      <point x="320" y="720" type="line"/>
      <point x="297" y="720" type="line" smooth="yes"/>
      <point x="165" y="720"/>
      <point x="102" y="646"/>
      <point x="110" y="552" type="curve" smooth="yes"/>
      <point x="116" y="485" type="line" smooth="yes"/>
      <point x="122" y="420"/>
      <point x="74" y="375"/>
      <point x="5" y="365" type="curve"/>
      <point x="5" y="294" type="line"/>
      <point x="74" y="283"/>
      <point x="122" y="240"/>
      <point x="117" y="180" type="curve" smooth="yes"/>
      <point x="111" y="112" type="line" smooth="yes"/>
      <point x="102" y="10"/>
      <point x="165" y="-61"/>
    </contour>
  </outline>
</glyph>
<glyph name="braceleft.uc" format="2">
  <advance width="426"/>
  <outline>
    <contour>
      <point x="362" y="-61" type="curve" smooth="yes"/>
      <point x="386" y="-61" type="line"/>
      <point x="386" y="9" type="line"/>
      <point x="361" y="9" type="line" smooth="yes"/>
      <point x="291" y="9"/>
      <point x="249" y="50"/>
      <point x="256" y="125" type="curve" smooth="yes"/>
      <point x="262" y="188" type="line" smooth="yes"/>
      <point x="267" y="248"/>
      <point x="227" y="306"/>
      <point x="147" y="329" type="curve"/>
      <point x="147" y="330" type="line"/>
      <point x="227" y="348"/>
      <point x="267" y="407"/>
      <point x="262" y="470" type="curve" smooth="yes"/>
      <point x="256" y="534" type="line" smooth="yes"/>
      <point x="249" y="604"/>
      <point x="292" y="650"/>
      <point x="361" y="650" type="curve" smooth="yes"/>
      <point x="386" y="650" type="line"/>
      <point x="386" y="720" type="line"/>
      <point x="362" y="720" type="line" smooth="yes"/>
      <point x="228" y="720"/>
      <point x="163" y="646"/>
      <point x="171" y="552" type="curve" smooth="yes"/>
      <point x="177" y="485" type="line" smooth="yes"/>
      <point x="183" y="420"/>
      <point x="132" y="375"/>
      <point x="58" y="365" type="curve"/>
      <point x="58" y="294" type="line"/>
      <point x="132" y="283"/>
      <point x="183" y="240"/>
      <point x="178" y="180" type="curve" smooth="yes"/>
      <point x="172" y="112" type="line" smooth="yes"/>
      <point x="163" y="10"/>
      <point x="227" y="-61"/>
    </contour>
  </outline>
</glyph>
<glyph name="braceright.tab" format="2">
	<advance width="360"/>
	<outline>
		<contour>
			<point x="5" y="-61" type="line"/>
			<point x="28" y="-61" type="line" smooth="yes"/>
			<point x="160" y="-61"/>
			<point x="223" y="13"/>
			<point x="215" y="107" type="curve" smooth="yes"/>
			<point x="209" y="174" type="line" smooth="yes"/>
			<point x="203" y="239"/>
			<point x="251" y="284"/>
			<point x="320" y="294" type="curve"/>
			<point x="320" y="365" type="line"/>
			<point x="251" y="376"/>
			<point x="203" y="419"/>
			<point x="208" y="479" type="curve" smooth="yes"/>
			<point x="214" y="547" type="line" smooth="yes"/>
			<point x="223" y="649"/>
			<point x="160" y="720"/>
			<point x="28" y="720" type="curve" smooth="yes"/>
			<point x="5" y="720" type="line"/>
			<point x="5" y="650" type="line"/>
			<point x="29" y="650" type="line" smooth="yes"/>
			<point x="96" y="650"/>
			<point x="137" y="609"/>
			<point x="130" y="534" type="curve" smooth="yes"/>
			<point x="124" y="471" type="line" smooth="yes"/>
			<point x="119" y="411"/>
			<point x="158" y="353"/>
			<point x="235" y="330" type="curve"/>
			<point x="235" y="329" type="line"/>
			<point x="158" y="311"/>
			<point x="119" y="252"/>
			<point x="124" y="189" type="curve" smooth="yes"/>
			<point x="130" y="125" type="line" smooth="yes"/>
			<point x="137" y="55"/>
			<point x="95" y="9"/>
			<point x="29" y="9" type="curve" smooth="yes"/>
			<point x="5" y="9" type="line"/>
		</contour>
	</outline>
</glyph>
<glyph name="bracketleft.tab" format="2">
	<advance width="308"/>
	<outline>
		<contour>
			<point x="57" y="-61" type="line"/>
			<point x="268" y="-61" type="line"/>
			<point x="268" y="9" type="line"/>
			<point x="137" y="9" type="line"/>
			<point x="137" y="650" type="line"/>
			<point x="268" y="650" type="line"/>
			<point x="268" y="720" type="line"/>
			<point x="57" y="720" type="line"/>
		</contour>
	</outline>
</glyph>
<glyph name="brevecmb.uc" format="2">
	<advance width="155"/>
	<outline>
		<contour>
			<point x="1" y="706" type="curve" smooth="yes"/>
			<point x="71" y="706"/>
			<point x="115" y="754"/>
			<point x="115" y="833" type="curve"/>
			<point x="63" y="833" type="line"/>
			<point x="63" y="788"/>
			<point x="39" y="760"/>
			<point x="1" y="760" type="curve" smooth="yes"/>
			<point x="-35" y="760"/>
			<point x="-59" y="788"/>
			<point x="-59" y="833" type="curve"/>
			<point x="-112" y="833" type="line"/>
			<point x="-112" y="754"/>
			<point x="-67" y="706"/>
		</contour>
	</outline>
</glyph>
<glyph name="caroncmb.vert" format="2">
  <advance width="77"/>
  <outline>
    <contour>
      <point x="-17" y="274" type="line"/>
      <point x="20" y="319"/>
      <point x="37" y="371"/>
      <point x="37" y="424" type="curve" smooth="yes"/>
      <point x="37" y="466" type="line"/>
      <point x="-36" y="466" type="line"/>
      <point x="-36" y="424" type="line" smooth="yes"/>
      <point x="-36" y="377"/>
      <point x="-46" y="343"/>
      <point x="-75" y="301" type="curve"/>
    </contour>
  </outline>
</glyph>
<glyph name="caroncmb.vert.uc" format="2">
  <advance width="77"/>
  <outline>
    <contour>
      <point x="-17" y="466" type="line"/>
      <point x="20" y="512"/>
      <point x="37" y="563"/>
      <point x="37" y="616" type="curve" smooth="yes"/>
      <point x="37" y="658" type="line"/>
      <point x="-36" y="658" type="line"/>
      <point x="-36" y="616" type="line" smooth="yes"/>
      <point x="-36" y="570"/>
      <point x="-46" y="536"/>
      <point x="-75" y="493" type="curve"/>
    </contour>
  </outline>
</glyph>
<glyph name="caroncomb.uc" format="2">
	<advance width="167"/>
	<outline>
		<contour>
			<point x="-30" y="710" type="line"/>
			<point x="32" y="710" type="line"/>
			<point x="127" y="837" type="line"/>
			<point x="60" y="837" type="line"/>
			<point x="-8" y="751" type="line"/>
			<point x="10" y="751" type="line"/>
			<point x="-58" y="837" type="line"/>
			<point x="-125" y="837" type="line"/>
		</contour>
	</outline>
</glyph>
<glyph name="cedillacmb.uc" format="2">
	<advance width="134"/>
	<outline>
		<contour>
			<point x="13" y="-202" type="curve" smooth="yes"/>
			<point x="62" y="-202"/>
			<point x="94" y="-171"/>
			<point x="94" y="-123" type="curve" smooth="yes"/>
			<point x="94" y="-75"/>
			<point x="57" y="-44"/>
			<point x="-1" y="-44" type="curve" smooth="yes"/>
			<point x="-8" y="-44" type="line"/>
			<point x="-8" y="-89" type="line"/>
			<point x="-1" y="-89" type="line" smooth="yes"/>
			<point x="22" y="-89"/>
			<point x="38" y="-102"/>
			<point x="38" y="-123" type="curve" smooth="yes"/>
			<point x="38" y="-143"/>
			<point x="24" y="-157"/>
			<point x="3" y="-157" type="curve" smooth="yes"/>
			<point x="-14" y="-157"/>
			<point x="-33" y="-151"/>
			<point x="-49" y="-140" type="curve"/>
			<point x="-49" y="-188" type="line"/>
			<point x="-30" y="-197"/>
			<point x="-8" y="-202"/>
		</contour>
	</outline>
</glyph>
<glyph name="cent.sc" format="2">
  <advance width="434"/>
  <outline>
    <contour>
      <point x="394" y="91" type="curve"/>
      <point x="394" y="175" type="line"/>
      <point x="356" y="145"/>
      <point x="308" y="127"/>
      <point x="258" y="127" type="curve" smooth="yes"/>
      <point x="175" y="127"/>
      <point x="124" y="177"/>
      <point x="124" y="255" type="curve" smooth="yes"/>
      <point x="124" y="336"/>
      <point x="172" y="384"/>
      <point x="255" y="384" type="curve" smooth="yes"/>
      <point x="304" y="384"/>
      <point x="349" y="369"/>
      <point x="392" y="341" type="curve"/>
      <point x="392" y="425" type="line"/>
      <point x="348" y="448"/>
      <point x="298" y="461"/>
      <point x="251" y="461" type="curve" smooth="yes"/>
      <point x="124" y="461"/>
      <point x="41" y="381"/>
      <point x="41" y="254" type="curve" smooth="yes"/>
      <point x="41" y="131"/>
      <point x="127" y="51"/>
      <point x="253" y="51" type="curve" smooth="yes"/>
      <point x="303" y="51"/>
      <point x="353" y="65"/>
    </contour>
    <contour>
      <point x="213" y="0" type="line"/>
      <point x="283" y="0" type="line"/>
      <point x="283" y="512" type="line"/>
      <point x="213" y="512" type="line"/>
    </contour>
  </outline>
</glyph>
<glyph name="circumflexcmb.uc" format="2">
  <advance width="167"/>
  <outline>
    <contour>
      <point x="-58" y="715" type="line"/>
      <point x="10" y="800" type="line"/>
      <point x="-8" y="800" type="line"/>
      <point x="60" y="715" type="line"/>
      <point x="127" y="715" type="line"/>
      <point x="32" y="842" type="line"/>
      <point x="-30" y="842" type="line"/>
      <point x="-125" y="715" type="line"/>
    </contour>
  </outline>
</glyph>
<glyph name="commaaccentcmb.uc" format="2">
  <advance width="74"/>
  <outline>
    <contour>
      <point x="-17" y="-229" type="line"/>
      <point x="18" y="-186"/>
      <point x="34" y="-138"/>
      <point x="34" y="-88" type="curve" smooth="yes"/>
      <point x="34" y="-48" type="line"/>
      <point x="-34" y="-48" type="line"/>
      <point x="-34" y="-88" type="line" smooth="yes"/>
      <point x="-34" y="-132"/>
      <point x="-43" y="-164"/>
      <point x="-71" y="-204" type="curve"/>
    </contour>
  </outline>
</glyph>
<glyph name="d.sinf" format="2">
	<advance width="394"/>
	<outline>
		<contour>
			<point x="179" y="-179" type="curve" smooth="yes"/>
			<point x="222" y="-179"/>
			<point x="260" y="-159"/>
			<point x="282" y="-122" type="curve"/>
			<point x="287" y="-170" type="line"/>
			<point x="354" y="-170" type="line"/>
			<point x="354" y="383" type="line"/>
			<point x="281" y="383" type="line"/>
			<point x="281" y="172" type="line"/>
			<point x="255" y="189"/>
			<point x="224" y="199"/>
			<point x="194" y="199" type="curve" smooth="yes"/>
			<point x="95" y="199"/>
			<point x="28" y="127"/>
			<point x="28" y="6" type="curve" smooth="yes"/>
			<point x="28" y="-113"/>
			<point x="91" y="-179"/>
		</contour>
		<contour>
			<point x="199" y="-115" type="curve" smooth="yes"/>
			<point x="139" y="-115"/>
			<point x="102" y="-67"/>
			<point x="102" y="9" type="curve" smooth="yes"/>
			<point x="102" y="84"/>
			<point x="141" y="134"/>
			<point x="205" y="134" type="curve" smooth="yes"/>
			<point x="232" y="134"/>
			<point x="260" y="124"/>
			<point x="281" y="106" type="curve"/>
			<point x="281" y="-68" type="line"/>
			<point x="265" y="-97"/>
			<point x="235" y="-115"/>
		</contour>
	</outline>
</glyph>
<glyph name="dieresiscomb.uc" format="2">
	<advance width="153"/>
	<outline>
		<contour>
			<point x="-113" y="715" type="line"/>
			<point x="-38" y="715" type="line"/>
			<point x="-38" y="791" type="line"/>
			<point x="-113" y="791" type="line"/>
		</contour>
		<contour>
			<point x="38" y="715" type="line"/>
			<point x="113" y="715" type="line"/>
			<point x="113" y="791" type="line"/>
			<point x="38" y="791" type="line"/>
		</contour>
	</outline>
</glyph>
<glyph name="dollar.sc" format="2">
  <advance width="437"/>
  <outline>
    <contour>
      <point x="188" y="264" type="line"/>
      <point x="258" y="260" type="line"/>
      <point x="258" y="612" type="line"/>
      <point x="188" y="612" type="line"/>
    </contour>
    <contour>
      <point x="188" y="-99" type="line"/>
      <point x="258" y="-99" type="line"/>
      <point x="258" y="243" type="line"/>
      <point x="188" y="247" type="line"/>
    </contour>
    <component base="S.sc" xOffset="6"/>
  </outline>
</glyph>
<glyph name="e.sinf" format="2">
	<advance width="395"/>
	<outline>
		<contour>
			<point x="211" y="-179" type="curve" smooth="yes"/>
			<point x="253" y="-179"/>
			<point x="302" y="-166"/>
			<point x="346" y="-142" type="curve"/>
			<point x="346" y="-77" type="line"/>
			<point x="307" y="-103"/>
			<point x="263" y="-116"/>
			<point x="222" y="-116" type="curve" smooth="yes"/>
			<point x="145" y="-116"/>
			<point x="103" y="-74"/>
			<point x="103" y="-4" type="curve" smooth="yes"/>
			<point x="103" y="34" type="line" smooth="yes"/>
			<point x="103" y="99"/>
			<point x="139" y="143"/>
			<point x="194" y="143" type="curve" smooth="yes"/>
			<point x="249" y="143"/>
			<point x="283" y="107"/>
			<point x="283" y="44" type="curve"/>
			<point x="90" y="44" type="line"/>
			<point x="90" y="-6" type="line"/>
			<point x="355" y="-6" type="line"/>
			<point x="355" y="20" type="line" smooth="yes"/>
			<point x="355" y="131"/>
			<point x="296" y="199"/>
			<point x="196" y="199" type="curve" smooth="yes"/>
			<point x="93" y="199"/>
			<point x="28" y="124"/>
			<point x="28" y="11" type="curve" smooth="yes"/>
			<point x="28" y="-106"/>
			<point x="94" y="-179"/>
		</contour>
	</outline>
</glyph>
<glyph name="egrave.sinf" format="2">
  <advance width="395"/>
  <outline>
    <contour>
      <point x="167" y="237" type="line"/>
      <point x="236" y="237" type="line"/>
      <point x="138" y="362" type="line"/>
      <point x="66" y="362" type="line"/>
    </contour>
    <component base="e.sinf"/>
  </outline>
</glyph>
<glyph name="eight.dnom" format="2">
	<advance width="335"/>
	<outline>
		<contour>
			<point x="164" y="-8" type="curve" smooth="yes"/>
			<point x="247" y="-8"/>
			<point x="295" y="31"/>
			<point x="295" y="96" type="curve" smooth="yes"/>
			<point x="295" y="157"/>
			<point x="247" y="188"/>
			<point x="176" y="209" type="curve" smooth="yes"/>
			<point x="164" y="212" type="line" smooth="yes"/>
			<point x="131" y="221"/>
			<point x="106" y="240"/>
			<point x="106" y="268" type="curve" smooth="yes"/>
			<point x="106" y="296"/>
			<point x="131" y="318"/>
			<point x="164" y="318" type="curve" smooth="yes"/>
			<point x="198" y="318"/>
			<point x="221" y="297"/>
			<point x="221" y="269" type="curve" smooth="yes"/>
			<point x="221" y="241"/>
			<point x="197" y="216"/>
			<point x="165" y="207" type="curve" smooth="yes"/>
			<point x="157" y="205" type="line"/>
			<point x="176" y="171" type="line"/>
			<point x="184" y="173" type="line" smooth="yes"/>
			<point x="252" y="194"/>
			<point x="290" y="227"/>
			<point x="290" y="272" type="curve" smooth="yes"/>
			<point x="290" y="330"/>
			<point x="238" y="368"/>
			<point x="164" y="368" type="curve" smooth="yes"/>
			<point x="88" y="368"/>
			<point x="37" y="327"/>
			<point x="37" y="267" type="curve" smooth="yes"/>
			<point x="37" y="215"/>
			<point x="82" y="179"/>
			<point x="153" y="160" type="curve" smooth="yes"/>
			<point x="164" y="157" type="line" smooth="yes"/>
			<point x="200" y="148"/>
			<point x="225" y="128"/>
			<point x="225" y="96" type="curve" smooth="yes"/>
			<point x="225" y="64"/>
			<point x="200" y="42"/>
			<point x="164" y="42" type="curve" smooth="yes"/>
			<point x="129" y="42"/>
			<point x="103" y="63"/>
			<point x="103" y="96" type="curve" smooth="yes"/>
			<point x="103" y="127"/>
			<point x="126" y="151"/>
			<point x="161" y="161" type="curve" smooth="yes"/>
			<point x="168" y="163" type="line"/>
			<point x="148" y="197" type="line"/>
			<point x="141" y="195" type="line" smooth="yes"/>
			<point x="71" y="175"/>
			<point x="33" y="141"/>
			<point x="33" y="89" type="curve" smooth="yes"/>
			<point x="33" y="30"/>
			<point x="82" y="-8"/>
		</contour>
	</outline>
</glyph>
<glyph name="eight.sc" format="2">
  <advance width="439"/>
  <outline>
    <contour>
      <point x="220" y="-13" type="curve" smooth="yes"/>
      <point x="330" y="-13"/>
      <point x="399" y="46"/>
      <point x="399" y="138" type="curve" smooth="yes"/>
      <point x="399" y="211"/>
      <point x="346" y="267"/>
      <point x="244" y="296" type="curve" smooth="yes"/>
      <point x="217" y="303" type="line" smooth="yes"/>
      <point x="166" y="319"/>
      <point x="135" y="348"/>
      <point x="135" y="386" type="curve" smooth="yes"/>
      <point x="135" y="434"/>
      <point x="171" y="464"/>
      <point x="220" y="464" type="curve" smooth="yes"/>
      <point x="270" y="464"/>
      <point x="306" y="435"/>
      <point x="306" y="390" type="curve" smooth="yes"/>
      <point x="306" y="348"/>
      <point x="271" y="312"/>
      <point x="216" y="292" type="curve"/>
      <point x="242" y="250" type="line"/>
      <point x="341" y="274"/>
      <point x="390" y="329"/>
      <point x="390" y="398" type="curve" smooth="yes"/>
      <point x="390" y="478"/>
      <point x="323" y="529"/>
      <point x="220" y="529" type="curve" smooth="yes"/>
      <point x="117" y="529"/>
      <point x="51" y="474"/>
      <point x="51" y="387" type="curve" smooth="yes"/>
      <point x="51" y="310"/>
      <point x="105" y="262"/>
      <point x="196" y="236" type="curve" smooth="yes"/>
      <point x="223" y="228" type="line" smooth="yes"/>
      <point x="280" y="211"/>
      <point x="315" y="182"/>
      <point x="315" y="139" type="curve" smooth="yes"/>
      <point x="315" y="87"/>
      <point x="276" y="52"/>
      <point x="221" y="52" type="curve" smooth="yes"/>
      <point x="165" y="52"/>
      <point x="127" y="85"/>
      <point x="127" y="133" type="curve" smooth="yes"/>
      <point x="127" y="180"/>
      <point x="163" y="216"/>
      <point x="221" y="235" type="curve"/>
      <point x="196" y="279" type="line"/>
      <point x="96" y="256"/>
      <point x="42" y="201"/>
      <point x="42" y="122" type="curve" smooth="yes"/>
      <point x="42" y="42"/>
      <point x="111" y="-13"/>
    </contour>
  </outline>
</glyph>
<glyph name="euro.lc" format="2">
	<advance width="502"/>
	<outline>
		<contour>
			<point x="33" y="169" type="line"/>
			<point x="317" y="169" type="line"/>
			<point x="317" y="212" type="line"/>
			<point x="33" y="212" type="line"/>
		</contour>
		<contour>
			<point x="33" y="258" type="line"/>
			<point x="317" y="258" type="line"/>
			<point x="317" y="301" type="line"/>
			<point x="33" y="301" type="line"/>
		</contour>
		<component base="c" xOffset="40"/>
	</outline>
</glyph>
<glyph name="f.sinf" format="2">
	<advance width="318"/>
	<outline>
		<contour>
			<point x="69" y="-170" type="line"/>
			<point x="142" y="-170" type="line"/>
			<point x="142" y="126" type="line"/>
			<point x="216" y="126" type="line"/>
			<point x="216" y="190" type="line"/>
			<point x="142" y="190" type="line"/>
			<point x="141" y="244" type="line" smooth="yes"/>
			<point x="140" y="293"/>
			<point x="167" y="320"/>
			<point x="209" y="320" type="curve" smooth="yes"/>
			<point x="232" y="320"/>
			<point x="256" y="314"/>
			<point x="278" y="302" type="curve"/>
			<point x="278" y="371" type="line"/>
			<point x="253" y="382"/>
			<point x="225" y="387"/>
			<point x="198" y="387" type="curve" smooth="yes"/>
			<point x="117" y="387"/>
			<point x="69" y="331"/>
			<point x="69" y="246" type="curve" smooth="yes"/>
			<point x="69" y="190" type="line"/>
			<point x="15" y="190" type="line"/>
			<point x="15" y="126" type="line"/>
			<point x="69" y="126" type="line"/>
		</contour>
	</outline>
</glyph>
<glyph name="five.sc" format="2">
	<advance width="420"/>
	<outline>
		<contour>
			<point x="201" y="-10" type="curve" smooth="yes"/>
			<point x="312" y="-10"/>
			<point x="380" y="55"/>
			<point x="380" y="155" type="curve" smooth="yes"/>
			<point x="380" y="251"/>
			<point x="312" y="312"/>
			<point x="205" y="312" type="curve" smooth="yes"/>
			<point x="175" y="312"/>
			<point x="137" y="307"/>
			<point x="108" y="299" type="curve"/>
			<point x="124" y="289" type="line"/>
			<point x="134" y="431" type="line"/>
			<point x="355" y="431" type="line"/>
			<point x="355" y="512" type="line"/>
			<point x="65" y="512" type="line"/>
			<point x="48" y="219" type="line"/>
			<point x="100" y="234"/>
			<point x="147" y="239"/>
			<point x="190" y="239" type="curve" smooth="yes"/>
			<point x="256" y="239"/>
			<point x="296" y="205"/>
			<point x="296" y="153" type="curve" smooth="yes"/>
			<point x="296" y="101"/>
			<point x="257" y="65"/>
			<point x="195" y="65" type="curve" smooth="yes"/>
			<point x="138" y="65"/>
			<point x="85" y="83"/>
			<point x="40" y="114" type="curve"/>
			<point x="40" y="33" type="line"/>
			<point x="88" y="6"/>
			<point x="144" y="-10"/>
		</contour>
	</outline>
</glyph>
<glyph name="g.sinf" format="2">
	<advance width="395"/>
	<outline>
		<contour>
			<point x="190" y="-328" type="curve" smooth="yes"/>
			<point x="287" y="-328"/>
			<point x="355" y="-264"/>
			<point x="355" y="-161" type="curve"/>
			<point x="355" y="190" type="line"/>
			<point x="320" y="190" type="line"/>
			<point x="305" y="156" type="line"/>
			<point x="281" y="183"/>
			<point x="236" y="199"/>
			<point x="198" y="199" type="curve" smooth="yes"/>
			<point x="99" y="199"/>
			<point x="28" y="130"/>
			<point x="28" y="6" type="curve" smooth="yes"/>
			<point x="28" y="-111"/>
			<point x="89" y="-179"/>
			<point x="184" y="-179" type="curve" smooth="yes"/>
			<point x="222" y="-179"/>
			<point x="258" y="-163"/>
			<point x="282" y="-133" type="curve"/>
			<point x="282" y="-165" type="line" smooth="yes"/>
			<point x="282" y="-231"/>
			<point x="236" y="-266"/>
			<point x="175" y="-266" type="curve" smooth="yes"/>
			<point x="130" y="-266"/>
			<point x="87" y="-252"/>
			<point x="51" y="-229" type="curve"/>
			<point x="51" y="-297" type="line"/>
			<point x="95" y="-316"/>
			<point x="144" y="-328"/>
		</contour>
		<contour>
			<point x="199" y="-115" type="curve" smooth="yes"/>
			<point x="138" y="-115"/>
			<point x="102" y="-66"/>
			<point x="102" y="8" type="curve" smooth="yes"/>
			<point x="102" y="83"/>
			<point x="140" y="134"/>
			<point x="205" y="134" type="curve" smooth="yes"/>
			<point x="232" y="134"/>
			<point x="264" y="123"/>
			<point x="281" y="105" type="curve"/>
			<point x="281" y="-73" type="line"/>
			<point x="264" y="-99"/>
			<point x="236" y="-115"/>
		</contour>
	</outline>
</glyph>
<glyph name="guillemetright.uc" format="2">
	<advance width="521"/>
	<outline>
		<contour>
			<point x="40" y="147" type="line"/>
			<point x="138" y="147" type="line"/>
			<point x="293" y="306" type="line"/>
			<point x="138" y="466" type="line"/>
			<point x="40" y="466" type="line"/>
			<point x="194" y="306" type="line" smooth="yes"/>
		</contour>
		<contour>
			<point x="228" y="147" type="line"/>
			<point x="326" y="147" type="line"/>
			<point x="481" y="306" type="line"/>
			<point x="326" y="466" type="line"/>
			<point x="228" y="466" type="line"/>
			<point x="382" y="306" type="line" smooth="yes"/>
		</contour>
	</outline>
</glyph>
<glyph name="guillemotleft.uc" format="2">
	<advance width="521"/>
	<outline>
		<contour>
			<point x="195" y="147" type="line"/>
			<point x="293" y="147" type="line"/>
			<point x="138" y="306" type="line" smooth="yes"/>
			<point x="293" y="466" type="line"/>
			<point x="195" y="466" type="line"/>
			<point x="40" y="306" type="line"/>
		</contour>
		<contour>
			<point x="383" y="147" type="line"/>
			<point x="481" y="147" type="line"/>
			<point x="326" y="306" type="line" smooth="yes"/>
			<point x="481" y="466" type="line"/>
			<point x="383" y="466" type="line"/>
			<point x="228" y="306" type="line"/>
		</contour>
	</outline>
</glyph>
<glyph name="hungarumlautcmb.uc" format="2">
  <advance width="239"/>
  <outline>
    <contour>
      <point x="-102" y="715" type="line"/>
      <point x="-35" y="715" type="line"/>
      <point x="60" y="844" type="line"/>
      <point x="-15" y="844" type="line"/>
    </contour>
    <contour>
      <point x="32" y="715" type="line"/>
      <point x="99" y="715" type="line"/>
      <point x="199" y="844" type="line"/>
      <point x="125" y="844" type="line"/>
    </contour>
  </outline>
</glyph>
<glyph name="j.sinf" format="2">
	<advance width="161"/>
	<outline>
		<contour>
			<point x="-22" y="-317" type="line" smooth="yes"/>
			<point x="64" y="-317"/>
			<point x="120" y="-260"/>
			<point x="120" y="-175" type="curve" smooth="yes"/>
			<point x="120" y="190" type="line"/>
			<point x="47" y="190" type="line"/>
			<point x="47" y="-175" type="line" smooth="yes"/>
			<point x="47" y="-223"/>
			<point x="20" y="-253"/>
			<point x="-22" y="-253" type="curve" smooth="yes"/>
			<point x="-29" y="-253" type="line"/>
			<point x="-29" y="-317" type="line"/>
		</contour>
		<contour>
			<point x="45" y="286" type="line"/>
			<point x="121" y="286" type="line"/>
			<point x="121" y="357" type="line"/>
			<point x="45" y="357" type="line"/>
		</contour>
	</outline>
</glyph>
<glyph name="k.sinf" format="2">
	<advance width="397"/>
	<outline>
		<contour>
			<point x="44" y="-170" type="line"/>
			<point x="117" y="-170" type="line"/>
			<point x="117" y="13" type="line"/>
			<point x="104" y="13" type="line"/>
			<point x="267" y="-170" type="line"/>
			<point x="357" y="-170" type="line"/>
			<point x="178" y="33" type="line"/>
			<point x="178" y="9" type="line"/>
			<point x="343" y="190" type="line"/>
			<point x="257" y="190" type="line"/>
			<point x="104" y="18" type="line"/>
			<point x="117" y="18" type="line"/>
			<point x="117" y="381" type="line"/>
			<point x="44" y="381" type="line"/>
		</contour>
	</outline>
</glyph>
<glyph name="m.sinf" format="2">
  <advance width="608"/>
  <outline>
    <contour>
      <point x="44" y="-170" type="line"/>
      <point x="117" y="-170" type="line"/>
      <point x="117" y="86" type="line"/>
      <point x="134" y="114"/>
      <point x="161" y="132"/>
      <point x="195" y="132" type="curve" smooth="yes"/>
      <point x="243" y="132"/>
      <point x="270" y="102"/>
      <point x="270" y="54" type="curve" smooth="yes"/>
      <point x="270" y="-170" type="line"/>
      <point x="342" y="-170" type="line"/>
      <point x="342" y="74" type="line" smooth="yes"/>
      <point x="342" y="149"/>
      <point x="296" y="199"/>
      <point x="222" y="199" type="curve" smooth="yes"/>
      <point x="177" y="199"/>
      <point x="144" y="180"/>
      <point x="117" y="144" type="curve"/>
      <point x="117" y="190" type="line"/>
      <point x="44" y="190" type="line"/>
    </contour>
    <contour>
      <point x="494" y="-170" type="line"/>
      <point x="568" y="-170" type="line"/>
      <point x="568" y="73" type="line" smooth="yes"/>
      <point x="568" y="150"/>
      <point x="519" y="199"/>
      <point x="447" y="199" type="curve" smooth="yes"/>
      <point x="399" y="199"/>
      <point x="357" y="178"/>
      <point x="323" y="129" type="curve"/>
      <point x="331" y="79" type="line"/>
      <point x="352" y="112"/>
      <point x="383" y="132"/>
      <point x="419" y="132" type="curve" smooth="yes"/>
      <point x="466" y="132"/>
      <point x="494" y="103"/>
      <point x="494" y="54" type="curve" smooth="yes"/>
    </contour>
  </outline>
</glyph>
<glyph name="macroncmb" format="2">
	<advance width="155"/>
	<outline>
		<contour>
			<point x="-112" y="532" type="line"/>
			<point x="115" y="532" type="line"/>
			<point x="115" y="598" type="line"/>
			<point x="-112" y="598" type="line"/>
		</contour>
	</outline>
</glyph>
<glyph name="macroncomb.uc" format="2">
	<advance width="150"/>
	<outline>
		<contour>
			<point x="-105" y="715" type="line"/>
			<point x="110" y="715" type="line"/>
			<point x="110" y="776" type="line"/>
			<point x="-105" y="776" type="line"/>
		</contour>
	</outline>
</glyph>
<glyph name="nine.lc" format="2">
	<advance width="527"/>
	<outline>
		<contour>
			<point x="235" y="-216" type="line"/>
			<point x="396" y="-107"/>
			<point x="487" y="62"/>
			<point x="487" y="238" type="curve" smooth="yes"/>
			<point x="487" y="389"/>
			<point x="397" y="483"/>
			<point x="271" y="483" type="curve" smooth="yes"/>
			<point x="143" y="483"/>
			<point x="46" y="388"/>
			<point x="46" y="253" type="curve" smooth="yes"/>
			<point x="46" y="132"/>
			<point x="132" y="40"/>
			<point x="247" y="40" type="curve" smooth="yes"/>
			<point x="334" y="40"/>
			<point x="406" y="91"/>
			<point x="422" y="195" type="curve"/>
			<point x="401" y="213" type="line"/>
			<point x="401" y="82"/>
			<point x="328" y="-66"/>
			<point x="140" y="-198" type="curve"/>
		</contour>
		<contour>
			<point x="263" y="112" type="curve" smooth="yes"/>
			<point x="183" y="112"/>
			<point x="130" y="176"/>
			<point x="130" y="256" type="curve" smooth="yes"/>
			<point x="130" y="344"/>
			<point x="185" y="408"/>
			<point x="267" y="408" type="curve" smooth="yes"/>
			<point x="350" y="408"/>
			<point x="402" y="339"/>
			<point x="402" y="239" type="curve" smooth="yes"/>
			<point x="402" y="166"/>
			<point x="340" y="112"/>
		</contour>
	</outline>
</glyph>
<glyph name="nine.salt" format="2">
  <advance width="536"/>
  <outline>
    <contour>
      <point x="245" y="-19" type="line"/>
      <point x="405" y="89"/>
      <point x="496" y="260"/>
      <point x="496" y="424" type="curve" smooth="yes"/>
      <point x="496" y="576"/>
      <point x="403" y="671"/>
      <point x="275" y="671" type="curve" smooth="yes"/>
      <point x="147" y="671"/>
      <point x="51" y="577"/>
      <point x="51" y="442" type="curve" smooth="yes"/>
      <point x="51" y="322"/>
      <point x="137" y="231"/>
      <point x="253" y="231" type="curve" smooth="yes"/>
      <point x="341" y="231"/>
      <point x="417" y="279"/>
      <point x="432" y="383" type="curve"/>
      <point x="409" y="404" type="line"/>
      <point x="409" y="273"/>
      <point x="349" y="139"/>
      <point x="150" y="5" type="curve"/>
    </contour>
    <contour>
      <point x="270" y="303" type="curve" smooth="yes"/>
      <point x="189" y="303"/>
      <point x="136" y="367"/>
      <point x="136" y="446" type="curve" smooth="yes"/>
      <point x="136" y="534"/>
      <point x="191" y="597"/>
      <point x="275" y="597" type="curve" smooth="yes"/>
      <point x="359" y="597"/>
      <point x="410" y="529"/>
      <point x="410" y="432" type="curve" smooth="yes"/>
      <point x="410" y="357"/>
      <point x="349" y="303"/>
    </contour>
  </outline>
</glyph>
<glyph name="nine.sc" format="2">
	<advance width="452"/>
	<outline>
		<contour>
			<point x="182" y="-14" type="curve" smooth="yes"/>
			<point x="320" y="-14"/>
			<point x="412" y="92"/>
			<point x="412" y="302" type="curve" smooth="yes"/>
			<point x="412" y="451"/>
			<point x="335" y="525"/>
			<point x="225" y="525" type="curve" smooth="yes"/>
			<point x="120" y="525"/>
			<point x="40" y="459"/>
			<point x="40" y="345" type="curve" smooth="yes"/>
			<point x="40" y="245"/>
			<point x="109" y="179"/>
			<point x="208" y="179" type="curve" smooth="yes"/>
			<point x="277" y="179"/>
			<point x="337" y="217"/>
			<point x="350" y="299" type="curve"/>
			<point x="332" y="290" type="line"/>
			<point x="332" y="130"/>
			<point x="271" y="58"/>
			<point x="176" y="58" type="curve" smooth="yes"/>
			<point x="139" y="58"/>
			<point x="101" y="69"/>
			<point x="70" y="84" type="curve"/>
			<point x="70" y="7" type="line"/>
			<point x="104" y="-6"/>
			<point x="144" y="-14"/>
		</contour>
		<contour>
			<point x="220" y="244" type="curve" smooth="yes"/>
			<point x="160" y="244"/>
			<point x="121" y="290"/>
			<point x="121" y="348" type="curve" smooth="yes"/>
			<point x="121" y="412"/>
			<point x="163" y="457"/>
			<point x="224" y="457" type="curve" smooth="yes"/>
			<point x="291" y="457"/>
			<point x="330" y="407"/>
			<point x="331" y="331" type="curve"/>
			<point x="325" y="280"/>
			<point x="280" y="244"/>
		</contour>
	</outline>
</glyph>
<glyph name="nine.tab" format="2">
  <advance width="588"/>
  <outline>
    <contour>
      <point x="273" y="-12" type="curve" smooth="yes"/>
      <point x="439" y="-12"/>
      <point x="548" y="120"/>
      <point x="548" y="388" type="curve" smooth="yes"/>
      <point x="548" y="584"/>
      <point x="455" y="671"/>
      <point x="327" y="671" type="curve" smooth="yes"/>
      <point x="199" y="671"/>
      <point x="102" y="587"/>
      <point x="102" y="443" type="curve" smooth="yes"/>
      <point x="102" y="315"/>
      <point x="187" y="230"/>
      <point x="307" y="230" type="curve" smooth="yes"/>
      <point x="393" y="230"/>
      <point x="469" y="279"/>
      <point x="484" y="382" type="curve"/>
      <point x="464" y="374" type="line"/>
      <point x="464" y="163"/>
      <point x="387" y="66"/>
      <point x="267" y="66" type="curve" smooth="yes"/>
      <point x="221" y="66"/>
      <point x="173" y="80"/>
      <point x="135" y="99" type="curve"/>
      <point x="135" y="14" type="line"/>
      <point x="176" y="-2"/>
      <point x="227" y="-12"/>
    </contour>
    <contour>
      <point x="321" y="303" type="curve" smooth="yes"/>
      <point x="240" y="303"/>
      <point x="187" y="367"/>
      <point x="187" y="447" type="curve" smooth="yes"/>
      <point x="187" y="534"/>
      <point x="242" y="597"/>
      <point x="326" y="597" type="curve" smooth="yes"/>
      <point x="410" y="597"/>
      <point x="461" y="527"/>
      <point x="462" y="422" type="curve"/>
      <point x="454" y="354"/>
      <point x="397" y="303"/>
    </contour>
  </outline>
</glyph>
<glyph name="nine.tab_lc" format="2">
  <advance width="583"/>
  <outline>
    <contour>
      <point x="294" y="-213" type="line"/>
      <point x="456" y="-104"/>
      <point x="543" y="64"/>
      <point x="543" y="239" type="curve" smooth="yes"/>
      <point x="543" y="405"/>
      <point x="454" y="483"/>
      <point x="329" y="483" type="curve" smooth="yes"/>
      <point x="203" y="483"/>
      <point x="108" y="404"/>
      <point x="108" y="254" type="curve" smooth="yes"/>
      <point x="108" y="120"/>
      <point x="192" y="42"/>
      <point x="306" y="42" type="curve" smooth="yes"/>
      <point x="392" y="42"/>
      <point x="464" y="93"/>
      <point x="480" y="197" type="curve"/>
      <point x="460" y="215" type="line"/>
      <point x="460" y="84"/>
      <point x="387" y="-63"/>
      <point x="200" y="-195" type="curve"/>
    </contour>
    <contour>
      <point x="322" y="114" type="curve" smooth="yes"/>
      <point x="241" y="114"/>
      <point x="190" y="177"/>
      <point x="190" y="258" type="curve" smooth="yes"/>
      <point x="190" y="347"/>
      <point x="244" y="409"/>
      <point x="327" y="409" type="curve" smooth="yes"/>
      <point x="412" y="409"/>
      <point x="461" y="341"/>
      <point x="461" y="241" type="curve" smooth="yes"/>
      <point x="461" y="168"/>
      <point x="401" y="114"/>
    </contour>
  </outline>
</glyph>
<glyph name="numbersign.sc" format="2">
  <advance width="561"/>
  <outline>
    <contour>
      <point x="131" y="0" type="line"/>
      <point x="202" y="0" type="line"/>
      <point x="270" y="511" type="line"/>
      <point x="198" y="511" type="line"/>
    </contour>
    <contour>
      <point x="309" y="0" type="line"/>
      <point x="380" y="0" type="line"/>
      <point x="447" y="511" type="line"/>
      <point x="376" y="511" type="line"/>
    </contour>
    <contour>
      <point x="66" y="316" type="line"/>
      <point x="521" y="316" type="line"/>
      <point x="521" y="388" type="line"/>
      <point x="66" y="388" type="line"/>
    </contour>
    <contour>
      <point x="50" y="124" type="line"/>
      <point x="506" y="124" type="line"/>
      <point x="506" y="196" type="line"/>
      <point x="50" y="196" type="line"/>
    </contour>
  </outline>
</glyph>
<glyph name="o.sinf" format="2">
	<advance width="438"/>
	<outline>
		<contour>
			<point x="214" y="-179" type="curve" smooth="yes"/>
			<point x="326" y="-179"/>
			<point x="398" y="-105"/>
			<point x="398" y="10" type="curve" smooth="yes"/>
			<point x="398" y="125"/>
			<point x="326" y="199"/>
			<point x="214" y="199" type="curve" smooth="yes"/>
			<point x="101" y="199"/>
			<point x="28" y="125"/>
			<point x="28" y="9" type="curve" smooth="yes"/>
			<point x="28" y="-105"/>
			<point x="101" y="-179"/>
		</contour>
		<contour>
			<point x="214" y="-114" type="curve" smooth="yes"/>
			<point x="146" y="-114"/>
			<point x="102" y="-66"/>
			<point x="102" y="10" type="curve" smooth="yes"/>
			<point x="102" y="86"/>
			<point x="146" y="134"/>
			<point x="214" y="134" type="curve" smooth="yes"/>
			<point x="280" y="134"/>
			<point x="324" y="86"/>
			<point x="324" y="9" type="curve" smooth="yes"/>
			<point x="324" y="-66"/>
			<point x="280" y="-114"/>
		</contour>
	</outline>
</glyph>
<glyph name="oslashacute_AT_weight800" format="2">
	<advance width="554"/>
	<outline>
		<contour>
			<point x="358" y="427" type="line"/>
			<point x="412" y="398" type="line"/>
			<point x="482" y="514" type="line"/>
			<point x="410" y="514" type="line"/>
		</contour>
		<contour>
			<point x="71" y="-48" type="line"/>
			<point x="143" y="-48" type="line"/>
			<point x="198" y="43" type="line"/>
			<point x="147" y="77" type="line"/>
		</contour>
		<component base="o"/>
		<component base="acutecmb" xOffset="283" yOffset="-1"/>
	</outline>
</glyph>
<glyph name="p.sinf" format="2">
	<advance width="407"/>
	<outline>
		<contour>
			<point x="44" y="-322" type="line"/>
			<point x="117" y="-322" type="line"/>
			<point x="117" y="-160" type="line"/>
			<point x="140" y="-172"/>
			<point x="169" y="-179"/>
			<point x="196" y="-179" type="curve" smooth="yes"/>
			<point x="299" y="-179"/>
			<point x="367" y="-103"/>
			<point x="367" y="17" type="curve" smooth="yes"/>
			<point x="367" y="126"/>
			<point x="308" y="199"/>
			<point x="218" y="199" type="curve" smooth="yes"/>
			<point x="176" y="199"/>
			<point x="139" y="180"/>
			<point x="117" y="149" type="curve"/>
			<point x="117" y="190" type="line"/>
			<point x="44" y="190" type="line"/>
		</contour>
		<contour>
			<point x="188" y="-117" type="curve" smooth="yes"/>
			<point x="162" y="-117"/>
			<point x="138" y="-110"/>
			<point x="117" y="-97" type="curve"/>
			<point x="117" y="95" type="line"/>
			<point x="132" y="118"/>
			<point x="163" y="133"/>
			<point x="194" y="133" type="curve"/>
			<point x="254" y="133"/>
			<point x="293" y="86"/>
			<point x="293" y="12" type="curve" smooth="yes"/>
			<point x="293" y="-68"/>
			<point x="250" y="-117"/>
		</contour>
	</outline>
</glyph>
<glyph name="paragraph.lc" format="2">
  <advance width="437"/>
  <outline>
    <contour>
      <point x="137" y="-215" type="line"/>
      <point x="214" y="-215" type="line"/>
      <point x="214" y="391" type="line"/>
      <point x="320" y="391" type="line"/>
      <point x="320" y="-215" type="line"/>
      <point x="397" y="-215" type="line"/>
      <point x="397" y="466" type="line"/>
      <point x="146" y="466" type="line" smooth="yes"/>
      <point x="76" y="466"/>
      <point x="31" y="426"/>
      <point x="31" y="363" type="curve" smooth="yes"/>
      <point x="31" y="301"/>
      <point x="72" y="263"/>
      <point x="137" y="263" type="curve"/>
    </contour>
  </outline>
</glyph>
<glyph name="parenleft.sc" format="2">
	<advance width="315"/>
	<outline>
		<contour>
			<point x="180" y="-70" type="curve"/>
			<point x="275" y="-70" type="line"/>
			<point x="191" y="17"/>
			<point x="140" y="138"/>
			<point x="140" y="258" type="curve" smooth="yes"/>
			<point x="140" y="380"/>
			<point x="191" y="500"/>
			<point x="275" y="586" type="curve"/>
			<point x="180" y="586" type="line"/>
			<point x="104" y="501"/>
			<point x="58" y="380"/>
			<point x="58" y="258" type="curve" smooth="yes"/>
			<point x="58" y="138"/>
			<point x="104" y="15"/>
		</contour>
	</outline>
</glyph>
<glyph name="parenright.sc" format="2">
	<advance width="279"/>
	<outline>
		<contour>
			<point x="22" y="-70" type="curve"/>
			<point x="118" y="-70" type="line"/>
			<point x="193" y="15"/>
			<point x="239" y="137"/>
			<point x="239" y="258" type="curve" smooth="yes"/>
			<point x="239" y="379"/>
			<point x="193" y="501"/>
			<point x="117" y="586" type="curve"/>
			<point x="22" y="586" type="line"/>
			<point x="105" y="499"/>
			<point x="157" y="378"/>
			<point x="157" y="258" type="curve" smooth="yes"/>
			<point x="157" y="137"/>
			<point x="105" y="15"/>
		</contour>
	</outline>
</glyph>
<glyph name="percent.lc" format="2">
	<advance width="748"/>
	<outline>
		<contour>
			<point x="229" y="0" type="line"/>
			<point x="291" y="0" type="line"/>
			<point x="517" y="512" type="line"/>
			<point x="455" y="512" type="line"/>
		</contour>
		<contour>
			<point x="171" y="205" type="curve" smooth="yes"/>
			<point x="260" y="205"/>
			<point x="309" y="264"/>
			<point x="309" y="364" type="curve" smooth="yes"/>
			<point x="309" y="462"/>
			<point x="260" y="520"/>
			<point x="171" y="520" type="curve" smooth="yes"/>
			<point x="82" y="520"/>
			<point x="32" y="462"/>
			<point x="32" y="362" type="curve" smooth="yes"/>
			<point x="32" y="263"/>
			<point x="82" y="205"/>
		</contour>
		<contour>
			<point x="171" y="263" type="curve" smooth="yes"/>
			<point x="126" y="263"/>
			<point x="97" y="295"/>
			<point x="97" y="364" type="curve" smooth="yes"/>
			<point x="97" y="431"/>
			<point x="126" y="462"/>
			<point x="171" y="462" type="curve" smooth="yes"/>
			<point x="216" y="462"/>
			<point x="245" y="430"/>
			<point x="245" y="362" type="curve" smooth="yes"/>
			<point x="245" y="295"/>
			<point x="216" y="263"/>
		</contour>
		<contour>
			<point x="573" y="-7" type="curve" smooth="yes"/>
			<point x="659" y="-7"/>
			<point x="708" y="52"/>
			<point x="708" y="151" type="curve" smooth="yes"/>
			<point x="708" y="249"/>
			<point x="659" y="306"/>
			<point x="573" y="306" type="curve" smooth="yes"/>
			<point x="485" y="306"/>
			<point x="435" y="248"/>
			<point x="435" y="149" type="curve" smooth="yes"/>
			<point x="435" y="51"/>
			<point x="485" y="-7"/>
		</contour>
		<contour>
			<point x="573" y="50" type="curve" smooth="yes"/>
			<point x="528" y="50"/>
			<point x="499" y="82"/>
			<point x="499" y="151" type="curve" smooth="yes"/>
			<point x="499" y="219"/>
			<point x="528" y="250"/>
			<point x="573" y="250" type="curve" smooth="yes"/>
			<point x="618" y="250"/>
			<point x="647" y="218"/>
			<point x="647" y="149" type="curve" smooth="yes"/>
			<point x="647" y="81"/>
			<point x="618" y="50"/>
		</contour>
	</outline>
</glyph>
<glyph name="perthousand.tab" format="2">
	<advance width="658"/>
	<outline>
		<contour>
			<point x="144" y="430" type="curve" smooth="yes"/>
			<point x="209" y="430"/>
			<point x="246" y="476"/>
			<point x="246" y="549" type="curve" smooth="yes"/>
			<point x="246" y="619"/>
			<point x="209" y="665"/>
			<point x="144" y="665" type="curve" smooth="yes"/>
			<point x="80" y="665"/>
			<point x="42" y="618"/>
			<point x="42" y="547" type="curve" smooth="yes"/>
			<point x="42" y="476"/>
			<point x="80" y="430"/>
		</contour>
		<contour>
			<point x="144" y="481" type="curve" smooth="yes"/>
			<point x="115" y="481"/>
			<point x="97" y="506"/>
			<point x="97" y="549" type="curve" smooth="yes"/>
			<point x="97" y="590"/>
			<point x="115" y="614"/>
			<point x="144" y="614" type="curve" smooth="yes"/>
			<point x="174" y="614"/>
			<point x="192" y="589"/>
			<point x="192" y="547" type="curve" smooth="yes"/>
			<point x="192" y="505"/>
			<point x="174" y="481"/>
		</contour>
		<contour>
			<point x="281" y="-6" type="curve" smooth="yes"/>
			<point x="345" y="-6"/>
			<point x="382" y="40"/>
			<point x="382" y="113" type="curve" smooth="yes"/>
			<point x="382" y="183"/>
			<point x="345" y="229"/>
			<point x="281" y="229" type="curve" smooth="yes"/>
			<point x="216" y="229"/>
			<point x="179" y="182"/>
			<point x="179" y="111" type="curve" smooth="yes"/>
			<point x="179" y="40"/>
			<point x="216" y="-6"/>
		</contour>
		<contour>
			<point x="281" y="45" type="curve" smooth="yes"/>
			<point x="251" y="45"/>
			<point x="233" y="70"/>
			<point x="233" y="113" type="curve" smooth="yes"/>
			<point x="233" y="154"/>
			<point x="251" y="178"/>
			<point x="281" y="178" type="curve" smooth="yes"/>
			<point x="310" y="178"/>
			<point x="328" y="153"/>
			<point x="328" y="111" type="curve" smooth="yes"/>
			<point x="328" y="69"/>
			<point x="310" y="45"/>
		</contour>
		<contour>
			<point x="516" y="-6" type="curve" smooth="yes"/>
			<point x="581" y="-6"/>
			<point x="618" y="40"/>
			<point x="618" y="113" type="curve" smooth="yes"/>
			<point x="618" y="183"/>
			<point x="581" y="229"/>
			<point x="516" y="229" type="curve" smooth="yes"/>
			<point x="452" y="229"/>
			<point x="414" y="182"/>
			<point x="414" y="111" type="curve" smooth="yes"/>
			<point x="414" y="40"/>
			<point x="452" y="-6"/>
		</contour>
		<contour>
			<point x="516" y="45" type="curve" smooth="yes"/>
			<point x="487" y="45"/>
			<point x="469" y="70"/>
			<point x="469" y="113" type="curve" smooth="yes"/>
			<point x="469" y="154"/>
			<point x="487" y="178"/>
			<point x="516" y="178" type="curve" smooth="yes"/>
			<point x="546" y="178"/>
			<point x="564" y="153"/>
			<point x="564" y="111" type="curve" smooth="yes"/>
			<point x="564" y="69"/>
			<point x="546" y="45"/>
		</contour>
		<contour>
			<point x="33" y="161" type="line"/>
			<point x="74" y="125" type="line"/>
			<point x="451" y="556" type="line"/>
			<point x="410" y="592" type="line"/>
		</contour>
	</outline>
</glyph>
<glyph name="q.sinf" format="2">
	<advance width="395"/>
	<outline>
		<contour>
			<point x="282" y="-322" type="line"/>
			<point x="355" y="-322" type="line"/>
			<point x="355" y="190" type="line"/>
			<point x="318" y="190" type="line"/>
			<point x="304" y="156" type="line"/>
			<point x="280" y="182"/>
			<point x="236" y="199"/>
			<point x="198" y="199" type="curve" smooth="yes"/>
			<point x="98" y="199"/>
			<point x="28" y="127"/>
			<point x="28" y="6" type="curve" smooth="yes"/>
			<point x="28" y="-111"/>
			<point x="88" y="-179"/>
			<point x="182" y="-179" type="curve" smooth="yes"/>
			<point x="221" y="-179"/>
			<point x="258" y="-164"/>
			<point x="282" y="-133" type="curve"/>
		</contour>
		<contour>
			<point x="198" y="-115" type="curve" smooth="yes"/>
			<point x="137" y="-115"/>
			<point x="102" y="-66"/>
			<point x="102" y="8" type="curve" smooth="yes"/>
			<point x="102" y="83"/>
			<point x="142" y="134"/>
			<point x="204" y="134" type="curve" smooth="yes"/>
			<point x="232" y="134"/>
			<point x="264" y="124"/>
			<point x="281" y="106" type="curve"/>
			<point x="281" y="-73" type="line"/>
			<point x="264" y="-99"/>
			<point x="235" y="-115"/>
		</contour>
	</outline>
</glyph>
<glyph name="question.sc" format="2">
  <advance width="393"/>
  <outline>
    <contour>
      <point x="136" y="144" type="curve"/>
      <point x="211" y="144" type="line"/>
      <point x="211" y="185"/>
      <point x="230" y="220"/>
      <point x="266" y="257" type="curve" smooth="yes"/>
      <point x="318" y="306"/>
      <point x="353" y="356"/>
      <point x="353" y="419" type="curve" smooth="yes"/>
      <point x="353" y="505"/>
      <point x="296" y="561"/>
      <point x="183" y="561" type="curve" smooth="yes"/>
      <point x="132" y="561"/>
      <point x="83" y="545"/>
      <point x="40" y="520" type="curve"/>
      <point x="40" y="440" type="line"/>
      <point x="79" y="474"/>
      <point x="127" y="489"/>
      <point x="175" y="489" type="curve" smooth="yes"/>
      <point x="234" y="489"/>
      <point x="270" y="458"/>
      <point x="270" y="408" type="curve" smooth="yes"/>
      <point x="270" y="369"/>
      <point x="247" y="337"/>
      <point x="216" y="303" type="curve" smooth="yes"/>
      <point x="165" y="251"/>
      <point x="136" y="202"/>
    </contour>
    <contour>
      <point x="132" y="0" type="line"/>
      <point x="215" y="0" type="line"/>
      <point x="215" y="75" type="line"/>
      <point x="132" y="75" type="line"/>
    </contour>
  </outline>
</glyph>
<glyph name="questiondown.sc" format="2">
	<advance width="393"/>
	<outline>
		<contour>
			<point x="257" y="368" type="curve"/>
			<point x="181" y="368" type="line"/>
			<point x="181" y="327"/>
			<point x="163" y="291"/>
			<point x="126" y="254" type="curve" smooth="yes"/>
			<point x="75" y="205"/>
			<point x="40" y="156"/>
			<point x="40" y="93" type="curve" smooth="yes"/>
			<point x="40" y="7"/>
			<point x="97" y="-49"/>
			<point x="209" y="-49" type="curve" smooth="yes"/>
			<point x="260" y="-49"/>
			<point x="310" y="-33"/>
			<point x="353" y="-8" type="curve"/>
			<point x="353" y="72" type="line"/>
			<point x="314" y="38"/>
			<point x="266" y="23"/>
			<point x="217" y="23" type="curve" smooth="yes"/>
			<point x="158" y="23"/>
			<point x="122" y="54"/>
			<point x="122" y="104" type="curve" smooth="yes"/>
			<point x="122" y="143"/>
			<point x="145" y="175"/>
			<point x="176" y="209" type="curve" smooth="yes"/>
			<point x="227" y="261"/>
			<point x="257" y="310"/>
		</contour>
		<contour>
			<point x="260" y="512" type="line"/>
			<point x="178" y="512" type="line"/>
			<point x="178" y="437" type="line"/>
			<point x="260" y="437" type="line"/>
		</contour>
	</outline>
</glyph>
<glyph name="r.sinf" format="2">
	<advance width="283"/>
	<outline>
		<contour>
			<point x="44" y="-170" type="line"/>
			<point x="117" y="-170" type="line"/>
			<point x="117" y="87" type="line"/>
			<point x="130" y="111"/>
			<point x="156" y="127"/>
			<point x="185" y="127" type="curve" smooth="yes"/>
			<point x="206" y="127"/>
			<point x="224" y="123"/>
			<point x="243" y="113" type="curve"/>
			<point x="243" y="190" type="line"/>
			<point x="229" y="195"/>
			<point x="215" y="198"/>
			<point x="198" y="198" type="curve" smooth="yes"/>
			<point x="163" y="198"/>
			<point x="133" y="178"/>
			<point x="117" y="139" type="curve"/>
			<point x="117" y="190" type="line"/>
			<point x="44" y="190" type="line"/>
		</contour>
	</outline>
</glyph>
<glyph name="ringcomb.uc" format="2">
	<advance width="127"/>
	<outline>
		<contour>
			<point x="2" y="620" type="curve" smooth="yes"/>
			<point x="54" y="620"/>
			<point x="87" y="658"/>
			<point x="87" y="705" type="curve" smooth="yes"/>
			<point x="87" y="752"/>
			<point x="54" y="791"/>
			<point x="2" y="791" type="curve" smooth="yes"/>
			<point x="-50" y="791"/>
			<point x="-83" y="752"/>
			<point x="-83" y="705" type="curve" smooth="yes"/>
			<point x="-83" y="658"/>
			<point x="-50" y="620"/>
		</contour>
		<contour>
			<point x="2" y="664" type="curve" smooth="yes"/>
			<point x="-20" y="664"/>
			<point x="-37" y="680"/>
			<point x="-37" y="705" type="curve" smooth="yes"/>
			<point x="-37" y="730"/>
			<point x="-20" y="747"/>
			<point x="2" y="747" type="curve" smooth="yes"/>
			<point x="24" y="747"/>
			<point x="41" y="730"/>
			<point x="41" y="705" type="curve" smooth="yes"/>
			<point x="41" y="680"/>
			<point x="24" y="664"/>
		</contour>
	</outline>
</glyph>
<glyph name="s.sinf" format="2">
  <advance width="317"/>
  <outline>
    <contour>
      <point x="151" y="-179" type="curve" smooth="yes"/>
      <point x="232" y="-179"/>
      <point x="277" y="-136"/>
      <point x="277" y="-67" type="curve" smooth="yes"/>
      <point x="277" y="-12"/>
      <point x="244" y="26"/>
      <point x="175" y="46" type="curve" smooth="yes"/>
      <point x="161" y="50" type="line" smooth="yes"/>
      <point x="125" y="60"/>
      <point x="108" y="75"/>
      <point x="108" y="100" type="curve" smooth="yes"/>
      <point x="108" y="127"/>
      <point x="127" y="143"/>
      <point x="163" y="143" type="curve" smooth="yes"/>
      <point x="197" y="143"/>
      <point x="232" y="133"/>
      <point x="264" y="114" type="curve"/>
      <point x="264" y="177" type="line"/>
      <point x="229" y="192"/>
      <point x="190" y="199"/>
      <point x="153" y="199" type="curve" smooth="yes"/>
      <point x="75" y="199"/>
      <point x="33" y="159"/>
      <point x="33" y="94" type="curve" smooth="yes"/>
      <point x="33" y="43"/>
      <point x="64" y="3"/>
      <point x="127" y="-15" type="curve" smooth="yes"/>
      <point x="141" y="-19" type="line" smooth="yes"/>
      <point x="183" y="-31"/>
      <point x="203" y="-46"/>
      <point x="203" y="-74" type="curve" smooth="yes"/>
      <point x="203" y="-105"/>
      <point x="181" y="-122"/>
      <point x="144" y="-122" type="curve" smooth="yes"/>
      <point x="105" y="-122"/>
      <point x="67" y="-111"/>
      <point x="36" y="-88" type="curve"/>
      <point x="36" y="-153" type="line"/>
      <point x="70" y="-170"/>
      <point x="111" y="-179"/>
    </contour>
  </outline>
</glyph>
<glyph name="second.tab" format="2">
	<advance width="302"/>
	<outline>
		<contour>
			<point x="63" y="513" type="line"/>
			<point x="133" y="513" type="line"/>
			<point x="133" y="724" type="line"/>
			<point x="63" y="724" type="line"/>
		</contour>
		<contour>
			<point x="192" y="513" type="line"/>
			<point x="262" y="513" type="line"/>
			<point x="262" y="724" type="line"/>
			<point x="192" y="724" type="line"/>
		</contour>
	</outline>
</glyph>
<glyph name="section.sc" format="2">
  <advance width="383"/>
  <outline>
    <contour>
      <point x="189" y="-12" type="curve" smooth="yes"/>
      <point x="146" y="-12"/>
      <point x="100" y="-1"/>
      <point x="62" y="15" type="curve"/>
      <point x="62" y="86" type="line"/>
      <point x="97" y="65"/>
      <point x="143" y="51"/>
      <point x="187" y="51" type="curve" smooth="yes"/>
      <point x="233" y="51"/>
      <point x="258" y="67"/>
      <point x="258" y="91" type="curve" smooth="yes"/>
      <point x="258" y="112"/>
      <point x="246" y="124"/>
      <point x="205" y="140" type="curve" smooth="yes"/>
      <point x="167" y="153" type="line" smooth="yes"/>
      <point x="91" y="177"/>
      <point x="52" y="211"/>
      <point x="52" y="264" type="curve" smooth="yes"/>
      <point x="52" y="301"/>
      <point x="73" y="330"/>
      <point x="108" y="347" type="curve"/>
      <point x="82" y="367"/>
      <point x="70" y="391"/>
      <point x="70" y="423" type="curve" smooth="yes"/>
      <point x="70" y="486"/>
      <point x="120" y="526"/>
      <point x="211" y="526" type="curve" smooth="yes"/>
      <point x="259" y="526"/>
      <point x="299" y="518"/>
      <point x="333" y="501" type="curve"/>
      <point x="333" y="428" type="line"/>
      <point x="295" y="451"/>
      <point x="255" y="463"/>
      <point x="212" y="463" type="curve" smooth="yes"/>
      <point x="168" y="463"/>
      <point x="145" y="448"/>
      <point x="145" y="424" type="curve" smooth="yes"/>
      <point x="145" y="403"/>
      <point x="159" y="393"/>
      <point x="204" y="376" type="curve" smooth="yes"/>
      <point x="242" y="363" type="line" smooth="yes"/>
      <point x="309" y="342"/>
      <point x="343" y="305"/>
      <point x="343" y="257" type="curve" smooth="yes"/>
      <point x="343" y="220"/>
      <point x="326" y="192"/>
      <point x="293" y="176" type="curve"/>
      <point x="327" y="154"/>
      <point x="341" y="130"/>
      <point x="341" y="95" type="curve" smooth="yes"/>
      <point x="341" y="25"/>
      <point x="285" y="-12"/>
    </contour>
    <contour>
      <point x="236" y="202" type="line"/>
      <point x="258" y="211"/>
      <point x="268" y="227"/>
      <point x="268" y="245" type="curve" smooth="yes"/>
      <point x="268" y="267"/>
      <point x="255" y="284"/>
      <point x="222" y="296" type="curve" smooth="yes"/>
      <point x="160" y="318" type="line"/>
      <point x="139" y="311"/>
      <point x="128" y="296"/>
      <point x="128" y="276" type="curve" smooth="yes"/>
      <point x="128" y="251"/>
      <point x="143" y="235"/>
      <point x="177" y="223" type="curve"/>
    </contour>
  </outline>
</glyph>
<glyph name="six.salt" format="2">
	<advance width="540"/>
	<outline>
		<contour>
			<point x="277" y="-12" type="curve" smooth="yes"/>
			<point x="404" y="-12"/>
			<point x="500" y="88"/>
			<point x="500" y="225" type="curve" smooth="yes"/>
			<point x="500" y="345"/>
			<point x="419" y="436"/>
			<point x="298" y="436" type="curve" smooth="yes"/>
			<point x="206" y="436"/>
			<point x="124" y="383"/>
			<point x="115" y="271" type="curve"/>
			<point x="137" y="268" type="line"/>
			<point x="140" y="397"/>
			<point x="201" y="531"/>
			<point x="409" y="661" type="curve"/>
			<point x="317" y="682" type="line"/>
			<point x="134" y="570"/>
			<point x="51" y="407"/>
			<point x="51" y="244" type="curve" smooth="yes"/>
			<point x="51" y="92"/>
			<point x="146" y="-12"/>
		</contour>
		<contour>
			<point x="278" y="63" type="curve" smooth="yes"/>
			<point x="189" y="63"/>
			<point x="137" y="136"/>
			<point x="137" y="233" type="curve" smooth="yes"/>
			<point x="144" y="307"/>
			<point x="202" y="364"/>
			<point x="281" y="364" type="curve" smooth="yes"/>
			<point x="362" y="364"/>
			<point x="416" y="307"/>
			<point x="416" y="220" type="curve" smooth="yes"/>
			<point x="416" y="130"/>
			<point x="360" y="63"/>
		</contour>
	</outline>
</glyph>
<glyph name="six.sc" format="2">
	<advance width="452"/>
	<outline>
		<contour>
			<point x="228" y="-12" type="curve" smooth="yes"/>
			<point x="333" y="-12"/>
			<point x="412" y="53"/>
			<point x="412" y="167" type="curve" smooth="yes"/>
			<point x="412" y="266"/>
			<point x="343" y="334"/>
			<point x="245" y="334" type="curve" smooth="yes"/>
			<point x="176" y="334"/>
			<point x="116" y="295"/>
			<point x="103" y="213" type="curve"/>
			<point x="120" y="222" type="line"/>
			<point x="120" y="381"/>
			<point x="181" y="453"/>
			<point x="276" y="453" type="curve" smooth="yes"/>
			<point x="313" y="453"/>
			<point x="352" y="442"/>
			<point x="382" y="427" type="curve"/>
			<point x="382" y="504" type="line"/>
			<point x="348" y="517"/>
			<point x="309" y="525"/>
			<point x="271" y="525" type="curve" smooth="yes"/>
			<point x="132" y="525"/>
			<point x="40" y="420"/>
			<point x="40" y="218" type="curve" smooth="yes"/>
			<point x="40" y="62"/>
			<point x="119" y="-12"/>
		</contour>
		<contour>
			<point x="229" y="57" type="curve" smooth="yes"/>
			<point x="162" y="57"/>
			<point x="123" y="106"/>
			<point x="122" y="182" type="curve"/>
			<point x="128" y="232"/>
			<point x="173" y="269"/>
			<point x="233" y="269" type="curve" smooth="yes"/>
			<point x="293" y="269"/>
			<point x="332" y="222"/>
			<point x="332" y="165" type="curve" smooth="yes"/>
			<point x="332" y="100"/>
			<point x="290" y="57"/>
		</contour>
	</outline>
</glyph>
<glyph name="six.tab" format="2">
	<advance width="588"/>
	<outline>
		<contour>
			<point x="322" y="-12" type="curve" smooth="yes"/>
			<point x="450" y="-12"/>
			<point x="548" y="72"/>
			<point x="548" y="216" type="curve" smooth="yes"/>
			<point x="548" y="343"/>
			<point x="463" y="429"/>
			<point x="343" y="429" type="curve" smooth="yes"/>
			<point x="257" y="429"/>
			<point x="181" y="380"/>
			<point x="166" y="277" type="curve"/>
			<point x="186" y="286" type="line"/>
			<point x="186" y="497"/>
			<point x="263" y="593"/>
			<point x="383" y="593" type="curve" smooth="yes"/>
			<point x="429" y="593"/>
			<point x="477" y="580"/>
			<point x="515" y="561" type="curve"/>
			<point x="515" y="645" type="line"/>
			<point x="474" y="661"/>
			<point x="423" y="671"/>
			<point x="377" y="671" type="curve" smooth="yes"/>
			<point x="211" y="671"/>
			<point x="102" y="538"/>
			<point x="102" y="270" type="curve" smooth="yes"/>
			<point x="102" y="81"/>
			<point x="194" y="-12"/>
		</contour>
		<contour>
			<point x="323" y="63" type="curve" smooth="yes"/>
			<point x="239" y="63"/>
			<point x="189" y="132"/>
			<point x="188" y="237" type="curve"/>
			<point x="196" y="305"/>
			<point x="253" y="355"/>
			<point x="329" y="355" type="curve" smooth="yes"/>
			<point x="410" y="355"/>
			<point x="463" y="292"/>
			<point x="463" y="212" type="curve" smooth="yes"/>
			<point x="463" y="124"/>
			<point x="407" y="63"/>
		</contour>
	</outline>
</glyph>
<glyph name="six.tab_lc" format="2">
  <advance width="586"/>
  <outline>
    <contour>
      <point x="324" y="-11" type="curve" smooth="yes"/>
      <point x="457" y="-11"/>
      <point x="546" y="88"/>
      <point x="546" y="219" type="curve" smooth="yes"/>
      <point x="546" y="353"/>
      <point x="460" y="436"/>
      <point x="345" y="436" type="curve" smooth="yes"/>
      <point x="256" y="436"/>
      <point x="177" y="377"/>
      <point x="169" y="265" type="curve"/>
      <point x="188" y="265" type="line"/>
      <point x="192" y="392"/>
      <point x="264" y="533"/>
      <point x="461" y="660" type="curve"/>
      <point x="369" y="680" type="line"/>
      <point x="187" y="567"/>
      <point x="105" y="405"/>
      <point x="105" y="246" type="curve" smooth="yes"/>
      <point x="105" y="90"/>
      <point x="191" y="-11"/>
    </contour>
    <contour>
      <point x="328" y="62" type="curve" smooth="yes"/>
      <point x="243" y="62"/>
      <point x="187" y="132"/>
      <point x="188" y="233" type="curve" smooth="yes"/>
      <point x="195" y="306"/>
      <point x="250" y="364"/>
      <point x="330" y="364" type="curve" smooth="yes"/>
      <point x="411" y="364"/>
      <point x="463" y="301"/>
      <point x="463" y="216" type="curve" smooth="yes"/>
      <point x="463" y="127"/>
      <point x="405" y="62"/>
    </contour>
  </outline>
</glyph>
<glyph name="slash.sc" format="2">
	<advance width="394"/>
	<outline>
		<contour>
			<point x="18" y="0" type="line"/>
			<point x="97" y="0" type="line"/>
			<point x="354" y="512" type="line"/>
			<point x="276" y="512" type="line"/>
		</contour>
	</outline>
</glyph>
<glyph name="sterling.sc" format="2">
  <advance width="463"/>
  <outline>
    <contour>
      <point x="57" y="0" type="line"/>
      <point x="423" y="0" type="line"/>
      <point x="423" y="74" type="line"/>
      <point x="86" y="74" type="line"/>
      <point x="121" y="53" type="line"/>
      <point x="197" y="94"/>
      <point x="232" y="171"/>
      <point x="208" y="251" type="curve" smooth="yes"/>
      <point x="193" y="301" type="line" smooth="yes"/>
      <point x="166" y="394"/>
      <point x="210" y="455"/>
      <point x="300" y="455" type="curve" smooth="yes"/>
      <point x="344" y="455"/>
      <point x="387" y="443"/>
      <point x="423" y="422" type="curve"/>
      <point x="423" y="498" type="line"/>
      <point x="383" y="514"/>
      <point x="338" y="523"/>
      <point x="294" y="523" type="curve" smooth="yes"/>
      <point x="150" y="523"/>
      <point x="75" y="434"/>
      <point x="115" y="299" type="curve" smooth="yes"/>
      <point x="129" y="249" type="line" smooth="yes"/>
      <point x="151" y="173"/>
      <point x="120" y="111"/>
      <point x="57" y="76" type="curve"/>
    </contour>
    <contour>
      <point x="51" y="218" type="line"/>
      <point x="334" y="218" type="line"/>
      <point x="334" y="290" type="line"/>
      <point x="51" y="290" type="line"/>
    </contour>
  </outline>
</glyph>
<glyph name="t.sinf" format="2">
  <advance width="260"/>
  <outline>
    <contour>
      <point x="150" y="-178" type="curve" smooth="yes"/>
      <point x="174" y="-178"/>
      <point x="199" y="-173"/>
      <point x="220" y="-161" type="curve"/>
      <point x="220" y="-97" type="line"/>
      <point x="206" y="-106"/>
      <point x="192" y="-111"/>
      <point x="175" y="-111" type="curve" smooth="yes"/>
      <point x="152" y="-111"/>
      <point x="137" y="-96"/>
      <point x="137" y="-70" type="curve" smooth="yes"/>
      <point x="137" y="126" type="line"/>
      <point x="219" y="126" type="line"/>
      <point x="219" y="190" type="line"/>
      <point x="137" y="190" type="line"/>
      <point x="137" y="300" type="line"/>
      <point x="64" y="300" type="line"/>
      <point x="64" y="190" type="line"/>
      <point x="12" y="190" type="line"/>
      <point x="12" y="126" type="line"/>
      <point x="64" y="126" type="line"/>
      <point x="64" y="-89" type="line" smooth="yes"/>
      <point x="64" y="-145"/>
      <point x="97" y="-178"/>
    </contour>
  </outline>
</glyph>
<glyph name="three.sc" format="2">
	<advance width="415"/>
	<outline>
		<contour>
			<point x="202" y="-10" type="curve" smooth="yes"/>
			<point x="310" y="-10"/>
			<point x="375" y="48"/>
			<point x="375" y="137" type="curve" smooth="yes"/>
			<point x="375" y="214"/>
			<point x="323" y="259"/>
			<point x="250" y="268" type="curve"/>
			<point x="250" y="262" type="line"/>
			<point x="324" y="273"/>
			<point x="367" y="325"/>
			<point x="367" y="393" type="curve" smooth="yes"/>
			<point x="367" y="478"/>
			<point x="303" y="528"/>
			<point x="201" y="528" type="curve" smooth="yes"/>
			<point x="149" y="528"/>
			<point x="100" y="515"/>
			<point x="55" y="494" type="curve"/>
			<point x="55" y="414" type="line"/>
			<point x="93" y="439"/>
			<point x="141" y="453"/>
			<point x="191" y="453" type="curve" smooth="yes"/>
			<point x="251" y="453"/>
			<point x="285" y="424"/>
			<point x="285" y="380" type="curve" smooth="yes"/>
			<point x="285" y="330"/>
			<point x="239" y="299"/>
			<point x="167" y="299" type="curve" smooth="yes"/>
			<point x="139" y="299" type="line"/>
			<point x="139" y="227" type="line"/>
			<point x="174" y="227" type="line" smooth="yes"/>
			<point x="252" y="227"/>
			<point x="293" y="196"/>
			<point x="293" y="145" type="curve" smooth="yes"/>
			<point x="293" y="97"/>
			<point x="258" y="65"/>
			<point x="195" y="65" type="curve" smooth="yes"/>
			<point x="139" y="65"/>
			<point x="85" y="83"/>
			<point x="40" y="113" type="curve"/>
			<point x="40" y="32" type="line"/>
			<point x="92" y="6"/>
			<point x="145" y="-10"/>
		</contour>
	</outline>
</glyph>
<glyph name="tildecomb.uc" format="2">
	<advance width="183"/>
	<outline>
		<contour>
			<point x="-94" y="715" type="line"/>
			<point x="-92" y="744"/>
			<point x="-77" y="760"/>
			<point x="-56" y="760" type="curve" smooth="yes"/>
			<point x="-41" y="760"/>
			<point x="-27" y="752"/>
			<point x="-9" y="737" type="curve" smooth="yes"/>
			<point x="15" y="718"/>
			<point x="34" y="709"/>
			<point x="59" y="709" type="curve" smooth="yes"/>
			<point x="104" y="709"/>
			<point x="139" y="744"/>
			<point x="143" y="811" type="curve"/>
			<point x="95" y="811" type="line"/>
			<point x="92" y="782"/>
			<point x="77" y="766"/>
			<point x="57" y="766" type="curve" smooth="yes"/>
			<point x="41" y="766"/>
			<point x="28" y="776"/>
			<point x="10" y="789" type="curve" smooth="yes"/>
			<point x="-17" y="809"/>
			<point x="-36" y="817"/>
			<point x="-58" y="817" type="curve" smooth="yes"/>
			<point x="-106" y="817"/>
			<point x="-138" y="781"/>
			<point x="-142" y="715" type="curve"/>
		</contour>
	</outline>
</glyph>
<glyph name="two.sc" format="2">
	<advance width="426"/>
	<outline>
		<contour>
			<point x="40" y="0" type="line"/>
			<point x="386" y="0" type="line"/>
			<point x="386" y="76" type="line"/>
			<point x="81" y="76" type="line"/>
			<point x="88" y="56" type="line"/>
			<point x="211" y="139" type="line" smooth="yes"/>
			<point x="320" y="193"/>
			<point x="380" y="272"/>
			<point x="380" y="357" type="curve" smooth="yes"/>
			<point x="380" y="458"/>
			<point x="310" y="528"/>
			<point x="197" y="528" type="curve" smooth="yes"/>
			<point x="147" y="528"/>
			<point x="91" y="515"/>
			<point x="47" y="493" type="curve"/>
			<point x="47" y="411" type="line"/>
			<point x="88" y="439"/>
			<point x="141" y="453"/>
			<point x="184" y="453" type="curve" smooth="yes"/>
			<point x="250" y="453"/>
			<point x="298" y="413"/>
			<point x="298" y="344" type="curve" smooth="yes"/>
			<point x="298" y="285"/>
			<point x="252" y="227"/>
			<point x="162" y="183" type="curve" smooth="yes"/>
			<point x="40" y="99" type="line"/>
		</contour>
	</outline>
</glyph>
<glyph name="u.sinf" format="2">
	<advance width="381"/>
	<outline>
		<contour>
			<point x="162" y="-179" type="curve" smooth="yes"/>
			<point x="208" y="-179"/>
			<point x="243" y="-159"/>
			<point x="267" y="-122" type="curve"/>
			<point x="273" y="-170" type="line"/>
			<point x="341" y="-170" type="line"/>
			<point x="341" y="190" type="line"/>
			<point x="267" y="190" type="line"/>
			<point x="267" y="-64" type="line"/>
			<point x="252" y="-94"/>
			<point x="226" y="-113"/>
			<point x="188" y="-113" type="curve" smooth="yes"/>
			<point x="142" y="-113"/>
			<point x="114" y="-85"/>
			<point x="114" y="-34" type="curve" smooth="yes"/>
			<point x="114" y="190" type="line"/>
			<point x="41" y="190" type="line"/>
			<point x="41" y="-47" type="line" smooth="yes"/>
			<point x="41" y="-126"/>
			<point x="85" y="-179"/>
		</contour>
	</outline>
</glyph>
<glyph name="v.sinf" format="2">
	<advance width="399"/>
	<outline>
		<contour>
			<point x="145" y="-170" type="line"/>
			<point x="225" y="-170" type="line"/>
			<point x="359" y="190" type="line"/>
			<point x="289" y="190" type="line"/>
			<point x="218" y="-8" type="line"/>
			<point x="175" y="-136" type="line"/>
			<point x="202" y="-136" type="line"/>
			<point x="159" y="-8" type="line"/>
			<point x="88" y="190" type="line"/>
			<point x="10" y="190" type="line"/>
		</contour>
	</outline>
</glyph>
<glyph name="w.sinf" format="2">
  <advance width="627"/>
  <outline>
    <contour>
      <point x="129" y="-170" type="line"/>
      <point x="212" y="-170" type="line"/>
      <point x="279" y="37" type="line"/>
      <point x="319" y="173" type="line"/>
      <point x="276" y="173" type="line"/>
      <point x="316" y="37" type="line"/>
      <point x="383" y="-170" type="line"/>
      <point x="466" y="-170" type="line"/>
      <point x="587" y="190" type="line"/>
      <point x="517" y="190" type="line"/>
      <point x="453" y="-8" type="line"/>
      <point x="407" y="-161" type="line"/>
      <point x="448" y="-161" type="line"/>
      <point x="402" y="-8" type="line"/>
      <point x="338" y="190" type="line"/>
      <point x="263" y="190" type="line"/>
      <point x="200" y="-8" type="line"/>
      <point x="155" y="-161" type="line"/>
      <point x="193" y="-161" type="line"/>
      <point x="149" y="-8" type="line"/>
      <point x="86" y="190" type="line"/>
      <point x="10" y="190" type="line"/>
    </contour>
  </outline>
</glyph>
<glyph name="x.sinf" format="2">
	<advance width="388"/>
	<outline>
		<contour>
			<point x="14" y="-170" type="line"/>
			<point x="94" y="-170" type="line"/>
			<point x="163" y="-68" type="line"/>
			<point x="194" y="-19" type="line"/>
			<point x="214" y="2" type="line"/>
			<point x="341" y="190" type="line"/>
			<point x="263" y="190" type="line"/>
			<point x="201" y="98" type="line"/>
			<point x="175" y="56" type="line"/>
			<point x="155" y="35" type="line"/>
		</contour>
		<contour>
			<point x="264" y="-170" type="line"/>
			<point x="348" y="-170" type="line"/>
			<point x="212" y="33" type="line"/>
			<point x="193" y="55" type="line"/>
			<point x="167" y="98" type="line"/>
			<point x="106" y="190" type="line"/>
			<point x="23" y="190" type="line"/>
			<point x="151" y="-1" type="line"/>
			<point x="167" y="-21" type="line"/>
			<point x="196" y="-68" type="line"/>
		</contour>
	</outline>
</glyph>
<glyph name="y.sinf" format="2">
	<advance width="398"/>
	<outline>
		<contour>
			<point x="13" y="-325" type="line" smooth="yes"/>
			<point x="125" y="-325"/>
			<point x="181" y="-282"/>
			<point x="230" y="-155" type="curve" smooth="yes"/>
			<point x="358" y="190" type="line"/>
			<point x="287" y="190" type="line"/>
			<point x="217" y="-8" type="line"/>
			<point x="165" y="-160" type="line"/>
			<point x="207" y="-160" type="line"/>
			<point x="156" y="-8" type="line"/>
			<point x="86" y="190" type="line"/>
			<point x="10" y="190" type="line"/>
			<point x="154" y="-194" type="line"/>
			<point x="155" y="-159" type="line"/>
			<point x="124" y="-235"/>
			<point x="83" y="-260"/>
			<point x="13" y="-260" type="curve" smooth="yes"/>
			<point x="7" y="-260" type="line"/>
			<point x="7" y="-325" type="line"/>
		</contour>
	</outline>
</glyph>
<glyph name="yen.lc" format="2">
  <advance width="466"/>
  <outline>
    <contour>
      <point x="83" y="69" type="line"/>
      <point x="354" y="69" type="line"/>
      <point x="354" y="123" type="line"/>
      <point x="83" y="123" type="line"/>
    </contour>
    <contour>
      <point x="83" y="162" type="line"/>
      <point x="354" y="162" type="line"/>
      <point x="354" y="216" type="line"/>
      <point x="83" y="216" type="line"/>
    </contour>
    <contour>
      <point x="177" y="0" type="line"/>
      <point x="258" y="0" type="line"/>
      <point x="258" y="229" type="line"/>
      <point x="244" y="184" type="line"/>
      <point x="426" y="466" type="line"/>
      <point x="336" y="466" type="line"/>
      <point x="240" y="313" type="line"/>
      <point x="195" y="231" type="line"/>
      <point x="247" y="231" type="line"/>
      <point x="202" y="314" type="line"/>
      <point x="107" y="466" type="line"/>
      <point x="11" y="466" type="line"/>
      <point x="193" y="184" type="line"/>
      <point x="177" y="230" type="line"/>
    </contour>
  </outline>
</glyph>
<glyph name="yen.sc" format="2">
	<advance width="504"/>
	<outline>
		<contour>
			<point x="95" y="81" type="line"/>
			<point x="382" y="81" type="line"/>
			<point x="382" y="135" type="line"/>
			<point x="95" y="135" type="line"/>
		</contour>
		<contour>
			<point x="95" y="181" type="line"/>
			<point x="382" y="181" type="line"/>
			<point x="382" y="236" type="line"/>
			<point x="95" y="236" type="line"/>
		</contour>
		<contour>
			<point x="198" y="0" type="line"/>
			<point x="279" y="0" type="line"/>
			<point x="279" y="245" type="line"/>
			<point x="264" y="200" type="line"/>
			<point x="464" y="511" type="line"/>
			<point x="374" y="511" type="line"/>
			<point x="260" y="329" type="line"/>
			<point x="215" y="247" type="line"/>
			<point x="267" y="247" type="line"/>
			<point x="222" y="330" type="line"/>
			<point x="109" y="511" type="line"/>
			<point x="13" y="511" type="line"/>
			<point x="213" y="200" type="line"/>
			<point x="198" y="246" type="line"/>
		</contour>
	</outline>
</glyph>
<glyph name="zero.tab" format="2">
	<advance width="606"/>
	<outline>
		<contour>
			<point x="323" y="-14" type="curve" smooth="yes"/>
			<point x="482" y="-14"/>
			<point x="566" y="117"/>
			<point x="566" y="332" type="curve" smooth="yes"/>
			<point x="566" y="546"/>
			<point x="482" y="676"/>
			<point x="323" y="676" type="curve" smooth="yes"/>
			<point x="167" y="676"/>
			<point x="84" y="545"/>
			<point x="84" y="330" type="curve" smooth="yes"/>
			<point x="84" y="115"/>
			<point x="167" y="-14"/>
		</contour>
		<contour>
			<point x="323" y="64" type="curve" smooth="yes"/>
			<point x="226" y="64"/>
			<point x="169" y="153"/>
			<point x="169" y="332" type="curve" smooth="yes"/>
			<point x="169" y="510"/>
			<point x="226" y="598"/>
			<point x="323" y="598" type="curve" smooth="yes"/>
			<point x="423" y="598"/>
			<point x="481" y="509"/>
			<point x="481" y="330" type="curve" smooth="yes"/>
			<point x="481" y="152"/>
			<point x="423" y="64"/>
		</contour>
	</outline>
</glyph>
<glyph name="zero.tab_lc" format="2">
	<advance width="597"/>
	<outline>
		<contour>
			<point x="323" y="-11" type="curve" smooth="yes"/>
			<point x="467" y="-11"/>
			<point x="557" y="84"/>
			<point x="557" y="236" type="curve" smooth="yes"/>
			<point x="557" y="388"/>
			<point x="467" y="483"/>
			<point x="323" y="483" type="curve" smooth="yes"/>
			<point x="181" y="483"/>
			<point x="93" y="387"/>
			<point x="93" y="235" type="curve" smooth="yes"/>
			<point x="93" y="84"/>
			<point x="181" y="-11"/>
		</contour>
		<contour>
			<point x="323" y="61" type="curve" smooth="yes"/>
			<point x="232" y="61"/>
			<point x="175" y="127"/>
			<point x="175" y="236" type="curve" smooth="yes"/>
			<point x="175" y="346"/>
			<point x="232" y="410"/>
			<point x="323" y="410" type="curve" smooth="yes"/>
			<point x="417" y="410"/>
			<point x="475" y="345"/>
			<point x="475" y="235" type="curve" smooth="yes"/>
			<point x="475" y="126"/>
			<point x="417" y="61"/>
		</contour>
	</outline>
</glyph>
